<svg width="732" height="732" viewBox="0 0 732 732" fill="none" xmlns="http://www.w3.org/2000/svg">
<g clip-path="url(#clip0_1_45)">
<path d="M365.8 731.6C163.774 731.6 0 567.826 0 365.8C0 163.774 163.774 0 365.8 0C567.826 0 731.6 163.774 731.6 365.8C731.6 567.826 567.826 731.6 365.8 731.6Z" fill="#FFF7F5"/>
<path d="M713.5 18.8001C711.3 17.8001 709.7 18.3001 708 20.1001C700.6 27.7001 693.1 35.1001 685.6 42.5001C678.6 49.5001 671.6 56.5001 664.6 63.5001C663.7 64.4001 662.8 65.3001 661.8 66.1001C661.4 66.5001 660.8 66.2001 660.8 65.6001C660.7 64.5001 660.6 63.4001 660.6 62.3001C660.6 51.7001 660.7 41.2001 660.6 30.6001C660.6 29.1001 661.4 27.0001 659.7 26.2001C657.6 25.2001 656.7 27.5001 655.5 28.6001C632.4 51.6001 609.3 74.7001 586.2 97.8001C584.1 99.9001 583.3 102.1 583.3 105C583.4 117 583.1 129 583.2 141C583.2 143.8 582.4 145.8 580.5 147.7C546.2 181.9 511.9 216.2 477.6 250.5C477.1 251 476.7 251.4 476.2 251.8C475.5 252.5 474.7 252.8 473.7 252.3C469.4 250 465.1 250 460.9 252.4C459.9 253 459.1 252.8 458.3 252.1C457.6 251.5 456.8 250.9 456.1 250.3C436.3 234.6 414 224.2 389 220.2C341.7 212.7 300 224.8 264 256.4C262.7 257.5 261.7 259.6 259.9 259.5C258.2 259.4 257.2 257.4 256 256.2C237.1 237.3 218.2 218.4 199.3 199.5C198.2 198.4 196.3 197.4 196.3 195.9C196.3 194.4 198.2 193.4 199.3 192.3C203.9 187.6 208.6 183 213.2 178.4C214 177.6 214.7 176.8 215.4 175.9C216 175.1 215.6 174.3 214.9 173.8C214.4 173.4 213.7 173.3 213.1 173.1C191.1 164.4 169.1 155.8 147.1 147.1C145.9 146.6 144.7 146.1 143.5 145.7C142 145.2 140.8 146.2 141.3 147.7C141.7 149.1 142.3 150.4 142.8 151.7C151 172.7 159.3 193.6 167.6 214.6C168 215.6 168.5 216.7 168.8 217.7C170.1 221.1 170.4 221.1 173.1 218.4C178.8 212.7 184.4 207.1 190.1 201.4C190.9 200.6 191.7 199.8 192.5 199C193.2 198.4 193.8 198.3 194.5 199C195.2 199.7 195.9 200.3 196.6 201C215.9 220.3 235.3 239.7 254.6 259C255.4 259.8 256.2 260.6 256.9 261.4C257.3 261.8 257.3 262.3 257 262.7C256.4 263.5 255.8 264.2 255.1 264.9C242.5 278.4 232.8 293.7 226 310.8C225 313.4 223.4 314.5 220.9 315.1C208 318.1 195.3 321.9 182.9 326.7C175.9 329.5 169.1 332.6 162.6 336.4C157.8 339.2 153.2 342.4 149.1 346.3C145.7 349.5 142.9 353.2 141.1 357.5C138.8 362.9 138.8 368.4 141 373.8C142.5 377.4 144.7 380.5 147.3 383.4C151.6 388 156.6 391.7 162 394.9C170.5 400 179.6 403.9 189 407.3C198.9 410.9 209 413.8 219.3 416.3C224.6 417.6 224.6 417.6 226.6 422.5C232.2 436.2 239.8 448.8 249.2 460.2C251.5 463 254.1 465.7 256.5 468.5C257.6 469.8 257.6 470.2 256.5 471.3C255.6 472.2 254.7 473.1 253.8 474C212.4 515.4 171 556.8 129.6 598.2C128.3 599.5 127.2 601.2 125.3 601.9C124 600.7 122.7 599.6 121.4 598.4C116.7 593.8 112.1 589.1 107.5 584.5C106.6 583.6 105.7 582.7 104.7 581.9C103.9 581.2 102.7 581.6 102.4 582.6C102.2 583.4 102 584.1 101.9 584.9C99.9 599 98 613.1 96 627.2C95.9 627.8 95.9 628.5 95.6 629.1C95.4 629.5 94.9 629.8 94.4 629.4C93.5 628.7 92.7 627.9 91.9 627.2C87.6 622.9 83.3 618.6 79 614.3C78.2 613.5 77.4 612.7 76.6 611.9C74.5 610 73.5 610.3 72.5 612.9C64.2 633.9 56 654.8 47.7 675.8C46.8 678.2 45.8 680.6 45 683C44.6 684.3 45.6 685.2 46.9 684.9C47.7 684.7 48.4 684.4 49.2 684.2C72.3 675.2 95.3 666.1 118.4 657.1C120 656.5 120.2 655.5 119 654.2C113.9 649.1 108.8 644 103.7 638.9C102.8 638 101.9 637.1 101 636.2C100.7 635.9 100.5 635.4 100.5 635C100.5 634.4 101.1 634.3 101.6 634.2C104 633.8 106.3 633.5 108.7 633.2C120.9 631.5 133.1 629.9 145.3 628.2C146.1 628.1 146.9 627.9 147.6 627.6C148.4 627.3 148.8 626.3 148.3 625.7C147.5 624.7 146.6 623.8 145.7 622.9C140.2 617.3 134.6 611.8 129.1 606.3C127.7 604.9 127.7 604.7 129.1 603.2C129.9 602.4 130.7 601.6 131.5 600.8C173 559.3 214.5 517.8 256 476.3C256.1 476.2 256.2 476.1 256.3 476C260.6 471.8 259.6 472.1 263.7 475.8C284.7 494.8 309.2 507.2 337.1 512C379.4 519.2 418.1 510 452.7 484.5C453.2 484.1 453.8 483.8 454.2 483.3C456.6 480.6 459.2 480.2 462.7 481.7C466.1 483.3 469.6 482.3 472.8 480.5C474.2 479.7 475.1 479.8 476.1 481C476.7 481.7 477.4 482.4 478.1 483C494.6 499.5 511.1 516 527.6 532.5C528.5 533.4 529.4 534.3 530.3 535.2C530.9 535.8 531.1 536.6 530.4 537.3C529.5 538.2 528.6 539.1 527.7 540.1C522.4 545.4 517.1 550.7 511.8 556.1C508.4 559.5 508.5 560.1 512.8 561.8C534.5 570.3 556.2 578.9 577.9 587.4C579.2 587.9 580.6 588.4 581.9 588.8C582.9 589.1 583.9 588.1 583.6 587.1C583.2 585.6 582.6 584.1 582.1 582.6C573.9 561.6 565.6 540.7 557.3 519.7C556.7 518.2 556.2 516.7 555.6 515.2C555.1 513.9 554 513.7 553 514.6C552.3 515.2 551.7 516 551 516.7C546.4 521.3 541.7 526 537.1 530.6C536.3 531.4 535.5 532.2 534.7 532.9C534 533.5 533.3 533.5 532.6 532.9C531.9 532.3 531.2 531.6 530.5 530.9C513.5 513.9 496.6 497 479.6 480C479.3 479.7 478.9 479.3 478.6 479C477.2 477.8 476.9 476.7 477.9 474.9C479.5 472 479.9 468.9 479.1 465.6C477.2 458 469.5 453.6 462 456.1C461.1 456.4 460.2 456.8 459.4 457.2C458.2 457.9 457.3 457.6 456.4 456.7C456.1 456.3 455.7 456 455.4 455.7C447.4 447.7 439.3 439.6 431.3 431.6C430.8 431.1 430.4 430.7 430 430.2C429.8 430 429.6 429.6 429.6 429.4C429.6 428.8 430.1 428.7 430.6 428.6C433.6 428.3 436.6 428 439.7 427.7C456.6 426 473.3 423.6 490 420.3C505.2 417.3 520.2 413.6 534.9 408.5C542.9 405.7 550.8 402.6 558.3 398.7C563.7 395.9 568.9 392.8 573.7 389C577.2 386.2 580.5 383.1 583 379.4C589 370.7 589 361.3 583 352.5C580.3 348.6 577 345.4 573.3 342.6C567.6 338.2 561.3 334.6 554.8 331.5C540.7 324.8 526 320.1 510.9 316.3C493.7 311.9 476.2 308.7 458.6 306.4C450 305.3 441.5 304.2 432.9 303.5C432.1 303.4 431.3 303.3 430.6 303C430.1 302.8 429.9 302.3 430.2 301.8C430.5 301.3 431 300.8 431.4 300.4C440 291.8 448.6 283.2 457.2 274.6C458.7 273.1 459.9 272.8 461.8 273.8C464.6 275.3 467.7 275.4 470.7 274.5C477.3 272.5 480.8 265.5 478.7 258.8C478.4 257.9 478 257 477.5 256.2C477.1 255.3 477.3 254.7 477.9 254.1C478.7 253.3 479.5 252.5 480.3 251.7C513.9 218.1 547.5 184.5 581.1 150.9C581.7 150.3 582.3 149.8 582.8 149.2C584.1 147.5 585.8 147.2 587.9 147.2C600.1 147.3 612.2 147.1 624.4 147.3C627.4 147.3 629.5 146.4 631.5 144.3C646.5 129.2 661.6 114.2 676.5 99.1001C678.2 97.3001 680.6 96.5001 681.9 94.0001C683 91.8001 685.3 90.3001 687.2 88.5001C692.1 83.6001 696.9 78.8002 701.8 73.9002C702.6 73.1002 703.8 72.4001 703.3 71.1001C702.7 69.6001 701.2 69.9002 700 69.9002C689.6 69.9002 679.2 69.9002 668.8 69.9002C667.4 69.9002 665.9 69.9001 664.5 69.8001C664.2 69.8001 664 69.5001 663.8 69.3001C663.5 69.0001 663.6 68.7001 663.9 68.5001C664.6 67.8001 665.2 67.1002 665.9 66.4002C680.4 51.9002 694.9 37.4001 709.3 23.0001C710 22.3001 710.7 21.7001 711.4 21.0001C711.9 20.5001 712.6 20.5001 713.2 20.7001C713.5 20.1001 713.5 19.5001 713.5 18.8001Z" fill="#151D38"/>
<path d="M175.2 212.1L175 211.9L175.3 212.2C174.8 211.3 175 210.3 175.2 209.4C177.2 202.7 179.3 196 181.2 189.2C181.8 187.3 182.9 186.4 184.7 185.8C191.4 183.8 198.1 181.6 204.8 179.6C205.3 179.5 205.7 179.3 206.2 179.3C206.5 179.3 206.9 179.3 207.1 179.5C207.2 179.6 207.1 180.1 207 180.3C206.6 180.8 206.2 181.3 205.7 181.7C195.6 191.8 185.4 202 175.2 212.1Z" fill="#FF9500"/>
<path d="M517.2 555C517.3 555.4 517.4 555.4 517.4 555.1C517.3 555.1 517.2 555.2 517.1 555.2C518.4 554 519.7 552.9 521 551.7C530.4 542.3 539.8 533 549.2 523.6C549.5 523.3 550.1 522.9 550.4 523C551 523.1 550.8 523.7 550.6 524.2C548.5 531.4 546.4 538.6 544.3 545.8C543.9 547.3 543.1 548.3 541.5 548.7C534.5 550.8 527.5 553.1 520.5 555.2C519.3 555.6 518.2 555.8 517.2 555Z" fill="#FF9500"/>
<path d="M52.0001 675.4C52.0001 675.5 52.0001 675.7 52.0001 675.8C52.0001 675.9 51.7001 675.9 51.7001 675.9C51.6001 675.6 51.7001 675.4 52.0001 675.4C51.6001 673.9 52.6002 672.7 53.1002 671.4C59.5002 654.9 66.0001 638.5 72.5001 622C72.9001 621.1 73.2002 620.2 73.6002 619.4C73.7002 619.1 74.0002 618.9 74.3002 618.8C75.0002 618.6 75.0002 619.2 75.1002 619.6C77.6002 627.5 80.1002 635.4 82.6002 643.3C83.1002 644.9 82.6001 646 81.5001 647.1C72.3001 656.2 63.1001 665.3 54.0001 674.4C53.5001 674.9 53.0001 675.6 52.0001 675.4Z" fill="#89A2B0"/>
<path d="M54.2001 677.8C54.2001 678.1 55.1001 678 54.5001 678.6C54.4001 678.3 54.3001 678.1 54.2001 677.8C55.7001 677.5 56.5001 676.2 57.5001 675.2C65.5001 667.3 73.4001 659.4 81.3001 651.5C82.2001 650.6 83.1001 649.7 84.0001 648.8C85.0001 647.8 86.1001 647.6 87.5001 648C95.1001 650.3 102.8 652.6 110.4 654.9C110.9 655 111.3 655.2 111.7 655.4C111.8 655.5 112 655.6 112.1 655.6C111.9 655.9 111.8 656.2 111.6 656.4C110.5 657 109.3 657.5 108.1 658C97.3001 662.3 86.4001 666.5 75.6001 670.8C69.8001 673.1 64.0001 675.3 58.2001 677.7C56.9001 678.2 55.6001 678.8 54.2001 677.8Z" fill="#FF9500"/>
<path d="M148.1 154.6C151.7 158.2 155.3 161.9 158.9 165.5C164.9 171.5 170.8 177.6 176.8 183.5C178.3 185 179 186.3 178.3 188.5C176 195.7 174 202.9 171.9 210.1C171.7 210.7 171.5 211.3 171.2 211.9C171.1 212.1 170.7 212.4 170.6 212.4C170.3 212.3 170.1 212 169.9 211.8C169.6 211.2 169.4 210.6 169.1 210.1C166.5 203.4 163.8 196.7 161.2 190C157.2 179.7 153.1 169.5 149.1 159.2C148.5 157.7 147.6 156.3 148.3 154.6C148.2 154.6 148.1 154.7 148 154.7C148.1 154.7 148.2 154.8 148.2 154.7C148.6 154.4 148.4 155.2 148.1 154.6Z" fill="white"/>
<path d="M429 426.1C426.9 426.8 424.9 425.3 422.8 423.2C415.4 415.6 407.9 408.3 400.5 400.8C396.5 396.8 396.9 397.9 400 393.6C407.8 383 410.6 371.3 408.4 358.3C407.1 350.4 403.7 343.4 398.7 337.2C397.3 335.4 397.3 335.3 398.9 333.6C407.4 325.1 415.9 316.7 424.3 308.1C425.8 306.6 427.3 306.1 429.4 306.3C443.2 307.7 457 309.3 470.8 311.4C487.7 314.1 504.4 317.5 520.9 322.2C533.7 325.9 546.1 330.3 558 336.4C564 339.5 569.7 343 574.7 347.5C577.7 350.2 580.4 353.1 582.3 356.7C585.7 362.9 585.8 369.2 582.3 375.4C581 377.6 579.5 379.7 577.8 381.6C574.3 385.4 570.2 388.5 565.9 391.2C559.9 395 553.7 398.1 547.2 400.8C527.6 409 507.2 414 486.5 418.1C474.9 420.4 463.2 422.1 451.5 423.6C444.3 424.5 437.1 425.2 429 426.1Z" fill="#FFF7F5"/>
<path d="M304.9 302.8C303.1 303.4 301.8 302 300.4 300.6C291.6 291.8 282.8 283 273.9 274.1C270.5 270.7 267.1 267.3 263.7 263.9C262.3 262.4 262.3 262.2 263.7 260.8C264.4 260.1 265.1 259.5 265.8 258.8C300 228.5 339.9 216.4 385.2 222.5C408.7 225.7 430.1 234.8 449.3 248.8C451.5 250.4 453.6 252.1 455.7 253.8C457.3 255.1 457.3 255.2 456.5 257C455.4 259.4 455 261.9 455.2 264.5C455.3 266.1 456 267.6 456.7 269C457.2 270 457.2 270.8 456.4 271.6C455.9 272 455.5 272.5 455.1 273C445.9 282.2 436.7 291.3 427.7 300.5C426 302.3 424.3 302.9 421.8 302.7C409.9 301.6 397.9 301 385.9 300.8C375.3 300.6 364.8 300.3 354.2 300.5C337.9 300.9 321.6 301.2 304.9 302.8Z" fill="#FFF7F5"/>
<path d="M368.5 511.3C354.4 511.3 345 510.4 335.7 508.5C309.2 503.3 286 491.5 266 473.4C265.2 472.6 264.4 471.9 263.6 471.1C262.9 470.4 263.1 469.7 263.7 469C264 468.6 264.3 468.3 264.7 468C276.9 455.8 289.2 443.6 301.3 431.3C302.7 429.9 304.1 429.5 306 429.6C310.5 430 314.9 430.3 319.4 430.5C331.4 431 343.4 431.7 355.3 431.7C369.7 431.6 384.1 431.9 398.5 430.9C406.3 430.4 414.1 430.1 422 429.5C424.1 429.4 425.6 429.9 427.1 431.4C430.4 434.9 433.9 438.2 437.3 441.6C443.1 447.4 448.8 453.1 454.6 458.9C455.6 459.9 455.9 460.8 455.1 462.3C452.6 466.9 452.7 471.4 455.3 476C456.3 477.8 456.3 477.9 454.8 479.2C453.4 480.3 452.1 481.4 450.6 482.5C424.8 501.5 395.8 511 368.5 511.3Z" fill="#FFF7F5"/>
<path d="M218.5 365C218.7 359.2 219 351.6 220.2 344C221.5 335.8 223.5 327.7 226.1 319.8C226.7 318 227.6 316.9 229.6 316.4C242.3 313.7 255 311.5 267.8 309.7C277.5 308.4 287.1 307.3 296.9 306.4C302 306 301 305.5 304.8 309.3C312.2 316.6 319.5 324 326.8 331.3C327.9 332.4 329.7 333.3 329.8 334.9C329.9 336.5 328.2 337.5 327.2 338.7C314.9 355.3 315.1 377.7 327.7 394C328.3 394.8 328.9 395.5 329.5 396.2C330.4 397.1 330 397.9 329.3 398.7C320.7 407.3 312.1 415.9 303.5 424.5C302.4 425.6 301.2 426.1 299.7 425.9C294.6 425.4 289.5 425.1 284.4 424.5C269.8 422.8 255.2 420.8 240.8 418C236.7 417.2 232.7 416.3 228.6 415.4C227.4 415.1 226.6 414.5 226.3 413.3C226.1 412.4 225.7 411.5 225.4 410.6C220.9 396.5 218.7 381.8 218.5 365Z" fill="#FFF7F5"/>
<path d="M142.4 366.2C142.6 361 144.6 356.7 147.6 352.9C150.8 348.8 154.7 345.6 159 342.7C164.7 338.8 170.8 335.6 177.1 332.8C190.9 326.7 205.2 322.4 219.8 318.7C223.3 317.8 223.4 318.7 222.3 321.7C222.1 322.3 222 322.9 221.8 323.5C214.6 347.9 213.6 372.5 218.9 397.4C220 402.4 221.4 407.3 222.8 412.2C223.2 413.5 222.6 414.1 221.4 413.8C218.1 413 214.9 412.2 211.6 411.3C198.6 407.8 185.9 403.6 173.7 397.9C167 394.8 160.6 391.2 154.9 386.5C151.4 383.7 148.2 380.5 145.8 376.7C143.8 373.6 142.5 370 142.4 366.2Z" fill="#FFF7F5"/>
<path d="M363.6 323.7C373 323.6 381.5 326.5 389.1 332.1C393.1 335.1 392.7 334.9 389.6 338C371.5 356.1 353.4 374.2 335.3 392.3C334.7 392.9 334.2 393.4 333.6 394C332.9 394.7 332.1 394.5 331.5 393.8C330.8 393.1 330.2 392.4 329.7 391.6C323 382.4 320.3 372.2 321.6 360.9C323.9 340.6 341.7 323.6 363.6 323.7Z" fill="#FF9500"/>
<path d="M363.8 408.6C354.4 408.6 345.9 405.8 338.3 400.1C334.4 397.2 334.6 397.3 337.7 394.1C355.7 376.1 373.7 358.1 391.7 340.1C392.4 339.4 393.1 338.7 393.8 338.1C394.5 337.4 395.2 337.6 395.9 338.3C396.4 338.9 397 339.5 397.4 340.1C404.7 350 407.6 360.9 405.6 373.1C402.4 392.9 384.9 408.7 363.8 408.6Z" fill="#FFDAA7"/>
<path d="M363.6 303.6C380.2 303.6 396.9 304.1 413.5 305.1C415.6 305.2 417.6 305.5 419.7 305.7C420.3 305.8 421.1 305.6 421.2 306.4C421.3 307.1 420.7 307.5 420.3 308C420.2 308.1 420.1 308.2 420 308.3C412.3 316 404.6 323.7 396.9 331.4C396.7 331.6 396.4 331.8 396.2 332.1C395.5 332.8 394.8 332.8 394.1 332.2C393.3 331.6 392.6 331 391.9 330.4C375.4 317.6 352.9 317.4 336.2 330C335.3 330.7 334.4 331.4 333.6 332.1C333 332.6 332.4 332.5 331.9 332C331.3 331.5 330.7 330.9 330.2 330.4C323.1 323.3 315.9 316.2 308.8 309C308.2 308.4 307.7 307.8 307.2 307.2C306.7 306.6 306.9 305.9 307.7 305.8C309.9 305.5 312.1 305.2 314.4 305.1C330.6 304 347.1 303.5 363.6 303.6Z" fill="#FFF7F5"/>
<path d="M362.5 428.7C349.3 429 334.6 428.2 319.9 427.5C315.9 427.3 311.9 426.9 307.9 426.6C307.2 426.5 306.9 425.7 307.3 425.2C307.7 424.7 308.1 424.2 308.6 423.8C315.9 416.4 323.3 409.1 330.6 401.7C330.9 401.4 331.3 401 331.6 400.7C332.4 399.8 333.2 400 334.1 400.7C334.6 401.1 335.1 401.5 335.6 401.9C351.7 414.6 375.2 414.8 391.7 401.8C392.3 401.3 392.9 400.8 393.6 400.3C394.3 399.7 395 399.7 395.7 400.3C396.3 400.8 396.9 401.4 397.4 402C404.5 409.1 411.7 416.2 418.8 423.4C419.5 424.1 420.1 424.8 420.6 425.6C420.7 425.8 420.5 426.4 420.4 426.4C419.8 426.6 419.2 426.7 418.5 426.7C400.4 428.1 382.2 428.9 362.5 428.7Z" fill="#FFF7F5"/>
<path d="M229.9 419.1C230.4 419.2 231 419.2 231.7 419.3C237.2 420.4 242.6 421.5 248.1 422.5C261 424.8 273.9 426.6 287 427.9C290.3 428.2 293.7 428.6 297 428.9C297.5 428.9 298 429.1 298 429.7C298 430 297.9 430.3 297.7 430.6C297.3 431.1 296.8 431.5 296.4 432C285.2 443.2 274 454.4 262.9 465.5C262.6 465.8 262.2 466.2 261.9 466.5C260.6 467.6 260.2 467.6 259.1 466.6C258.6 466.2 258.2 465.7 257.8 465.2C246 452.6 236.8 438.3 230 422.4C229.7 421.7 229.4 420.9 229.2 420.1C228.9 419.6 229.3 419.3 229.9 419.1Z" fill="#FFF7F5"/>
<path d="M260.1 265C260.6 265.4 261.1 265.7 261.5 266.1C273.3 277.8 285 289.6 296.7 301.3C296.9 301.5 297.1 301.8 297.3 302.1C297.5 302.6 297.3 303.1 296.8 303.2C295.9 303.4 294.9 303.6 294 303.7C288 304.4 281.9 305 275.9 305.7C261.9 307.3 248.1 309.5 234.3 312.4C232.9 312.7 231.5 313 230.1 313.2C229.1 313.4 228.7 312.8 229 311.8C229.3 311 229.5 310.3 229.9 309.6C236.6 293.9 245.7 279.7 257.4 267.3C257.9 266.7 258.5 266.1 259.1 265.6C259.4 265.3 259.7 265.2 260.1 265Z" fill="#FFF7F5"/>
<path d="M608.1 100.4C608.1 94.8001 608.2 89.2001 608 83.6001C607.9 81.3001 608.7 79.7001 610.3 78.1001C617.9 70.6001 625.5 63.0001 633 55.4001C633.6 54.8001 634.1 54.3001 634.8 53.9001C635.2 53.7001 635.7 53.8001 635.8 54.5001C635.9 55.3001 636 56.1001 636 56.9001C636 67.6001 636 78.3001 636 89.0001C636 91.2001 635.3 92.9001 633.7 94.5001C626.1 102 618.5 109.6 611 117.2C610.5 117.7 610.1 118.1 609.6 118.5C609.4 118.7 609 118.8 608.7 118.8C608.1 118.7 608 118.2 608 117.7C608.1 111.9 608.1 106.2 608.1 100.4Z" fill="#CED8DC"/>
<path d="M629.5 123.7C624.2 123.7 619 123.7 613.7 123.7C612.7 123.7 611.8 123.6 610.8 123.5C610.3 123.4 610.1 123 610.3 122.5C610.4 122.2 610.6 122 610.9 121.7C618.8 113.8 626.7 105.9 634.6 98.0002C635.6 97.0002 636.6 96.7002 638 96.7002C648.5 96.8002 659.1 96.8002 669.6 96.8002C670.7 96.8002 671.8 96.9002 673 96.9002C673.4 96.9002 673.7 97.0002 673.7 97.4002C673.7 97.7002 673.7 98.0002 673.6 98.3002C673.5 98.6002 673.2 98.8002 673 99.0002C665.2 106.8 657.4 114.6 649.7 122.4C648.6 123.5 647.3 123.8 645.8 123.8C640.4 123.7 634.9 123.7 629.5 123.7Z" fill="#FFDAA7"/>
<path d="M101.6 631.4C101.3 631.4 100.9 631.4 100.4 631.4C99.4001 631.4 99.0001 630.8 99.0001 629.9C99.0001 629.1 99.1001 628.3 99.2001 627.5C100.9 615.3 102.6 603.2 104.3 591C104.4 590.1 104.6 589.1 104.8 588.2C105 587.5 105.6 587.2 106.2 587.6C106.7 588 107.2 588.4 107.6 588.9C119 600.3 130.4 611.7 141.8 623.1C142.2 623.5 142.7 624 143 624.6C143.1 624.8 143 625.3 142.9 625.4C142.5 625.6 142 625.7 141.5 625.8C133 627 124.4 628.2 115.9 629.5C111.3 630.1 106.6 630.7 101.6 631.4Z" fill="#FFDAA7"/>
<path d="M150.6 152.7C150.9 152.5 151.2 152.2 151.4 152.3C152.3 152.6 153.2 152.9 154.1 153.2C171 159.9 187.9 166.5 204.8 173.2C205.7 173.6 206.6 173.9 207.4 174.3C207.6 174.4 207.8 174.7 208 174.9C207.8 175.1 207.5 175.3 207.2 175.5C206.6 175.8 206 176 205.4 176.2C198.3 178.4 191.1 180.6 184 182.9C182 183.6 180.5 183.4 178.9 181.7C174.5 177.1 169.9 172.6 165.4 168.1C160.7 163.3 156 158.6 151.2 153.8C151.1 153.5 150.9 153.1 150.6 152.7Z" fill="#89A2B0"/>
<path d="M517.3 559.7C517.7 559.5 518.1 559.2 518.6 559C526.3 556.5 534.1 554.1 541.8 551.7C543.7 551.1 545 551.6 546.4 553C555.3 562.1 564.4 571.1 573.3 580.2C573.7 580.7 574.2 581.1 574.6 581.6C574.7 581.8 574.7 582.1 574.7 582.4C574.4 582.4 574.1 582.5 573.8 582.5C573 582.3 572.3 582 571.6 581.7C554.7 575 537.8 568.4 520.9 561.7C519.9 561.3 518.8 560.8 517.8 560.4C517.7 560.2 517.5 559.9 517.3 559.7Z" fill="#CED8DC"/>
<path d="M546.7 548.2C546.8 547.7 547 547.2 547.1 546.8C549.4 539 551.8 531.2 554.1 523.4C554.2 523.1 554.3 522.7 554.5 522.6C554.7 522.5 555.2 522.5 555.3 522.6C555.8 523.4 556.3 524.2 556.6 525.1C563.4 542.3 570.2 559.6 577 576.8C577.2 577.4 577.4 578 577.6 578.6C577.6 578.7 577.6 579 577.5 579C577.2 579.1 576.9 579.2 576.7 579.1C576.2 578.7 575.7 578.3 575.3 577.8C566.5 569 557.7 560.1 548.9 551.3C548.3 550.7 547.8 550.2 547.3 549.5C547 549.1 546.9 548.6 546.7 548.2Z" fill="#89A2B0"/>
<path d="M678.3 73.0001C682.1 73.0001 685.9 72.9001 689.8 73.0001C692.3 73.1001 694.9 72.4001 697.3 73.5001C696.7 76.4001 693.9 77.4001 692.4 79.5001C690.9 81.5001 688.9 81.9001 686.5 81.9001C676.3 81.8001 666.1 81.9001 655.9 81.9001C654.9 81.9001 654 81.8001 653 81.7001C652.4 81.6001 652 80.7001 652.5 80.3001C654 78.7001 655.7 77.2001 657.1 75.5001C658.7 73.6001 660.5 72.9001 663 73.0001C668.1 73.1001 673.2 73.0001 678.3 73.0001Z" fill="#FFDAA7"/>
<path d="M586.3 121.7C586.4 121.7 586.4 121.7 586.5 121.7C586.5 117.4 586.5 113.1 586.5 108.8C586.6 100.5 585.5 103.3 591.3 97.3C592.1 96.5 592.9 95.7 593.7 95C593.9 94.8 594.3 94.8 594.6 94.8C595 94.8 595.2 95.1 595.2 95.5C595.2 96.8 595.3 98 595.3 99.3C595.3 108.5 595.4 117.8 595.3 127C595.2 134.2 596.2 131.9 591 137.3C590 138.3 589 139.3 587.9 140.3C587.3 140.8 586.5 140.6 586.5 139.9C586.4 138.3 586.4 136.7 586.3 135.1C586.3 130.6 586.3 126.2 586.3 121.7Z" fill="#FFDAA7"/>
<path d="M658.9 93.7C655.7 93.7 652.5 93.7 649.3 93.7C646.6 93.7 643.9 93.7 641.2 93.7C640.8 93.7 640.1 93.7 640.1 93.1C640.1 92.7 640.4 92.2001 640.7 91.9001C642.6 90.0001 644.5 88.1 646.4 86.1C647.4 85.1 648.5 84.8 649.8 84.8C661.1 84.8 672.4 84.8 683.7 84.8C684.3 84.8 685.1 84.9 685.4 85.3C685.9 85.9 685.2 86.4001 684.8 86.9001C683.3 88.5001 681.6 90 680.2 91.7C678.8 93.3 677.2 93.8 675.1 93.7C669.8 93.7 664.4 93.7 658.9 93.7Z" fill="#FF9500"/>
<path d="M110.6 651.6C110.4 651.6 110.3 651.6 110.1 651.5C102.6 649.3 95.0999 647 87.5999 644.8C86.3999 644.4 85.8998 643.6 85.4998 642.5C84.2998 638.4 82.8999 634.3 81.6999 630.2C80.6999 626.8 79.5999 623.5 78.5999 620.1C78.4999 619.7 78.1999 619.1 78.7999 618.9C79.0999 618.8 79.5998 619.2 79.9998 619.5C80.2998 619.7 80.4999 619.9 80.6999 620.2C90.4999 630 100.4 639.8 110.2 649.7C110.5 650 110.9 650.4 111.2 650.8C111.3 650.9 111.4 651.2 111.3 651.2C111.1 651.3 110.8 651.5 110.6 651.6Z" fill="#CED8DC"/>
<path d="M639.1 68.8001C639.1 63.4001 639.1 58.0001 639.1 52.5001C639.1 51.2001 638.9 49.8001 639.8 48.8001C641.8 46.7001 643.8 44.8001 645.9 42.8001C646.3 42.4001 646.9 42.7001 647 43.2001C647.2 44.3001 647.2 45.4001 647.2 46.5001C647.2 55.7001 647.2 65.0001 647.2 74.2001C647.2 76.4001 647.7 78.9001 646.8 80.8001C645.6 83.5001 642.8 85.3001 640.7 87.4001C640.6 87.5001 640.4 87.5001 640.3 87.6001C639.9 87.8001 639.6 87.7001 639.5 87.3001C639.3 86.5001 639.2 85.8001 639.2 85.0001C639.1 79.6001 639.1 74.2001 639.1 68.8001Z" fill="#FFDAA7"/>
<path d="M456.2 469.2C456.1 463.5 460.7 458.7 466.3 458.6C471.9 458.5 476.7 463.2 476.7 468.9C476.7 474.4 472.3 479 466.8 479.3C461.4 479.6 456.4 474.9 456.2 469.2Z" fill="#FF9500"/>
<path d="M650.2 58.0002C650.2 52.3002 650.2 46.5002 650.2 40.8002C650.2 39.9002 650 38.8002 650.7 38.1002C652.6 36.2002 654.5 34.3002 656.5 32.4002C656.9 32.0002 657.5 32.3002 657.6 32.8002C657.7 33.9002 657.8 35.0002 657.8 36.1002C657.8 45.3002 657.8 54.6002 657.8 63.8002C657.8 71.2002 657.6 71.7002 651.9 76.3002C651.7 76.5002 651.3 76.7002 651.1 76.7002C650.5 76.6002 650.4 76.2002 650.4 75.7002C650.2 69.8002 650.2 63.9002 650.2 58.0002Z" fill="#FF9500"/>
<path d="M615.1 136.8C620.5 136.8 625.9 136.8 631.3 136.8C632.2 136.8 633.4 136.3 633.8 137.5C634 138.3 633.1 138.8 632.6 139.4C631.7 140.3 630.7 141.2 629.9 142.1C628.4 143.8 626.7 144.4 624.4 144.4C613.7 144.3 603.1 144.4 592.4 144.4C591.8 144.4 591.1 144.4 590.5 144.3C589.8 144.3 589.4 143.4 589.8 142.9C591.2 141.4 592.8 140 594.1 138.4C595.3 137.1 596.6 136.7 598.3 136.7C603.9 136.8 609.5 136.8 615.1 136.8Z" fill="#CED8DC"/>
<path d="M619 133.8C613.7 133.8 608.5 133.8 603.2 133.8C602.2 133.8 600.7 134.5 600.3 133.1C600 132.2 601.2 131.5 601.8 130.9C602.5 130.2 603.2 129.6 603.8 128.8C605.1 127.1 606.8 126.7 608.9 126.7C619.4 126.8 630 126.7 640.5 126.7C641.1 126.7 641.8 126.7 642.4 126.8C642.8 126.9 643.4 127 643.6 127.3C643.9 127.7 643.6 128.2 643.3 128.5C642.3 129.5 641.2 130.5 640.3 131.6C638.8 133.4 637 133.8 634.8 133.8C629.6 133.7 624.3 133.8 619 133.8Z" fill="#FFDAA7"/>
<path d="M476.7 262.7C476.8 268 472.7 272.2 467.5 272.2C462.5 272.2 458.3 268.1 458.2 263.1C458.1 257.9 462.3 253.6 467.5 253.6C472.6 253.7 476.6 257.6 476.7 262.7Z" fill="#FFDAA7"/>
<path d="M598.2 110C598.2 105.5 598.2 101.1 598.2 96.6002C598.2 89.9002 598.2 89.9002 603.1 85.5002C603.2 85.4002 603.3 85.3002 603.5 85.2002C603.9 84.9002 604.3 84.6002 604.8 85.0002C605 85.2002 605.1 85.5002 605.2 85.8002C605.2 87.9002 605.3 90.0002 605.3 92.0002C605.3 101.4 605.3 110.9 605.3 120.3C605.3 121.6 605.5 122.9 604.5 123.9C602.9 125.5 601.3 127 599.7 128.6C599.2 129 598.7 128.7 598.6 128.2C598.4 127.3 598.4 126.3 598.4 125.3C598.2 120.2 598.2 115.1 598.2 110Z" fill="#FF9500"/>
<path d="M129.7 559.7V605.2H172.2" stroke="black" stroke-width="3" stroke-miterlimit="10" stroke-linecap="round" stroke-linejoin="round"/>
<path d="M587.7 187.7V144.2H543.2" stroke="black" stroke-width="3" stroke-miterlimit="10" stroke-linecap="round" stroke-linejoin="round"/>
<path d="M229.928 501.002C154.831 425.905 154.831 304.149 229.928 229.052C305.025 153.955 426.781 153.955 501.878 229.052C576.976 304.149 576.976 425.905 501.878 501.002C426.781 576.1 305.025 576.1 229.928 501.002Z" stroke="#FF9500" stroke-width="3" stroke-linecap="round" stroke-linejoin="round" stroke-dasharray="0.5 10.01"/>
<path d="M365.8 587.8C330.399 587.8 301.7 488.094 301.7 365.1C301.7 242.106 330.399 142.4 365.8 142.4C401.201 142.4 429.9 242.106 429.9 365.1C429.9 488.094 401.201 587.8 365.8 587.8Z" stroke="#89A2B0" stroke-width="3" stroke-linecap="round" stroke-linejoin="round" stroke-dasharray="0.5 9.95"/>
</g>
<defs>
<clipPath id="clip0_1_45">
<rect width="731.6" height="731.6" fill="white"/>
</clipPath>
</defs>
</svg>
