<svg width="1545" height="1052" viewBox="0 0 1545 1052" fill="none" xmlns="http://www.w3.org/2000/svg">
<path d="M127.4 774.1C195.4 740.4 273.6 753.8 345.1 766.5C383.2 773.3 421.2 779.6 459.8 782.8C501.1 786.3 542.6 787 584 785C664.1 781 742.8 765.2 821.8 752.1C900.8 739.1 981.4 728.9 1061.4 738.4C1139.3 747.7 1215.3 780.6 1294.7 774C1303.6 773.3 1312.4 772 1321.2 770.2C1323.1 769.8 1322.3 766.9 1320.4 767.3C1240.5 783.5 1162 751.5 1084.1 738.6C1006.1 725.7 926.8 732.8 849.2 744.7C768.6 757 688.7 774.4 607.3 780.5C525.2 786.6 443.5 780.8 362.5 766.5C293.2 754.2 218.4 738 149.6 761.5C141.5 764.3 133.6 767.6 125.9 771.4C124.2 772.4 125.7 775 127.4 774.1Z" fill="#E8E8E8"/>
<path d="M1068.1 905.8C1064.4 898 1043.2 847.6 1062.5 848.8C1063.6 848.9 1064.1 847.8 1063.9 846.9C1061.4 831.3 1061.7 815.3 1064.9 799.7C1066.4 792.5 1068.5 785.5 1071.2 778.7C1073.6 772.6 1079.3 755.3 1088.5 763.4C1094.1 768.4 1093.5 779.2 1094.1 786C1094.7 794 1095 802 1095 810.1C1094.9 826.3 1093.5 842.5 1090.8 858.5C1089.3 867 1087.5 875.5 1085.3 883.8C1084.1 888.3 1082.8 892.7 1081.5 897.1C1080.2 901.1 1079.2 907.2 1074.6 908.7C1072.8 909.3 1073.6 912.2 1075.4 911.6C1081.8 909.4 1083.2 901.8 1084.9 896.1C1087.8 886.7 1090.2 877.1 1092.2 867.4C1096 848.2 1098 828.6 1098 809C1098 798.8 1097.5 788.6 1096.5 778.5C1095.8 772.1 1095.3 764.3 1089.5 760.2C1075.6 750.4 1068.2 777.3 1065.5 786C1059.2 805.9 1057.8 826.9 1061.1 847.5C1061.6 846.9 1062.1 846.2 1062.5 845.6C1050.5 844.9 1050.8 859.2 1052.3 867.2C1054.9 881 1059.4 894.4 1065.5 907.1C1066.4 909.1 1068.9 907.5 1068.1 905.8Z" fill="#E8E8E8"/>
<path d="M1098.3 823.5C1098 816.7 1098.7 809.9 1100.6 803.4C1101.5 800.2 1102.7 797.1 1104.1 794C1104.8 792.6 1105.5 791.2 1106.3 789.9C1106.8 789.2 1107.4 788.6 1107.9 787.9C1110.9 784.9 1113.4 785.4 1115.3 789.5C1115 791.4 1117.6 792.2 1118.2 790.3C1120.2 783.7 1124.1 775.5 1132.1 775.1C1140.6 774.7 1142.9 783.3 1143.2 790.1C1143.9 803.2 1141.6 816.6 1138.2 829.2C1131.2 854.9 1118.3 878.6 1105.5 901.9C1104.6 903.6 1107.2 905.1 1108.1 903.4C1124 874.4 1140.4 844.3 1145 811.2C1146 803.8 1146.7 796.2 1146.1 788.7C1145.7 783.5 1144.3 777.7 1139.9 774.4C1135.7 771.3 1130 771.6 1125.6 774C1119.9 777.2 1117 783.4 1115.2 789.4C1116.2 789.7 1117.1 789.9 1118.1 790.2C1118.6 786.8 1116.7 783.9 1113.2 783.1C1109.4 782.2 1106.1 784.7 1104 787.7C1096.9 797.6 1094.7 811.6 1095.2 823.4C1095.3 825.4 1098.3 825.4 1098.3 823.5Z" fill="#E8E8E8"/>
<path d="M1027.7 954.3C1070.7 930.8 1121.7 932.3 1168.8 939.1C1220.1 946.5 1271.7 960.1 1323.8 953.6C1352.7 950 1382 940.1 1411.2 947C1413.1 947.4 1413.9 944.6 1412 944.1C1386.7 938.1 1361.3 944.4 1336.3 948.7C1309.2 953.3 1282 952.9 1254.7 949.6C1203.5 943.5 1153 929.3 1101 932C1075 933.3 1049.2 939.1 1026.2 951.6C1024.5 952.6 1026 955.2 1027.7 954.3Z" fill="#E8E8E8"/>
<path d="M1159.4 885.4C1197.7 888.9 1234.9 877.7 1271.9 869.3C1291.4 864.9 1311.2 861.1 1331.2 860.9C1352.1 860.6 1372.6 864.8 1393.1 868.3C1414.9 872.1 1436.9 874.9 1458.9 870.8C1460.8 870.4 1460 867.6 1458.1 867.9C1417.2 875.5 1377.2 858.5 1336.5 857.8C1298.4 857.2 1261.7 869.4 1224.8 877.1C1203.3 881.6 1181.5 884.4 1159.5 882.4C1157.5 882.3 1157.5 885.3 1159.4 885.4Z" fill="#E8E8E8"/>
<path d="M270.4 752.5C266.9 748.7 263.8 744.4 261.5 739.7C260.4 737.4 259.4 735.1 258.7 732.6C258.1 730.7 257.5 728.7 257.9 726.8C258.3 724.6 260.7 719.7 264.2 722.9C265.3 723.9 267.1 722.9 266.7 721.4C261.2 701.6 259.9 681.5 258.5 661.1C257.1 640.8 255.6 620 259.6 599.9C260.6 595.1 261.3 588.1 266.7 586.4C273.4 584.2 278.1 591.3 280 596.6C283.4 605.8 285.5 615.8 287.7 625.4C292.4 645.8 295.6 666.5 297.5 687.3C299.5 710.2 299.8 733.2 298.5 756.1C298.4 758 301.4 758 301.5 756.1C304.2 709.5 300 662.5 288.8 617.2C287.4 611.6 286 606.1 284.4 600.6C283.1 596.2 281.7 591.7 278.8 588.2C274.9 583.6 267.5 581.1 262.4 585.3C259.4 587.8 258.4 592 257.6 595.6C256.4 600.9 255.5 606.2 255 611.6C253.8 623.1 254 634.7 254.6 646.3C256 671.8 257.1 697.7 263.9 722.4C264.7 721.9 265.6 721.4 266.4 720.9C260.9 715.8 254.6 722.3 254.9 728.3C255.3 738 262.1 747.9 268.4 754.7C269.6 756.1 271.7 754 270.4 752.5Z" fill="#E8E8E8"/>
<path d="M299.7 666.1C295.6 656.6 297.9 646.4 300.4 636.8C302.6 628.1 304.8 619.6 304.8 610.6C304.9 600.4 304.2 590.5 306.8 580.5C308 575.9 309.7 571.5 311.8 567.2C312.7 565.4 313.8 562.5 315.3 561.2C319.8 557.2 322.1 564.6 323.1 567.4C329.9 586.1 331.1 606.3 331.4 626C331.8 646.7 331.2 667.4 329.7 688C328 711.7 325 735.3 320.9 758.8C320.6 760.7 323.5 761.5 323.8 759.6C332.1 712.6 335.9 664.6 334.1 617C333.7 606 332.8 594.9 330.6 584.1C329.6 578.8 328.2 573.5 326.5 568.4C325.3 564.9 324.1 560.1 320.9 557.8C313.9 552.7 309.2 565.2 307.3 569.7C303.4 578.8 301.5 588.5 301.5 598.4C301.5 605 302 611.6 301.3 618.2C300.6 624.6 298.7 630.7 297.2 636.9C294.6 647.2 292.7 657.6 297 667.7C297.9 669.3 300.5 667.8 299.7 666.1Z" fill="#E8E8E8"/>
<path d="M164.1 532.8C221.1 490.3 279.3 447.5 345.4 419.9C378 406.3 412.5 396.8 447.8 394C486.8 390.9 526 396.1 563.8 405.9C641 426.1 711.1 465.1 784.1 496.1C854.8 526.2 928.9 545.9 1004.5 558.8C1080.2 571.7 1156.8 578.4 1233.3 584.3C1242.8 585 1252.3 585.8 1261.8 586.5C1263.7 586.6 1263.7 583.6 1261.8 583.5C1183.5 577.6 1105.1 571.6 1027.5 559.5C950.8 547.6 874.7 529.7 802.6 500.6C729.4 471.1 660.2 431.8 584.5 408.7C547.7 397.5 509.5 390.1 470.9 390.1C435.4 390.1 400.3 396.9 366.9 408.5C299.8 431.9 240.4 472.8 183.6 514.6C176.6 519.8 169.6 525 162.6 530.2C161 531.4 162.5 534 164.1 532.8Z" fill="#E8E8E8"/>
<path d="M1026.9 557C1088.2 558.3 1147.4 540.5 1206.2 525.5C1236.4 517.8 1266.8 510.7 1297.8 507.4C1328.7 504 1359.9 504.8 1390.5 510.6C1425.1 517.1 1458.4 529.7 1488.7 547.5C1490.4 548.5 1491.9 545.9 1490.2 544.9C1437.3 513.9 1375.7 499.1 1314.5 503C1252.1 506.9 1192.6 527.4 1132 541.2C1097.5 549.1 1062.3 554.8 1026.8 554.1C1025 554 1025 557 1026.9 557Z" fill="#E8E8E8"/>
<path d="M1345.1 764.8C1387.9 758.3 1431.6 758.1 1474.5 764.4C1476.4 764.7 1477.2 761.8 1475.3 761.5C1431.8 755.2 1387.8 755.4 1344.3 761.9C1342.4 762.2 1343.2 765 1345.1 764.8Z" fill="#E8E8E8"/>
<path d="M28.3001 673.1C60.6001 633.9 95.6001 596.9 133 562.6C134.4 561.3 132.3 559.2 130.9 560.5C93.4001 594.8 58.4001 631.7 26.2001 671C25.0001 672.5 27.1001 674.6 28.3001 673.1Z" fill="#E8E8E8"/>
<path d="M1190.3 128.1C1176.8 132.8 1166.2 121.5 1159.6 111.2C1153.1 101.2 1148.4 90.3 1148.4 78.1C1148.5 55.2 1163.8 35.1 1185 27.1C1204.6 19.8 1228.5 23.7 1243.7 38.5C1259.4 53.8 1263.4 77.6 1253.5 97C1250.7 102.5 1247.1 107.7 1243.5 112.7C1241.4 115.6 1239.4 118.8 1236.5 121.1C1233.1 123.7 1229.3 124.2 1225.2 124.7C1211.2 126.4 1197.1 127.9 1183 129.5C1181.1 129.7 1181.1 132.7 1183 132.5C1198.2 130.8 1213.7 129.7 1228.8 127.3C1241.1 125.3 1247.7 112.9 1253.5 103C1265.3 82.9 1264.4 58.4 1249.2 40.2C1234.1 22.1 1207.5 16.2 1185.5 23.7C1163.4 31.3 1146.9 51.2 1145.4 74.8C1144.5 89.7 1150.4 103.4 1158.7 115.4C1165.9 125.8 1177.4 135.6 1190.9 130.9C1192.9 130.4 1192.1 127.5 1190.3 128.1Z" fill="#E8E8E8"/>
<path d="M276.8 165.7C272.6 155.4 283.6 147 292.9 146.3C302.8 145.6 312.3 149.8 321.9 151.6C340 155.1 358.6 153.7 376.1 147.9C392.9 142.3 409.3 133.1 427.4 132.7C446 132.4 462.6 143.4 481.4 141.1C490.5 140 499.3 137.1 508.5 136.4C517 135.7 529.8 137.3 532.8 147C535.8 156.7 522.2 164.8 515 168.3C507 172.2 498.1 174.3 489.3 174.4C479.9 174.4 471.5 171.6 462.7 168.7C454.6 166 446.6 164.4 438.1 164.6C421.9 164.9 406.3 170.1 390.8 174.4C381.2 177.1 371.4 179.6 361.4 180.4C351.1 181.2 341.7 179.4 331.8 177C322 174.6 313.4 175.5 303.5 176.9C297.6 177.7 291.4 178.2 285.9 175.3C281 172.7 277 168.1 278.2 162.2C278.6 160.3 275.7 159.5 275.3 161.4C273.8 168.3 277.8 174.1 283.8 177.5C291.9 182.1 300.9 180.2 309.7 178.9C315.8 178 321.5 177.8 327.6 179C333 180.1 338.3 181.9 343.8 182.8C352.4 184.2 361.1 183.7 369.7 182.4C389.3 179.2 407.8 171.3 427.4 168.5C437.9 167 448.3 167.4 458.5 170.5C468 173.4 477 177.1 487 177.4C503.1 178 524.2 171.6 533.6 157.6C537.8 151.3 536.5 144 530.8 139.2C524.5 133.7 515.7 132.8 507.7 133.6C497.4 134.6 487.5 138.1 477.2 138.6C465.7 139.2 455.1 134.8 444.1 132C423.6 126.8 405.6 133.5 386.6 140.9C375 145.4 363.4 149.1 350.9 150.2C337.3 151.4 324.3 149.4 311.1 146C301.7 143.6 290.9 141.1 282.1 146.6C275.4 150.8 270.8 158.7 273.9 166.5C274.6 168.2 277.5 167.5 276.8 165.7Z" fill="#E8E8E8"/>
<path d="M1112.9 330.8C1127.3 316.8 1148.2 317 1167 318.8C1189 320.9 1210.3 323.7 1232.5 321.3C1243.9 320 1255 317.6 1266.1 314.7C1277.7 311.7 1289.6 308.5 1301.8 308.9C1314.1 309.3 1325.6 314.2 1337.7 315.9C1348.7 317.4 1359.8 316.1 1370.7 314C1380.5 312.2 1390.2 309.2 1400.3 309.7C1409.2 310.1 1420.1 314.6 1419.3 325.4C1418.5 335.5 1407.1 342.5 1398 344C1386.4 345.8 1374.6 341.6 1363.1 340.7C1341.5 339 1325.2 353.5 1304.7 357.2C1283.1 361.1 1262.8 349.2 1242.3 344.8C1217.1 339.5 1193.2 350.5 1168.6 354.5C1156.3 356.5 1142 359.2 1129.6 356.7C1123.5 355.4 1117.7 352.4 1114.7 346.7C1112 341.4 1111.9 335 1116.4 330.7C1117.8 329.4 1115.7 327.2 1114.3 328.6C1108.5 334.1 1108.8 342.8 1112.8 349.4C1117.6 357.3 1126.8 360 1135.5 360.5C1161.1 362 1186.1 353.3 1210.7 348.1C1224.4 345.2 1237 346.2 1250.4 350C1261.6 353.2 1272.4 357.6 1283.9 359.7C1294.8 361.7 1305.3 361.1 1315.7 357.3C1326.6 353.4 1336.8 347.3 1348.2 344.7C1369.8 339.8 1394.1 355.7 1413.5 340.5C1420 335.4 1424.5 327.2 1421.4 319C1418.7 311.9 1411.8 308.4 1404.7 307.4C1395.5 306 1386.6 308 1377.6 309.9C1363.3 312.9 1348.7 315.3 1334.1 312.5C1321.5 310.1 1309.6 305.6 1296.5 306.2C1284.1 306.8 1272.1 310.4 1260.1 313.4C1244.9 317.2 1229.4 319.4 1213.7 319.7C1200.1 319.9 1186.7 318.2 1173.2 316.7C1151.9 314.3 1127.6 312.8 1111 328.9C1109.4 330 1111.5 332.1 1112.9 330.8Z" fill="#E8E8E8"/>
<path d="M461.6 1010.7C457.1 1006.6 453.2 1002 450 996.8C448.5 994.4 447.1 991.8 446 989.2C445.4 987.7 444.4 985.5 444.6 983.8C444.9 980.9 447.7 976.5 451.1 979.2C452.4 980.3 454.3 979 453.5 977.4C449.7 970 447.4 961.5 447.8 953.1C447.9 951.5 448.1 950 448.7 948.5C449.2 947.2 449.9 946 450.8 944.9C452.6 943.1 454.2 943.1 455.6 945.1C459.3 947.8 460.8 953 462.5 957.1C468.6 971.7 473.1 986.9 476.2 1002.4C477.2 1002.1 478.1 1001.9 479.1 1001.6C476.4 994.1 474.3 986.4 473 978.5C472.1 972.9 470.5 954.3 482 960.5C489.4 964.5 490.8 976.4 490.8 983.9C490.9 992.2 489.3 1000.3 487.7 1008.4C487.3 1010.3 490.2 1011.1 490.6 1009.2C492.6 998.9 494.7 988.2 493.4 977.6C492.4 969.9 489 957.6 479.7 956.4C472.3 955.5 469.3 963 469.1 969.1C468.7 980.2 472.5 992.2 476.2 1002.5C476.9 1004.3 479.5 1003.6 479.1 1001.7C476.8 990.1 473.6 978.6 469.6 967.5C467.8 962.5 465.9 957.6 463.7 952.7C462.1 949 460.5 943.7 456.6 941.6C450.4 938.2 446 945.1 445 950.3C443.2 959.8 446.5 970.7 450.7 979.1L453.1 977.3C447 972.2 440.8 979.5 441.7 985.9C443.2 996.1 452.2 1006.2 459.4 1013C460.9 1014.1 463 1012 461.6 1010.7Z" fill="#E8E8E8"/>
<path d="M341.2 258C363.4 253.5 386 249 408.8 251C430.7 252.9 451.4 260.7 472.6 266.1C514 276.5 556.9 280.2 599.5 280.1C623.9 280 648.2 278.8 672.5 276.8C674.4 276.6 674.4 273.6 672.5 273.8C629.1 277.2 585.3 278.6 541.8 274.6C519.7 272.6 497.7 269.1 476.1 263.9C455.5 258.9 435.5 251.4 414.4 248.7C389.5 245.5 364.7 250.3 340.4 255.2C338.5 255.5 339.3 258.4 341.2 258Z" fill="#E8E8E8"/>
<path d="M575.2 258.2C648.6 254.4 719.9 229.4 793.9 234C795.8 234.1 795.8 231.1 793.9 231C720 226.4 648.6 251.5 575.2 255.2C573.2 255.3 573.2 258.3 575.2 258.2Z" fill="#E8E8E8"/>
<path d="M1179.1 757.4C1176.2 750.1 1174.7 742.4 1174.8 734.5C1174.8 730.5 1175.3 726.5 1176.2 722.6C1177 719 1181 709.7 1185.6 715.6C1186.4 716.6 1188.3 715.8 1188.2 714.5C1187.2 705.9 1187.4 697.3 1189 688.8C1189.7 685.1 1190.7 681.4 1192 677.8C1192.8 675.6 1193.6 673.2 1194.7 671.1C1196.3 668.1 1198.1 667.3 1201.1 665.8C1206.5 663.3 1206.6 656.8 1207.9 651.6C1209.7 644.5 1211.8 637.3 1215.9 631.2C1218.3 627.6 1222.8 621.8 1227.7 623.1C1231.6 624.1 1233 628.3 1233.7 631.9C1235.3 639.8 1234.2 648.6 1233.8 656.6C1232.9 674.3 1230.6 692 1227 709.3C1223 728.3 1217.3 746.9 1210.2 765C1209.5 766.8 1212.4 767.6 1213.1 765.8C1227.9 728.4 1236.2 688.5 1237.2 648.2C1237.4 640.4 1238.4 614.4 1223 620.4C1216.5 623 1212.1 630.9 1209.5 637C1208 640.5 1206.9 644.1 1205.9 647.7C1204.4 653.2 1204.4 660 1199.1 663.2C1196 665.1 1194 665.9 1192.2 669.5C1190.1 673.6 1188.6 678.3 1187.4 682.8C1184.7 693.1 1184 703.8 1185.3 714.4C1186.2 714 1187 713.7 1187.9 713.3C1185.9 710.8 1182.6 710.2 1179.7 711.5C1175.8 713.3 1174.4 717.8 1173.5 721.6C1170.7 733.7 1171.9 746.4 1176.4 758C1176.9 760 1179.8 759.2 1179.1 757.4Z" fill="#E8E8E8"/>
<path d="M1150.7 752.2C1146.4 745.5 1142.2 738.5 1140 730.7C1139 727.1 1138.4 723.4 1138.6 719.7C1138.9 715.6 1140.6 712.4 1142 708.6C1144.2 702.5 1140.7 696.7 1139.3 690.8C1138.6 688 1134.5 663.1 1143.3 666.5C1144.4 666.9 1145.4 665.7 1145.1 664.7C1142.2 651.8 1139.2 638.1 1143.3 625.2C1145.1 619.5 1152.4 604.7 1159.9 611.5C1164.5 615.7 1167.1 623.5 1169.2 629.1C1178.4 654.4 1182.4 682.5 1184.2 709.3C1184.3 711.2 1187.3 711.2 1187.2 709.3C1186 691.8 1183.6 674.4 1179.9 657.3C1176.7 642.3 1173.2 625.6 1164.5 612.6C1161.8 608.6 1157.9 605.2 1152.8 607.3C1147.4 609.5 1143.7 616.1 1141.6 621.1C1135.7 635.4 1139 651 1142.2 665.6C1142.8 665 1143.4 664.4 1144 663.8C1138.7 661.7 1135.5 667.7 1134.7 672.2C1133.1 682.2 1136.8 691.5 1139.1 701C1140.5 706.8 1137 710.9 1136 716.3C1135.2 720.1 1135.4 723.9 1136.1 727.7C1137.8 737.2 1143 745.9 1148.1 754C1149.1 755.3 1151.7 753.8 1150.7 752.2Z" fill="#E8E8E8"/>
<path d="M1231 701.9C1233.7 692.6 1236.5 683.3 1242.2 675.4C1247.7 667.8 1254.1 660.6 1260.2 653.5C1263.4 649.9 1266.6 646.3 1270.1 643C1271.9 641.3 1273.7 639.5 1276 638.3C1280.5 635.9 1283.5 639 1284.7 643.1C1287.4 652.5 1285.2 662.7 1282.8 672C1273.6 707.2 1257.6 740.5 1236.2 770C1235.1 771.6 1237.7 773.1 1238.8 771.5C1258.5 744.4 1273.5 714.1 1283.1 682C1285.4 674.3 1287.7 666.4 1288.5 658.4C1289.2 651.9 1289.4 642.9 1285.5 637.3C1277.3 625.7 1260.3 648.8 1255.8 654.1C1250 660.9 1243.8 667.7 1238.7 675.1C1233.4 682.9 1230.7 692 1228.1 701C1227.5 702.9 1230.4 703.7 1231 701.9Z" fill="#E8E8E8"/>
<path d="M1225.2 624.3C1221.4 670.9 1211.4 716.7 1195.5 760.6C1194.8 762.4 1197.7 763.2 1198.4 761.4C1214.4 717.2 1224.4 671.1 1228.2 624.3C1228.3 622.4 1225.3 622.4 1225.2 624.3Z" fill="#E8E8E8"/>
<path d="M1198 664.6C1203.4 684.9 1206.2 705.6 1206.4 726.6C1206.4 728.5 1209.4 728.5 1209.4 726.6C1209.2 705.4 1206.4 684.3 1200.9 663.8C1200.4 661.9 1197.5 662.7 1198 664.6Z" fill="#E8E8E8"/>
<path d="M1211.6 641.9C1215.1 655.7 1216.8 669.8 1216.9 684C1216.9 685.9 1219.9 685.9 1219.9 684C1219.8 669.5 1218 655.1 1214.5 641.1C1214 639.2 1211.1 640 1211.6 641.9Z" fill="#E8E8E8"/>
<path d="M1203.1 749.8C1210.8 743.8 1217.7 736.9 1223.7 729.3C1224.9 727.8 1222.8 725.7 1221.6 727.2C1215.5 734.9 1208.7 741.7 1201 747.7C1199.5 748.9 1201.6 751 1203.1 749.8Z" fill="#E8E8E8"/>
<path d="M1151 609.9C1159.7 646.2 1166.5 682.9 1171.2 719.9C1171.4 721.8 1174.4 721.8 1174.2 719.9C1169.4 682.6 1162.6 645.6 1153.9 609.1C1153.5 607.2 1150.6 608 1151 609.9Z" fill="#E8E8E8"/>
<path d="M1139.1 644.3C1147.9 649.6 1155.4 656.4 1161.4 664.8C1162.5 666.4 1165.1 664.9 1164 663.3C1157.7 654.5 1149.9 647.3 1140.7 641.8C1138.9 640.7 1137.4 643.3 1139.1 644.3Z" fill="#E8E8E8"/>
<path d="M1177.4 665.2C1173.8 674.2 1170.9 683.4 1168.7 692.9C1168.3 694.8 1171.1 695.6 1171.6 693.7C1173.8 684.3 1176.7 675 1180.3 666C1181 664.2 1178.1 663.4 1177.4 665.2Z" fill="#E8E8E8"/>
<path d="M1138.9 710.6C1149.9 713.7 1160.6 717.3 1171.2 721.5C1173 722.2 1173.8 719.3 1172 718.6C1161.4 714.4 1150.6 710.8 1139.7 707.7C1137.8 707.2 1137 710.1 1138.9 710.6Z" fill="#E8E8E8"/>
<path d="M1279.8 639.2C1266.5 685.5 1229.7 721 1217.9 767.9C1217.4 769.8 1220.3 770.6 1220.8 768.7C1232.6 721.8 1269.4 686.3 1282.7 640C1283.3 638.1 1280.4 637.3 1279.8 639.2Z" fill="#E8E8E8"/>
<path d="M1253 658.7C1250.5 674.9 1247.9 691.1 1245.4 707.3C1245.1 709.2 1248 710 1248.3 708.1C1250.8 691.9 1253.4 675.7 1255.9 659.5C1256.2 657.6 1253.3 656.8 1253 658.7Z" fill="#E8E8E8"/>
<path d="M1256 694.3C1264.9 687.9 1274.2 682.1 1283.9 676.8C1285.6 675.9 1284.1 673.3 1282.4 674.2C1272.7 679.4 1263.4 685.2 1254.5 691.7C1252.9 692.9 1254.4 695.5 1256 694.3Z" fill="#E8E8E8"/>
<path d="M1227.3 752.3C1236.4 741.6 1249.4 736.2 1262.2 731.1C1264 730.4 1263.2 727.5 1261.4 728.2C1248.2 733.5 1234.7 739.1 1225.2 750.2C1223.9 751.7 1226 753.8 1227.3 752.3Z" fill="#E8E8E8"/>
<path d="M1082 761.8C1085.7 785.2 1082.6 808.7 1079.1 832C1075.7 854.9 1072.3 877.9 1068.9 900.8C1068.6 902.7 1071.5 903.5 1071.8 901.6C1075.4 877.4 1079.1 853.2 1082.6 829C1085.9 806.5 1088.5 783.7 1084.9 761.1C1084.5 759.1 1081.7 759.9 1082 761.8Z" fill="#E8E8E8"/>
<path d="M1062.5 804.5C1065.9 818.5 1070.5 832.1 1076.3 845.3C1077.1 847.1 1079.7 845.5 1078.9 843.8C1073.3 830.8 1068.8 817.5 1065.4 803.7C1064.9 801.9 1062 802.7 1062.5 804.5Z" fill="#E8E8E8"/>
<path d="M1092.6 776.1C1091.2 785.2 1087.9 793.5 1082.7 801C1081.6 802.6 1084.2 804.1 1085.3 802.5C1090.6 794.8 1094.1 786.1 1095.5 776.8C1095.7 775 1092.8 774.2 1092.6 776.1Z" fill="#E8E8E8"/>
<path d="M1133.9 777.6C1121.6 820.3 1105.9 861.9 1087.1 902.2C1086.3 903.9 1088.9 905.5 1089.7 903.7C1108.6 863.2 1124.4 821.3 1136.8 778.4C1137.3 776.6 1134.4 775.8 1133.9 777.6Z" fill="#E8E8E8"/>
<path d="M1126 775.8C1125.6 785.5 1125.3 795.1 1124.9 804.8C1124.8 806.7 1127.8 806.7 1127.9 804.8C1128.3 795.1 1128.6 785.5 1129 775.8C1129.1 773.9 1126.1 773.9 1126 775.8Z" fill="#E8E8E8"/>
<path d="M1103.8 788.8C1098.4 811.4 1103.8 835 1107 857.6C1107.3 859.5 1110.2 858.7 1109.9 856.8C1106.8 834.8 1101.5 811.7 1106.7 789.6C1107.2 787.7 1104.3 786.9 1103.8 788.8Z" fill="#E8E8E8"/>
<path d="M1099.4 880.9C1109.1 878.5 1118.1 874.4 1126.2 868.6C1127.8 867.5 1126.3 864.9 1124.7 866C1116.8 871.6 1108.1 875.6 1098.6 878C1096.7 878.4 1097.5 881.3 1099.4 880.9Z" fill="#E8E8E8"/>
<path d="M265.9 587.7C276 642.3 282.3 697.6 284.6 753C284.7 754.9 287.7 754.9 287.6 753C285.3 697.2 279 641.7 268.8 586.9C268.4 585 265.5 585.8 265.9 587.7Z" fill="#E8E8E8"/>
<path d="M255 651.1C265.6 664.4 274.1 679.1 280.3 694.9C281 696.7 283.9 695.9 283.2 694.1C276.8 677.8 268.1 662.7 257.2 649C256 647.5 253.8 649.6 255 651.1Z" fill="#E8E8E8"/>
<path d="M285 614.4C281.4 629.3 278.7 644.4 276.8 659.6C276.6 661.5 279.6 661.5 279.8 659.6C281.6 644.7 284.3 629.9 287.9 615.2C288.3 613.3 285.4 612.5 285 614.4Z" fill="#E8E8E8"/>
<path d="M316.4 560.7C318.2 626 315 691.3 306.8 756.1C306.6 758 309.6 758 309.8 756.1C318 691.3 321.2 626 319.4 560.7C319.3 558.8 316.3 558.8 316.4 560.7Z" fill="#E8E8E8"/>
<path d="M299.6 629.4C306.8 646.5 311.8 664.4 314.5 682.8C314.8 684.7 317.7 683.9 317.4 682C314.7 663.6 309.7 645.7 302.5 628.6C301.7 626.9 298.8 627.6 299.6 629.4Z" fill="#E8E8E8"/>
<path d="M311.1 742.5C315.4 734.1 321.1 726.8 328.1 720.5C329.5 719.2 327.4 717.1 326 718.4C318.8 724.8 312.9 732.4 308.5 741C307.6 742.7 310.2 744.2 311.1 742.5Z" fill="#E8E8E8"/>
<path d="M306.8 571.8C309.4 580.1 312.3 588.2 315.5 596.3C316.2 598.1 319.1 597.3 318.4 595.5C315.1 587.5 312.2 579.3 309.7 571C309.1 569.1 306.2 569.9 306.8 571.8Z" fill="#E8E8E8"/>
<path d="M92.0001 965.8C157.6 959.4 224 961.4 289 972C307.3 975 325.6 978.7 343.7 983C345.6 983.4 346.4 980.6 344.5 980.1C280.4 964.8 214.5 957.8 148.6 959.3C129.7 959.8 110.8 960.9 92.0001 962.8C90.1001 962.9 90.0001 965.9 92.0001 965.8Z" fill="#E8E8E8"/>
<path d="M680 994.5C680.1 990.2 690.8 989.4 693.4 989.7C697.8 990.1 702 992.4 704.4 996.1C712.3 1008.3 696.3 1013.2 687.1 1010.2C685.3 1009.6 684.5 1012.5 686.3 1013.1C692.7 1015.3 701.2 1015 706.4 1009.9C710.8 1005.6 709.9 998.7 706.6 994C702.9 988.8 696.8 986.2 690.5 986.6C686.1 986.9 677.1 988.9 677 994.5C677 996.4 680 996.4 680 994.5Z" fill="#E8E8E8"/>
<path d="M679.5 992.9C685.9 983.9 699.3 979.8 709.3 976.6C720.4 973.1 731.9 971 743.6 970.4C745.5 970.3 745.5 967.3 743.6 967.4C730.5 968.1 717.5 970.5 705.1 974.8C695.1 978.3 683.3 982.4 676.9 991.4C675.8 993 678.4 994.5 679.5 992.9Z" fill="#E8E8E8"/>
<path d="M745.1 970.8C752.8 971.7 759 977.7 760.5 985.2C760.9 987.1 763.8 986.3 763.4 984.4C761.6 975.4 754.1 968.9 745.1 967.8C743.1 967.6 743.2 970.6 745.1 970.8Z" fill="#E8E8E8"/>
<path d="M748.8 967.7C760 960.7 770.9 969.7 773.2 981C773.6 982.9 776.5 982.1 776.1 980.2C773.3 966.9 760.1 957.1 747.3 965.1C745.7 966.2 747.2 968.8 748.8 967.7Z" fill="#E8E8E8"/>
<path d="M761.2 987.3C767.4 989.3 774 985.8 776.2 979.8C776.9 978 774 977.2 773.3 979C771.7 983.5 766.5 985.9 762 984.4C760.1 983.8 759.3 986.7 761.2 987.3Z" fill="#E8E8E8"/>
<path d="M679.1 991.4C673.9 994.4 674.2 1001.5 676.2 1006.4C678.4 1012 683.8 1015.7 689.9 1014.2C691.8 1013.7 691 1010.9 689.1 1011.3C684.4 1012.4 680.6 1009.4 679 1005.2C677.7 1001.8 676.8 996.2 680.7 994C682.3 993 680.8 990.4 679.1 991.4Z" fill="#E8E8E8"/>
<path d="M680.5 1002.8C677.5 994.7 692.1 989.8 697.2 994.4C700.4 997.3 699.6 1001.9 696.2 1004.3C694.7 1005.4 692.8 1006.2 690.9 1005.8C684.2 1004.5 689.7 996.8 693 1001.2C694.2 1002.7 696.8 1001.2 695.6 999.7C691.7 994.6 683.1 997.2 684.7 1004.1C686.4 1011.7 697.2 1009 700.5 1004.3C705.1 997.7 700.1 989.7 692.5 989.6C685.3 989.5 674.4 994.7 677.7 1003.5C678.3 1005.4 681.2 1004.6 680.5 1002.8Z" fill="#E8E8E8"/>
<path d="M704.4 1010.6C725.4 1006.1 745.4 998.4 764 987.7C765.7 986.7 764.2 984.1 762.5 985.1C744.1 995.7 724.3 1003.2 703.6 1007.7C701.7 1008.1 702.5 1011 704.4 1010.6Z" fill="#E8E8E8"/>
<path d="M760.8 963C777.8 948.7 794.8 931.7 816.6 925.2C818.4 924.6 817.7 921.8 815.8 922.3C793.5 929 776.1 946.3 758.7 960.9C757.2 962.1 759.4 964.2 760.8 963Z" fill="#E8E8E8"/>
<path d="M816.4 926.3C827.6 930.1 835.7 940.1 836.9 951.9C837.1 953.8 840.1 953.8 839.9 951.9C838.6 938.7 829.8 927.6 817.2 923.4C815.4 922.8 814.6 925.7 816.4 926.3Z" fill="#E8E8E8"/>
<path d="M775.9 982.7C796.4 973.6 816.8 964.1 837 954.2C838.7 953.4 837.2 950.8 835.5 951.6C815.3 961.5 794.9 970.9 774.4 980.1C772.6 980.9 774.2 983.5 775.9 982.7Z" fill="#E8E8E8"/>
<path d="M747.9 969.1C748.6 968.6 749.3 968.2 749.9 967.7C750.6 967.2 750.9 966.4 750.4 965.6C750 964.9 749 964.6 748.3 965.1C747.6 965.6 746.9 966 746.3 966.5C745.6 967 745.3 967.8 745.8 968.6C746.2 969.2 747.2 969.6 747.9 969.1Z" fill="#E8E8E8"/>
<path d="M451.2 944.3C453.1 966.7 458.1 988.6 466.2 1009.5C466.9 1011.3 469.8 1010.5 469.1 1008.7C461.1 988 456 966.4 454.2 944.3C454.1 942.4 451.1 942.4 451.2 944.3Z" fill="#E8E8E8"/>
<path d="M446 989.2C452.2 992.4 457.7 996.6 462.6 1001.7C463.9 1003.1 466 1001 464.7 999.6C459.7 994.3 454 990 447.5 986.7C445.8 985.7 444.3 988.3 446 989.2Z" fill="#E8E8E8"/>
<path d="M467.9 974.2C463.6 980.4 461.7 987.6 462.4 995.1C462.6 997 465.6 997 465.4 995.1C464.8 988.1 466.5 981.6 470.5 975.7C471.5 974.2 468.9 972.7 467.9 974.2Z" fill="#E8E8E8"/>
<path d="M476.8 965.9C479.7 978.3 480.6 990.9 479.3 1003.6C479.1 1005.5 482.1 1005.5 482.3 1003.6C483.5 990.7 482.6 977.8 479.6 965.1C479.3 963.3 476.4 964.1 476.8 965.9Z" fill="#E8E8E8"/>
<path d="M472.4 970.3C474.8 974.9 477.2 979.6 479.6 984.2C480.5 985.9 483.1 984.4 482.2 982.7C479.8 978.1 477.4 973.4 475 968.8C474.1 967.1 471.5 968.6 472.4 970.3Z" fill="#E8E8E8"/>
<path d="M531.6 343.7C540.934 343.7 548.5 336.134 548.5 326.8C548.5 317.466 540.934 309.9 531.6 309.9C522.266 309.9 514.7 317.466 514.7 326.8C514.7 336.134 522.266 343.7 531.6 343.7Z" fill="#FF9500"/>
<path d="M1076.2 703.8C1082.94 703.8 1088.4 698.338 1088.4 691.6C1088.4 684.862 1082.94 679.4 1076.2 679.4C1069.46 679.4 1064 684.862 1064 691.6C1064 698.338 1069.46 703.8 1076.2 703.8Z" fill="#161616"/>
<path d="M1094 680.2C1096.76 680.2 1099 677.961 1099 675.2C1099 672.439 1096.76 670.2 1094 670.2C1091.24 670.2 1089 672.439 1089 675.2C1089 677.961 1091.24 680.2 1094 680.2Z" fill="#161616"/>
<path d="M285.3 376.6C290.05 376.6 293.9 372.75 293.9 368C293.9 363.25 290.05 359.4 285.3 359.4C280.55 359.4 276.7 363.25 276.7 368C276.7 372.75 280.55 376.6 285.3 376.6Z" fill="#161616"/>
<path d="M317.7 395.2C322.892 395.2 327.1 390.991 327.1 385.8C327.1 380.608 322.892 376.4 317.7 376.4C312.509 376.4 308.3 380.608 308.3 385.8C308.3 390.991 312.509 395.2 317.7 395.2Z" fill="#FF9500"/>
<path d="M614 604.3C616.872 604.3 619.2 601.972 619.2 599.1C619.2 596.228 616.872 593.9 614 593.9C611.128 593.9 608.8 596.228 608.8 599.1C608.8 601.972 611.128 604.3 614 604.3Z" fill="#FF9500"/>
<path d="M1019.5 113.8C1024.47 113.8 1028.5 109.771 1028.5 104.8C1028.5 99.8295 1024.47 95.8 1019.5 95.8C1014.53 95.8 1010.5 99.8295 1010.5 104.8C1010.5 109.771 1014.53 113.8 1019.5 113.8Z" fill="#FF9500"/>
<path d="M1059.5 144.8C1063.26 144.8 1066.3 141.755 1066.3 138C1066.3 134.244 1063.26 131.2 1059.5 131.2C1055.74 131.2 1052.7 134.244 1052.7 138C1052.7 141.755 1055.74 144.8 1059.5 144.8Z" fill="#FF9500"/>
<path d="M1052.5 653.6C1056.37 653.6 1059.5 650.466 1059.5 646.6C1059.5 642.734 1056.37 639.6 1052.5 639.6C1048.63 639.6 1045.5 642.734 1045.5 646.6C1045.5 650.466 1048.63 653.6 1052.5 653.6Z" fill="#FF9500"/>
<path d="M584 113.8C586.485 113.8 588.5 111.785 588.5 109.3C588.5 106.815 586.485 104.8 584 104.8C581.515 104.8 579.5 106.815 579.5 109.3C579.5 111.785 581.515 113.8 584 113.8Z" fill="#FF9500"/>
<path d="M473.1 489.4C471.9 487.8 473.1 485 474.6 484.1C476.5 482.9 479.1 483.5 481.1 484C483.2 484.5 485.1 485.5 487.1 486C489.7 486.7 492.6 487 495.2 486C498 484.9 499.4 482.7 500 479.9C500.6 477.5 500.4 474.5 502.4 472.6C504.3 470.7 507.3 470.5 509.8 470.5C516.2 470.6 522.5 474.2 526 466.8C527.8 462.8 528.1 458.4 532.5 456.1C537.8 453.3 544.2 455.7 549.4 457.5C551.2 458.1 552 455.3 550.2 454.6C542.3 451.8 530.9 449.2 526 458.5C525.2 460.1 524.7 461.9 524.1 463.5C523.5 465 522.8 467.6 521.2 468.3C519.4 469.1 516.1 468.2 514.2 467.9C510.5 467.4 506.6 467 503 468.6C499.4 470.3 498.2 473.2 497.5 477C495.7 487.1 487.7 482.4 481.1 480.8C477.5 479.9 473.6 480.2 471.1 483.2C469.2 485.5 468.7 488.4 470.5 490.8C471.6 492.5 474.2 491 473.1 489.4Z" fill="#FF9500"/>
<path d="M496.3 505.6C497.3 499.8 501.8 496.6 507.6 496.9C510.8 497 514.3 498.1 517.5 497.1C519.7 496.4 521.4 494.9 522.3 492.8C524.4 488.2 524.4 484.3 528.9 480.9C532.7 478 537.2 477.1 541.8 478.2C544.7 478.9 547.8 480.2 550.8 479.1C554 477.9 555.5 474.2 558.4 472.3C562.1 469.9 566.6 469.1 570.8 468.4C572.7 468.1 571.9 465.2 570 465.5C566.1 466.2 562.2 467 558.7 468.7C557.1 469.5 555.7 470.4 554.4 471.6C551.8 474 550.7 476.4 546.4 476.2C542.7 476.1 539.8 474.3 535.9 474.8C532.4 475.3 529.1 476.8 526.4 479C523.9 481.1 521.9 483.8 520.9 487C519.8 490.3 519.1 494.3 514.6 494.4C512.5 494.5 510.4 494 508.3 493.9C501 493.3 494.7 497.3 493.4 504.7C493.1 506.7 495.9 507.5 496.3 505.6Z" fill="#FF9500"/>
<path d="M1023.4 477C1029.9 478.2 1033.3 486.7 1040.7 483.9C1045 482.3 1047.6 478.3 1052.6 478.2C1058.1 478.1 1060.6 482.7 1065.3 484.2C1073.1 486.7 1079.3 478.1 1086.8 479.5C1093.6 480.8 1097.8 489 1105.4 486.8C1107.3 486.3 1106.5 483.4 1104.6 483.9C1097.9 485.8 1092.7 476.5 1085.8 476.3C1082.7 476.2 1079.7 477.5 1077 478.7C1071.3 481.3 1067.7 482.9 1062.2 478.8C1056.7 474.6 1050.4 474 1044.5 477.9C1042.7 479.1 1041.3 480.4 1039.2 481C1036.1 481.9 1034.1 480.3 1031.8 478.4C1029.4 476.5 1027.2 474.6 1024.1 474C1022.3 473.7 1021.5 476.6 1023.4 477Z" fill="#FF9500"/>
<path d="M1044 467.1C1049.1 471.2 1055 465.5 1060.4 468.9C1065.5 472.1 1068.4 473.1 1074.2 471.1C1077.4 470 1080.6 468.4 1084.1 468.9C1086.9 469.4 1089.1 471.5 1092 471.8C1094.7 472.1 1097 470.6 1099.4 469.5C1104.2 467.4 1108.9 467.6 1113.4 470.5C1115 471.6 1116.5 469 1114.9 467.9C1110.2 464.9 1104.8 464.1 1099.5 466.1C1097.9 466.7 1096 468.2 1094.3 468.5C1091.8 468.9 1089.8 467.8 1087.6 466.8C1085.6 465.9 1083.7 465.6 1081.5 465.8C1078.7 466.1 1076.1 467.3 1073.4 468.1C1069.1 469.5 1066.3 469.3 1062.5 466.6C1060.4 465.1 1058.5 464.3 1055.9 464.4C1052.9 464.5 1048.8 467 1046.1 464.9C1044.6 463.8 1042.5 465.9 1044 467.1Z" fill="#FF9500"/>
<path d="M714.1 556.8C714.5 551.5 720.6 551.7 723.8 553.5C725.4 554.4 726.7 555.7 728 557C730.3 559.2 732.5 561.7 735.4 563.1C740.8 565.5 744.1 562.6 748.6 560C762.8 552 773.3 578 787.6 568.9C788.4 568.4 787.7 567.1 786.8 567.6C777.3 573.7 768.4 561.9 760.5 558.4C757.9 557.2 755.1 556.5 752.3 557C748.2 557.7 745.5 561.3 741.6 562.3C732.4 564.8 728.9 551.8 720.6 550.9C716.6 550.4 712.8 552.8 712.5 556.9C712.5 557.8 714 557.8 714.1 556.8Z" fill="#E8E8E8"/>
<path d="M967.9 614.1C969.7 607 975.8 603.3 982.9 603.9C986.5 604.2 989.4 604.1 991.8 601C994.6 597.3 994.7 592.3 998.1 588.8C1002.1 584.8 1008.2 583.6 1013.6 582.6C1014.5 582.4 1014.1 581 1013.2 581.2C1008.2 582.1 1002.8 583.2 998.7 586.3C994.8 589.3 993.8 593.4 991.9 597.7C989.4 603.2 985.6 602.2 980.5 602.3C978.5 602.3 976.6 602.8 974.8 603.6C970.5 605.6 967.6 609.3 966.4 613.8C966.2 614.7 967.6 615.1 967.9 614.1Z" fill="#E8E8E8"/>
<path d="M1002.1 608.5C1002.1 603.4 1005.2 598.5 1010.1 596.9C1013.6 595.7 1017.3 597.1 1020.8 595.9C1026.4 593.9 1029.2 586.9 1035.5 586.6C1036.5 586.5 1036.5 585 1035.5 585.1C1032.4 585.3 1030.1 586.7 1027.8 588.7C1026 590.3 1024.4 592.2 1022.3 593.4C1019 595.5 1016 594.6 1012.5 594.9C1005.5 595.5 1000.5 601.7 1000.5 608.5C1000.6 609.5 1002.1 609.5 1002.1 608.5Z" fill="#E8E8E8"/>
<path d="M634 174.9C635.6 179.7 639.1 186 645.1 183C648.7 181.2 650.4 177.3 654.7 176.5C659.5 175.6 664.5 178 666.8 182.3C667.4 183.5 669.1 183.1 669.5 181.9C672.5 173.2 683.5 172.5 687.9 180.4C688.8 182.1 691.4 180.6 690.5 178.9C684.8 168.5 670.5 170 666.7 181.1C667.6 181 668.5 180.9 669.4 180.7C666.8 175.8 661.6 173 656.1 173.3C653.6 173.4 651.2 174.1 649.2 175.6C647.9 176.5 646.9 178.2 645.5 179C644.1 179.8 639.7 179.2 638.5 178C637.6 177.1 637.2 175.2 636.9 174.1C636.3 172.3 633.4 173.1 634 174.9Z" fill="#161616"/>
<path d="M677.8 161.7C679.7 163.2 681.5 163.2 683.8 162.5C686.9 161.6 688.9 159.7 691.6 163.2C692.5 164.4 692.8 166 694 167.1C696.2 169.3 699.4 169.6 702.4 169.3C705.9 169 715.9 166.6 715.4 173.1C715.3 175 718.3 175 718.4 173.1C719.1 163.9 707 166.2 701.7 166.4C697.8 166.5 696 164.9 694.2 161.7C693.4 160.3 692.6 159.1 691.1 158.4C687.7 156.9 682.5 161.5 679.9 159.5C678.4 158.4 676.2 160.5 677.8 161.7Z" fill="#161616"/>
<path d="M364.4 706.1C363.3 702.6 363.5 699 365.4 695.9C367.4 692.7 370.5 691.7 373.4 689.8C377.1 687.3 378.5 683.9 379.1 679.6C379.4 677.3 379.4 675 380 672.7C381.1 668.7 383.6 666.9 387.3 665.3C390.7 663.9 393.8 662.7 396 659.6C397.1 658 394.5 656.5 393.4 658.1C390.2 662.5 383.9 662.4 380.1 666.1C376.3 669.9 376.9 675.3 376 680.1C374.7 687.4 368.1 687.8 364 692.7C360.7 696.7 359.9 702.1 361.5 706.9C362.1 708.7 365 707.9 364.4 706.1Z" fill="#161616"/>
<path d="M365.8 672.9C373.2 668.5 367 657.7 374.5 653.5C378.5 651.2 382.1 650.2 385.3 646.6C388.4 643.1 390.4 638.9 392.4 634.7C393.2 633 390.6 631.4 389.8 633.2C387.8 637.4 385.8 641.6 382.6 645C379.2 648.7 374.6 649.1 370.9 652.1C365.4 656.6 369.8 666.9 364.2 670.3C362.6 671.3 364.1 673.8 365.8 672.9Z" fill="#161616"/>
<path d="M772.3 547.2C766.2 547.9 761.3 542.5 762.3 536.4C763.3 530.6 768.8 526.1 774.6 525.7C779.3 525.4 784.6 527.3 786.8 531.8C789.2 536.7 787 543.4 781.9 545.3C780.1 546 780.9 548.9 782.7 548.2C788.8 545.8 792 539.2 790.4 532.8C788.5 525.4 780.4 521.8 773.2 522.8C766.2 523.8 759.8 529.6 759.1 536.8C758.4 544.2 764.7 550.9 772.2 550.1C774.2 550 774.2 547 772.3 547.2Z" fill="#161616"/>
<path d="M317.3 877.4C323.6 870.6 333.2 861.1 346.1 851.4C357.2 843 366.2 837.9 377.6 831.5C393.9 822.4 414.2 811.3 437.9 798.6C474.3 795.2 504.9 792.8 527.7 791.1C570.1 787.9 638.2 782.8 716.2 780.8C732.3 780.4 747.7 780.1 747.7 780.1C791.3 779.3 802.3 780 847.8 779.4C881.2 779 881 778.6 899.2 778.7C926.6 778.9 949.1 779.9 964.3 780.8C973.4 781.5 991.9 782.9 1010.2 784.9C1013.8 785.3 1019.1 785.9 1026 787.6C1034.3 789.7 1040.9 792.4 1045.2 794.5C1039.8 802.7 1034.3 810.9 1028.8 819.2C1010.7 846 992.3 871.5 974 896C971.1 897.8 965.8 900.6 958.9 902.9C944.2 907.7 931.7 906.6 927.4 906.3C909.4 905 865.7 905.8 802 907.7C773.7 907 745.3 906.3 717 905.6C708.8 918.2 700.6 930.7 692.3 943.3C637.5 940.3 582.7 937.4 527.8 934.4C538.8 922.3 549.7 910.2 560.7 898.1C479.5 891.1 398.4 884.2 317.3 877.4Z" fill="white"/>
<path d="M374.8 859.8C424.2 863.1 473.5 866.9 522.8 871.3C524.7 871.5 524.7 868.5 522.8 868.3C473.5 863.9 424.2 860.1 374.8 856.8C372.9 856.7 372.9 859.7 374.8 859.8Z" fill="#161616"/>
<path d="M755.2 884.7C806.8 884.3 858.5 885.4 910.1 888C912 888.1 912 885.1 910.1 885C858.5 882.4 806.9 881.3 755.2 881.7C753.3 881.7 753.3 884.7 755.2 884.7Z" fill="#161616"/>
<path d="M464.2 829.5C489.2 833.9 514.6 833.3 539.9 833.1C566.7 832.9 593.5 833.5 620.3 834.4C673.2 836.3 726.1 839.8 779 842C809.4 843.3 839.9 844.1 870.3 844.1C872.2 844.1 872.2 841.1 870.3 841.1C764.3 841.4 658.7 830.2 552.8 830.1C523.5 830.1 494 831.8 465 826.7C463.2 826.3 462.3 829.2 464.2 829.5Z" fill="#161616"/>
<path d="M705.2 808.1C780.4 808.2 855.6 810.4 930.7 814.7C932.6 814.8 932.6 811.8 930.7 811.7C855.6 807.4 780.4 805.2 705.2 805.1C703.3 805.1 703.3 808.1 705.2 808.1Z" fill="#161616"/>
<path d="M1044.2 793.6C1022 827.5 998.8 860.6 974.5 892.9C973.3 894.4 975.9 895.9 977.1 894.4C1001.4 862.1 1024.7 828.9 1046.8 795.1C1047.9 793.5 1045.3 792 1044.2 793.6Z" fill="#161616"/>
<path d="M343 856.5C373.8 835.2 405 813.8 439.8 799.5C441.6 798.8 440.8 795.9 439 796.6C403.9 811 372.5 832.5 341.4 853.9C339.9 855 341.4 857.6 343 856.5Z" fill="#161616"/>
<path d="M436.9 799.9C516.3 792.6 595.8 787.3 675.4 784.2C755 781.1 834.7 779.9 914.4 781.1C936.7 781.4 959 782 981.2 784C1002.6 785.9 1025 788.1 1045 796.4C1046.8 797.1 1047.6 794.2 1045.8 793.5C1028.8 786.4 1010.1 784.1 991.9 782.1C972 779.9 952 778.9 932 778.4C892.1 777.4 852.1 777.5 812.2 777.9C732.2 778.6 652.2 781.5 572.3 786.5C527.1 789.3 481.9 792.8 436.8 797C434.9 797.1 434.9 800.1 436.9 799.9Z" fill="#161616"/>
<path d="M719 907.2C793.5 909.7 868 909.8 942.4 907C955.2 906.5 969.5 905 977.4 893.6C978.5 892 975.9 890.5 974.8 892.1C966.9 903.4 951.6 903.7 939.2 904.1C922.1 904.6 905 905.3 887.8 905.6C851.8 906.3 815.8 906.3 779.8 905.7C759.5 905.4 739.2 904.8 718.9 904.2C717.1 904.1 717.1 907.1 719 907.2Z" fill="#161616"/>
<path d="M341.5 853.8C332.7 861.5 323.9 869.2 315.1 876.9C314 877.8 315 879.4 316.2 879.5C397.1 886.5 478 893.5 558.9 898.9C560.8 899 560.8 896 558.9 895.9C477.9 890.4 397 883.5 316.2 876.5C316.6 877.4 316.9 878.2 317.3 879.1C326.1 871.4 334.9 863.7 343.7 856C345 854.6 342.9 852.5 341.5 853.8Z" fill="#161616"/>
<path d="M592.9 866.8C569.6 887.3 547.7 909.2 527.3 932.5C526 933.9 528.1 936.1 529.4 934.6C549.8 911.3 571.8 889.3 595 868.9C596.5 867.6 594.4 865.5 592.9 866.8Z" fill="#161616"/>
<path d="M594 868.9C642.7 864.2 691.7 865.4 740.1 872.6C742 872.9 742.8 870 740.9 869.7C692.3 862.4 643 861.1 594 865.9C592.1 866.1 592.1 869.1 594 868.9Z" fill="#161616"/>
<path d="M738.6 871.6C722.2 895.1 705.7 918.6 689.3 942.1C688.2 943.7 690.8 945.2 691.9 943.6C708.3 920.1 724.8 896.6 741.2 873.1C742.3 871.5 739.7 870 738.6 871.6Z" fill="#161616"/>
<path d="M527.7 936C581.7 938.7 635.8 941.3 689.8 944C691.7 944.1 691.7 941.1 689.8 941C635.8 938.3 581.7 935.7 527.7 933C525.8 932.9 525.8 935.9 527.7 936Z" fill="#161616"/>
<path d="M569.6 917.2C578 918.7 586.3 920.1 594.7 921.6C596.6 921.9 597.4 919 595.5 918.7C587.1 917.2 578.8 915.8 570.4 914.3C568.5 914 567.7 916.9 569.6 917.2Z" fill="#161616"/>
<path d="M589.1 908C584 913.3 579.2 918.9 574.7 924.8C573.5 926.3 576.1 927.8 577.3 926.3C581.7 920.7 586.3 915.3 591.3 910.1C592.5 908.8 590.4 906.6 589.1 908Z" fill="#161616"/>
<path d="M603.2 909.5C603.3 904.3 607.2 900.9 612.3 901C614.8 901 617.1 901.8 619.6 901.4C624.2 900.7 628.2 897.8 630.3 893.8C631.8 891.1 632.2 888 634.5 885.8C637 883.4 640.5 882.3 643.9 882C647 881.7 650.4 881.9 653.4 883C655.9 884 658.5 885.9 658.6 888.9C658.7 891.2 657.3 893.6 654.7 893.7C654.8 894.7 655 895.7 655.1 896.6C657.8 896.2 660.8 899.1 661.6 901.4C662 902.5 662.1 903.9 662 905C661.9 907.6 660.6 910.3 658.9 912.3C657.2 914.3 655 915.9 652.5 916.6C650.3 917.2 649.9 917.3 648.3 915.5C646.5 913.4 647.3 913 649.2 911.4C657.8 904.2 664.9 913.6 673.7 913.9C679.7 914.1 685.4 910.4 686.6 904.3C687.2 901.3 686.3 898.6 684.8 895.9C683.1 892.9 682.1 892.3 682.8 888.6C682.3 886.4 683 885.3 684.9 885.3C686 884.8 687 884.8 688 885.5C690.4 886.2 691.8 887.8 693.3 889.8C694.4 891.3 697 889.9 695.9 888.3C692.8 884 687.4 879.9 682 883.1C676.9 886.1 678.7 891.4 681.2 895.5C683.8 899.9 685.6 904.5 681 908.5C675.8 913 669.9 910 664.8 907.5C659.6 905 653.8 904.7 648.8 908C645.8 909.9 641.4 914.9 644.7 918.5C648.3 922.3 655.8 919.1 659 916.5C663.1 913.2 665.8 907.7 665 902.3C664.1 896.9 659.9 892.7 654.4 893.6C652.7 893.9 653.1 896.6 654.8 896.5C660.9 896.4 663.5 889 660.3 884.3C655.9 877.8 644.9 877.7 638.3 880.1C635 881.3 632.1 883.4 630.3 886.5C629 888.7 628.6 891.4 627.2 893.5C625 896.7 621.1 898.6 617.2 898.6C612.6 898.5 609 897.2 605 900.2C601.9 902.5 600.4 905.9 600.4 909.6C600.2 911.5 603.2 911.5 603.2 909.5Z" fill="#161616"/>
<path d="M763 346.6C762.8 370.5 762.5 394.3 762.3 418.2C818.5 416.6 874.7 414.9 930.8 413.3C942.3 422.2 953.7 431.1 965.2 440C962.2 422.4 959.1 404.9 956.1 387.3C955.2 372.8 954.2 358.3 953.3 343.8C889.9 344.7 826.4 345.7 763 346.6Z" fill="#FF9500"/>
<path d="M756.9 169.2C755 203.8 753.1 238.3 751.3 272.9C741.4 285.2 731.5 297.6 721.6 309.9C733.4 306.7 745.2 303.5 757 300.3C827.2 297.9 897.4 295.5 967.6 293.1C965.7 251.6 963.8 210 962 168.5C893.5 168.7 825.2 168.9 756.9 169.2Z" fill="#FF9500"/>
<path d="M874.8 215.2C876.2 240.1 894.1 260.6 918.6 265.2C920.5 265.5 921.3 262.7 919.4 262.3C896.2 258 879.1 238.8 877.8 215.2C877.6 213.2 874.6 213.2 874.8 215.2Z" fill="white"/>
<path d="M919.3 265.1C928.9 265.8 937.5 251.7 941 244.3C945.6 234.3 947 223.3 944.9 212.6C944.5 210.7 941.6 211.5 942 213.4C943.8 222.7 942.8 232.2 939.2 241C937.4 245.3 935.1 249.4 932.1 253C929.2 256.6 924.4 262.5 919.3 262.1C917.4 261.9 917.4 264.9 919.3 265.1Z" fill="white"/>
<path d="M927.7 262C931.7 266.9 937.1 270.3 943.2 272C945.1 272.5 945.9 269.6 944 269.1C938.3 267.5 933.5 264.4 929.8 259.9C928.6 258.4 926.5 260.6 927.7 262Z" fill="white"/>
<path d="M940.3 242.7C941.5 244.6 942.8 246.4 944.3 248.1C945.7 249.6 948.2 250.9 949.4 252.5C952.9 257.2 946.2 266.3 943.3 269.9C942.1 271.4 944.7 272.9 945.9 271.4C949.2 267.1 953.8 259.9 953.6 254.1C953.5 252.5 952.9 251.6 951.8 250.5C948.6 247.1 945.4 245.2 942.8 241.1C941.8 239.5 939.2 241 940.3 242.7Z" fill="white"/>
<path d="M938.4 245.7C937.9 250.5 936.7 255.1 934.6 259.5C934.3 260.2 933.6 261.1 933.4 261.8C932.9 263.6 934.2 260.7 934.5 260.3C935.7 258.2 936.7 256 937.7 253.9C936.8 253.5 935.9 253.1 935 252.7C934.1 255.6 932.6 257.8 930.2 259.8C931 260.4 931.8 261 932.6 261.6C934.7 258.1 936.7 254.6 938.8 251C939.8 249.3 937.3 248 936.2 249.5C934 252.5 931.8 255.5 929.6 258.4C928.6 259.8 930.8 261.5 932 260.2C934.4 257.4 936.2 254.4 937.4 251C938.1 249.2 935.2 248.4 934.5 250.2C933.4 253.2 931.9 255.7 929.8 258.1C930.6 258.7 931.4 259.3 932.2 259.9C934.4 256.9 936.6 253.9 938.8 251C937.9 250.5 937.1 250 936.2 249.5C934.1 253 932.1 256.5 930 260.1C929.1 261.7 931.1 262.9 932.4 261.9C935.2 259.7 937 256.9 938 253.5C938.5 251.9 936 250.8 935.3 252.3C934.2 254.4 933.1 256.6 932.1 258.7C931.5 259.9 930.5 261.4 930.7 262.8C930.8 264.5 932.5 266 934.3 265.4C936.7 264.6 937.9 260.2 938.7 258.1C940.3 254.1 941.2 249.9 941.7 245.6C941.6 243.8 938.6 243.8 938.4 245.7Z" fill="white"/>
<path d="M910.6 260.6C902.3 259.3 895.3 264.7 889.7 270.3C883.5 276.5 878.9 284 877.3 292.6C876.9 294.5 879.8 295.3 880.2 293.4C881.5 286.3 884.9 280.1 889.7 274.7C894.5 269.2 901.9 262.2 909.8 263.5C911.7 263.8 912.5 260.9 910.6 260.6Z" fill="white"/>
<path d="M900.6 218.7C903.7 226.8 907.2 234.8 910.9 242.6C911.5 243.8 913.3 243.4 913.6 242.2C914.5 238.6 914.9 235.1 914.7 231.4C914.6 229.5 911.6 229.5 911.7 231.4C911.9 234.8 911.6 238.1 910.7 241.4C911.6 241.3 912.5 241.2 913.4 241C909.8 233.4 906.4 225.7 903.4 217.8C902.8 216.1 899.9 216.9 900.6 218.7Z" fill="white"/>
<path d="M886.7 229.6C886 228.3 887.3 226.9 888.5 226.5C890.3 225.9 892.2 226.6 894 227.1C895.8 227.7 896.6 224.8 894.8 224.2C891.9 223.3 888.4 222.6 885.8 224.6C883.8 226.2 882.9 228.8 884.2 231.1C885 232.8 887.6 231.3 886.7 229.6Z" fill="white"/>
<path d="M918.1 222.8C919.1 218.4 924 216.5 927.5 219.7C928.9 221 931.1 218.9 929.6 217.6C924.6 213 916.7 215.3 915.2 222C914.8 223.9 917.7 224.7 918.1 222.8Z" fill="white"/>
<path d="M924.5 226.1C924.4 226.2 924.2 226.4 924.1 226.5C923.5 227.1 923.5 228 924.1 228.6C924.7 229.2 925.6 229.2 926.2 228.6C926.3 228.5 926.5 228.3 926.6 228.2C927.2 227.6 927.2 226.7 926.6 226.1C926 225.5 925.1 225.5 924.5 226.1Z" fill="white"/>
<path d="M931.2 223.3C931.3 223.6 931.5 223.8 931.6 224.1C932 224.8 933 225 933.7 224.6C934.4 224.2 934.6 223.3 934.2 222.5C934.1 222.2 933.9 222 933.8 221.7C933.4 221 932.4 220.8 931.7 221.2C931 221.6 930.8 222.5 931.2 223.3Z" fill="white"/>
<path d="M930.3 230.1C930.4 230.2 930.6 230.4 930.7 230.5C931.3 231.1 932.2 231.1 932.8 230.5C933.4 229.9 933.4 229 932.8 228.4C932.7 228.3 932.5 228.1 932.4 228C931.8 227.4 930.9 227.4 930.3 228C929.7 228.6 929.7 229.5 930.3 230.1Z" fill="white"/>
<path d="M889 236.8V237.2C889 238 889.7 238.7 890.5 238.7C891.3 238.7 892 238 892 237.2C892 237.1 892 236.9 892 236.8C892 236 891.3 235.3 890.5 235.3C889.6 235.3 889 235.9 889 236.8Z" fill="white"/>
<path d="M895.8 234C895.3 234 894.9 234 894.4 234C895 234.5 895.9 234.6 896.5 234C897.1 233.4 897.1 232.4 896.5 231.9C895.6 231.1 894.5 231.1 893.6 231.9C893 232.4 893.1 233.5 893.6 234C894.3 234.6 895.2 234.5 895.8 234Z" fill="white"/>
<path d="M897.4 239.1C897.4 239 897.4 238.8 897.4 238.7C897.4 237.9 896.7 237.2 895.9 237.2C895.1 237.2 894.4 237.9 894.4 238.7V239.1C894.4 239.9 895.1 240.6 895.9 240.6C896.7 240.5 897.4 239.9 897.4 239.1Z" fill="white"/>
<path d="M890.1 212.2C887.6 210.6 884.4 211.4 882.6 213.7C882.1 214.3 882.5 215.4 883.1 215.8C883.9 216.3 884.7 215.9 885.2 215.3C886 214.3 887.5 214.2 888.5 214.9C890.3 215.8 891.8 213.2 890.1 212.2Z" fill="white"/>
<path d="M914 208.8C915.2 208.3 916.5 208 917.9 207.9C919.8 207.8 919.8 204.8 917.9 204.9C916 205 914.2 205.4 912.5 206.2C911.8 206.5 911.6 207.6 912 208.3C912.4 209 913.2 209.1 914 208.8Z" fill="white"/>
<path d="M914.7 250.8C919.1 251.2 923.2 248.3 924.6 244.1C925.2 242.3 922.3 241.5 921.7 243.3C920.7 246.3 917.8 248.1 914.7 247.8C912.8 247.6 912.8 250.6 914.7 250.8Z" fill="white"/>
<path d="M953.3 254.4C956.6 254.2 959.7 254.9 962.6 256.5C964.3 257.4 965.8 254.8 964.1 253.9C960.7 252.1 957.1 251.2 953.3 251.4C951.4 251.5 951.4 254.5 953.3 254.4Z" fill="white"/>
<path d="M879.3 182.4C870.9 186.2 864.4 193.6 862.1 202.6C860.7 208.1 861.7 213.5 861.5 219.1C861.2 225.4 858.3 231 856.4 236.9C850.9 254 860.3 272.8 877.7 278C879.6 278.5 880.3 275.7 878.5 275.1C870.2 272.6 863.5 266.5 860 258.6C856.2 249.9 857.7 241.7 860.9 233.1C862.3 229.4 863.7 225.7 864.2 221.7C864.8 216.9 863.8 212.1 864.3 207.3C865.2 197.4 871.9 189 880.8 185C882.5 184.2 881 181.7 879.3 182.4Z" fill="white"/>
<path d="M877 215C887.7 210 895.7 201.3 899.9 190.3C900.6 188.5 897.7 187.7 897 189.5C893.1 199.7 885.4 207.8 875.5 212.4C873.7 213.2 875.3 215.8 877 215Z" fill="white"/>
<path d="M901.2 189.7C904.5 195.5 911.4 198.1 917.5 200.1C925.2 202.7 933.3 203.8 941.4 203.7C943.3 203.7 943.3 200.7 941.4 200.7C934.7 200.8 928.1 200 921.7 198.2C915.5 196.5 907.2 194.1 903.8 188.1C902.9 186.5 900.3 188 901.2 189.7Z" fill="white"/>
<path d="M942.1 205.4C944.4 201.3 950.3 201.8 951.7 206.5C953.1 211.1 949.3 214.9 944.9 215.4C943 215.6 943 218.6 944.9 218.4C951.6 217.6 957.2 211.3 954.1 204.5C951.2 198.3 942.8 198.2 939.5 204C938.6 205.5 941.1 207 942.1 205.4Z" fill="white"/>
<path d="M944 216.5C941.8 229.3 943.1 246.6 954.1 255.3C955.6 256.5 957.7 254.4 956.2 253.2C946.2 245.3 944.8 229.2 946.9 217.4C947.3 215.4 944.4 214.6 944 216.5Z" fill="white"/>
<path d="M878.8 185.8C885.4 182.4 892.4 178.7 900 178.8C906.5 178.9 911.9 181.9 918.5 180.7C925.4 179.5 931.7 176.3 938.9 175.9C946.3 175.5 954.3 176.7 959.5 182.4C960.8 183.8 962.9 181.7 961.6 180.3C951.5 169.3 935.3 173 922.8 176.6C917.8 178.1 913.4 178.5 908.3 177.2C904.7 176.3 901.4 175.6 897.6 175.9C890.4 176.6 883.7 179.9 877.4 183.2C875.6 184.1 877.1 186.7 878.8 185.8Z" fill="white"/>
<path d="M877.7 275.4C877.4 275.5 877 275.6 876.7 275.6C875.1 276 875.4 278 876.7 278.5C879.1 279.5 881.6 279.8 884.2 279.5C886.1 279.3 886.1 276.3 884.2 276.5C881.9 276.8 879.7 276.5 877.5 275.6V278.5C877.8 278.4 878.2 278.3 878.5 278.3C880.3 277.9 879.5 275 877.7 275.4Z" fill="white"/>
<path d="M774.9 205.7C776.4 208 780 207.5 780.5 204.7C780.7 203.8 779.3 203.4 779.1 204.3C778.8 205.7 777.1 206.2 776.2 205C775.7 204.2 774.4 204.9 774.9 205.7Z" fill="white"/>
<path d="M786.4 204.6C787 205.6 787.7 206.7 789 206.9C790.1 207.1 791.1 206.6 791.5 205.5C791.8 204.6 790.4 204.2 790.1 205.1C789.9 205.5 789.3 205.4 789 205.2C788.5 204.9 788.2 204.3 787.9 203.7C787.2 203 785.9 203.7 786.4 204.6Z" fill="white"/>
<path d="M783.2 207.3C783.3 207.5 783.4 207.7 783.5 207.9V207.8C783.4 208 783.4 208.2 783.3 208.3C783.3 208.3 783.3 208.2 783.4 208.2C783.2 208.3 783 208.3 782.9 208.4H783C782.8 208.3 782.6 208.2 782.4 208C782.2 207.7 782.1 208.3 782.1 208.5C782.1 208.9 782.2 209.4 782.2 209.8C782.2 210.2 782.2 210.6 782 210.9C781.9 211.1 781.5 211.4 781.3 211.2C780.6 210.6 779.5 211.6 780.2 212.3C780.9 212.9 781.7 212.9 782.5 212.4C783.3 211.9 783.6 211 783.6 210C783.6 209.3 783.5 208.8 783.7 208.2C783.8 207.8 783.8 207.5 783.6 207.2C783 206.4 782.1 207 782 207.8C782 208 782.2 208.3 782.4 208.4H782.5C783.3 209.1 784.1 207.8 783.2 207.3Z" fill="white"/>
<path d="M782.5 207.9C782.8 209.3 782.4 210.8 783.5 212C784.3 212.9 785.5 213.1 786.5 212.3C787.2 211.7 786.2 210.6 785.4 211.2C784.8 211.7 784.2 210.2 784.2 209.9C784.1 209.1 784.1 208.3 784 207.5C783.7 206.6 782.3 207 782.5 207.9Z" fill="white"/>
<path d="M776.7 200.8H778.9C779.9 200.8 779.9 199.3 778.9 199.3C778.2 199.3 777.4 199.3 776.7 199.3C775.7 199.3 775.7 200.8 776.7 200.8Z" fill="white"/>
<path d="M787.6 201.1C788.3 201.1 788.9 201.2 789.5 201.6C790.3 202.1 791.1 200.8 790.3 200.3C789.5 199.8 788.6 199.6 787.7 199.6C786.6 199.6 786.6 201.1 787.6 201.1Z" fill="white"/>
<path d="M782.6 217.9C772.8 218.5 773.7 208.1 771.4 201.7C770.8 199.8 769.7 198.2 769 196.3C766.4 188.9 772.1 194.1 774 196.8C774.6 197.6 775.9 196.8 775.3 196C774.2 194.4 770.2 188.5 767.8 189.2C765.3 189.9 766.9 195.2 767.5 196.7C768.6 199.7 770.1 202.1 770.7 205.3C771.2 208.2 771.3 211.2 772.8 213.8C774.8 217.4 778.4 219.6 782.5 219.3C783.5 219.4 783.5 217.9 782.6 217.9Z" fill="white"/>
<path d="M775.7 197.3C780.5 194.7 785.5 194.5 790.4 196.8C790.8 197 791.2 196.9 791.4 196.5C792.7 194.1 794.3 192.3 796.5 190.7C796.1 190.5 795.6 190.3 795.2 190.2C795.4 195.7 795.6 201.5 794.7 206.9C793.4 214.5 788.4 217.3 781.2 218.2C780.3 218.3 780.2 219.8 781.2 219.7C787.1 218.9 792.5 217.5 795 211.6C797.7 205.2 797 197 796.7 190.2C796.7 189.5 795.9 189.3 795.4 189.7C794 190.8 792.4 193.7 790.9 194.5C789.2 195.4 787.2 194.1 785.3 193.9C781.6 193.5 778.1 194.4 774.8 196.1C774.1 196.5 774.8 197.8 775.7 197.3Z" fill="white"/>
<path d="M774.9 215.5C772.2 219.9 773.2 225.2 774 230.1C775.2 237.6 777.4 244.9 779.6 252.1C779.9 253 781.3 252.6 781 251.7C779.4 246.3 777.7 240.8 776.5 235.3C775.2 229.6 772.9 221.6 776.2 216.3C776.7 215.5 775.4 214.7 774.9 215.5Z" fill="white"/>
<path d="M779.5 251.5C777.6 251.8 771.5 253.8 773.4 256.8C774.1 257.9 775.6 258.1 776.8 258.2C779.1 258.4 781.4 258 783.6 257.3C784.5 257 784.1 255.6 783.2 255.9C781.2 256.5 778 257.5 775.9 256.7C775.5 256.5 774.7 255.8 774.9 255.3C775 255 775.9 254.6 776.3 254.4C777.5 253.8 778.7 253.3 780 253.1C780.9 252.7 780.5 251.3 779.5 251.5Z" fill="white"/>
<path d="M783.9 228.3C784.6 236.5 785.5 244.6 786.7 252.8C786.8 253.8 788.3 253.3 788.1 252.4C786.9 244.4 786 236.4 785.3 228.3C785.4 227.3 783.9 227.3 783.9 228.3Z" fill="white"/>
<path d="M787.3 252.2C785.1 252.5 781.2 254.4 783.2 257.3C785.4 260.4 791.6 257.8 794.2 256.8C795.1 256.5 794.7 255 793.8 255.4C792.1 256.1 790.4 256.7 788.6 257C787.8 257.1 786.3 257.4 785.5 257C784.2 255.5 784.3 254.5 785.8 254.1C786.3 253.9 786.8 253.8 787.3 253.8C788.2 253.6 788.2 252.1 787.3 252.2Z" fill="white"/>
<path d="M794.5 211.6C798.5 214 799.4 218.1 801.2 222.1C802.5 225 804.1 227 806.5 229.1C810 232.1 813.2 234.4 814.5 239.2C815.8 244.2 814.7 249.4 813.3 254.2C813 255.1 814.5 255.5 814.7 254.6C817.1 246.3 818 237.2 811 230.8C809.4 229.3 807.5 228.1 806 226.6C803.8 224.3 802.7 221.7 801.6 218.8C800.2 215.3 798.7 212.3 795.4 210.3C794.4 209.8 793.7 211.1 794.5 211.6Z" fill="white"/>
<path d="M806.5 236.7C803.2 236.2 800.5 239 799.5 242.1C798.1 246.3 801.7 250.5 804.1 253.5C804.3 253.1 804.5 252.6 804.6 252.2C801.4 252.5 798.8 253.5 796.2 255.4C795.9 255.6 795.7 256.1 795.9 256.4C798.4 259.6 804.1 258.2 807.6 258.2C811.3 258.1 815 257.8 814.9 253.1C814.9 252.1 813.4 252.1 813.4 253.1C813.5 257.9 804 256.8 801.4 256.8C800.8 256.8 800.3 256.8 799.7 256.8C797.8 256.5 797.4 256.1 798.5 255.6C799 254.3 803.5 253.8 804.6 253.7C805.3 253.6 805.5 252.9 805.1 252.4C803.8 250.7 802 248.7 801.3 246.6C800.3 243.9 801.5 237.4 806.1 238.1C807.1 238.3 807.5 236.9 806.5 236.7Z" fill="white"/>
<path d="M793.1 243.6C793.5 247.6 793.7 251.6 793.8 255.6C793.8 256.6 795.3 256.6 795.3 255.6C795.2 251.6 795 247.6 794.6 243.6C794.5 242.7 793 242.7 793.1 243.6Z" fill="white"/>
<path d="M794.7 252.8C797.8 254.3 801.1 254.6 804.3 253.6C805.2 253.3 804.8 251.9 803.9 252.2C801 253 798.1 252.8 795.4 251.5C794.6 251.1 793.8 252.4 794.7 252.8Z" fill="white"/>
<path d="M815.8 247.9C818.6 246 820.6 243.5 821.3 240.1C822.4 234.7 819 229.7 821.4 224.4C823.3 220.3 826.5 217.2 827.4 212.7C828.4 207.6 826.4 202.4 827.6 197.3C827.9 196.1 828.3 194.5 829.2 193.5C830.1 191.5 831.5 192 833.2 195.1C833 195.6 832.8 196.1 832.6 196.6C832.3 199.1 830.4 201.7 829.9 204.3C829.5 206.6 829.7 208.9 829.4 211.2C829 214.5 827.4 217.1 825.9 220.1C823.8 224.4 824.2 228.2 824.4 232.9C824.7 240 821.9 245.9 815.5 249.3C814.6 249.8 815.4 251.1 816.3 250.6C820.5 248.3 823.8 244.8 825.2 240.2C827.4 233.2 824.4 226.5 827.9 219.6C829.2 216.9 830.5 214.6 830.9 211.6C831.4 208.1 831.1 205.1 832.2 201.6C833 199.1 837.5 192.3 834.1 189.9C831.9 188.4 829 191 827.9 192.6C824.9 196.8 825.8 202.2 826 207.1C826.2 211.6 825.4 215.1 823 218.9C821.7 220.9 820.3 222.9 819.5 225.2C816.8 233 823.8 240.7 815.1 246.7C814.3 247.2 815 248.5 815.8 247.9Z" fill="white"/>
<path d="M849.7 274C846.2 273.3 843.1 274.4 840.3 276.6C838.3 278.1 835.7 280.3 836.1 283.1C837.3 290.4 848.8 286.1 852.4 283.7C854 282.6 852.5 280 850.9 281.1C849.4 282.1 847.9 282.9 846.2 283.4C845.1 283.7 844 284 842.9 284C841.4 284.1 840.8 284.2 840 282.7C839.2 281.2 839.6 281.2 840.7 280.1C841.4 279.4 842.1 278.9 842.9 278.3C844.7 277.1 846.7 276.4 848.9 276.8C850.8 277.3 851.6 274.4 849.7 274Z" fill="white"/>
<path d="M846.7 273.1C846.1 268.6 844.8 264.3 842.5 260.3C841 257.7 837.7 252 834.2 251.6C826.6 250.7 834.8 270.6 836.1 273.3C837 275 839.5 273.5 838.7 271.8C837.2 268.7 836 265.6 835.2 262.3C834.8 260.6 834 258.1 834.2 256.5C834.2 256 834.1 255.6 834.1 255.1C834.9 255.5 835.6 256.1 836.2 256.8C840.4 261.1 842.9 267.2 843.7 273.1C844 274.9 847 275 846.7 273.1Z" fill="white"/>
<path d="M838.8 271.7C836.6 267.5 827.5 253.3 821.3 258.8C815.1 264.3 826.2 276.2 830.1 279.8C831.5 281.1 833.6 279 832.2 277.7C830.1 275.7 828.1 273.6 826.5 271.3C825.6 270 821.2 263.5 822.7 262.1L826.3 261.5C827.2 262.1 828 262.8 828.8 263.5C829.7 264.3 830.6 265.3 831.5 266.2C833.4 268.3 834.9 270.7 836.2 273.2C837.1 275 839.7 273.5 838.8 271.7Z" fill="white"/>
<path d="M829.9 278.6C826.5 275.8 821.5 278.6 821.8 282.9C822.2 288.7 828.7 289.9 833.2 288.6C835.1 288.1 834.3 285.2 832.4 285.7C830 286.4 826.7 286.6 825.2 284C824.6 283 824.5 281.8 825.4 281C826 280.4 827.1 280.1 827.8 280.7C829.2 282 831.3 279.9 829.9 278.6Z" fill="white"/>
<path d="M823.4 282.9C819.2 284.2 819.2 289.2 821.6 292.2C824 295.2 828.6 297.2 832 294.6C833.5 293.4 831.4 291.3 829.9 292.5C828.3 293.7 825.7 292.1 824.6 291C823.4 289.8 821.8 286.6 824.3 285.8C826.1 285.2 825.3 282.3 823.4 282.9Z" fill="white"/>
<path d="M848 274.2C855.3 274.2 857.5 287.9 856.1 293C855.6 294.9 858.5 295.7 859 293.8C861 286.6 857.6 271.2 848 271.2C846 271.2 846 274.2 848 274.2Z" fill="white"/>
<path d="M776.6 378.4H880.1C882 378.4 882 375.4 880.1 375.4C845.6 375.4 811.1 375.4 776.6 375.4C774.7 375.4 774.7 378.4 776.6 378.4Z" fill="#E8E8E8"/>
<path d="M803.1 391.8H898.4C900.3 391.8 900.3 388.8 898.4 388.8C866.6 388.8 834.8 388.8 803.1 388.8C801.2 388.8 801.2 391.8 803.1 391.8Z" fill="#E8E8E8"/>
<path d="M892.6 377.9H904.6C906.5 377.9 906.5 374.9 904.6 374.9C900.6 374.9 896.6 374.9 892.6 374.9C890.7 374.9 890.7 377.9 892.6 377.9Z" fill="#E8E8E8"/>
<path d="M926.7 386.9C923 385.2 920.2 382.2 919.2 378.2C918.7 376.3 918.3 373.5 919.6 371.8C922.1 368.3 925.1 373.1 925.9 375.6C926.3 376.9 928.5 377.1 928.8 375.6C928.9 374.9 929.1 374.2 929.3 373.5C930.1 370.5 932 370.8 935.1 374.2C935.6 376 934.4 379 933.6 380.5C931.9 383.9 929.1 386.3 925.7 388C924 388.8 925.5 391.4 927.2 390.6C933.6 387.6 940.6 378.8 937.4 371.3C936.4 369 934 367.2 931.4 367.6C927.9 368.1 926.4 371.8 925.8 374.8H928.7C927 369.3 919.8 362.9 916.5 371C913.6 378.1 918.8 386.5 925.2 389.5C926.9 390.3 928.4 387.7 926.7 386.9Z" fill="#E8E8E8"/>
<path d="M506.7 754.3C504.4 769.9 502.1 785.6 499.8 801.2C457.5 814.1 436.8 822.5 437.6 826.2C438.6 830.8 471.2 828.6 535.6 819.6C536.5 797.2 537.5 774.9 538.4 752.5C527.8 753.1 517.3 753.7 506.7 754.3Z" fill="#161616"/>
<path d="M527.2 611.2C525.1 612.8 523.9 614.6 519.4 623.3C515.8 630.2 514.1 633.7 512.9 636.3C504.8 654.7 496.9 683.6 496.9 683.6C490.6 706.5 487.4 717.9 485.2 730C482 747.1 480.7 761.6 480 772.1C485.9 774.8 493 777.5 501.3 779.5C520.9 784.2 537.8 782.8 549 780.8C551 766.7 553.8 751.4 557.7 735.3C561.1 720.9 565 707.6 569 695.4C573.3 698.1 579.6 702.3 587.2 707.5C612.1 724.8 619.9 733.2 634.5 742.6C644.1 748.8 658.3 756.6 677.9 762.6C682.4 762 694.7 759.8 705.2 749.6C721 734.1 719.4 713.1 719.1 710.1C712.5 703.1 703.2 693.7 691.3 683.6C670.3 665.8 652.2 654.9 639.3 647.2C628.9 641 617.3 635.3 594.2 623.8C594.2 623.8 567.1 610.4 542.2 608.2C537.8 607.8 531.9 607.6 527.2 611.2Z" fill="white"/>
<path d="M481.2 770.8C483.8 744.6 488.6 718.7 495.5 693.4C498.9 681 502.8 668.7 507.2 656.5C511.6 644.4 516 631.7 522.2 620.3C525.9 613.5 530.9 611.2 538.4 610.9C545.2 610.6 552 611.5 558.6 613.1C570.7 615.9 582.4 620.6 593.8 625.5C615.4 634.7 636.2 646 655.7 659.2C677.9 674.2 698.4 691.5 716.9 710.9C718.2 712.3 720.4 710.2 719 708.8C684 672.3 641.8 642.9 595.3 623C583.9 618.1 572.3 613.5 560.2 610.5C550.2 608.1 534.7 604.8 525.6 611.3C521.7 614.1 519.5 618.6 517.5 622.9C514.9 628.6 512.5 634.4 510.1 640.2C504.8 653.3 500.1 666.6 496 680.2C487.1 709.7 481.1 740.1 478.1 770.8C478 772.7 481 772.7 481.2 770.8Z" fill="#161616"/>
<path d="M480.6 772.2C501.2 783.8 525.4 787.1 548.4 781.4C550.3 780.9 549.5 778 547.6 778.5C525.4 784 502 780.9 482.1 769.6C480.4 768.7 478.9 771.2 480.6 772.2Z" fill="#161616"/>
<path d="M551.4 779.2C554.9 750.7 561.3 722.6 570.3 695.3C570.9 693.5 568 692.7 567.4 694.5C558.3 722.1 552 750.4 548.4 779.2C548.2 781.1 551.2 781.1 551.4 779.2Z" fill="#161616"/>
<path d="M561 692.4C601.1 712.8 631 752 676.1 762.5C678 762.9 678.8 760 676.9 759.6C632.1 749.1 602.3 710.1 562.5 689.8C560.8 688.9 559.3 691.5 561 692.4Z" fill="#161616"/>
<path opacity="0.12" d="M515.2 782.4C525.4 750 536.6 717 548.9 683.4C551.8 675.4 554.8 667.5 557.8 659.6C578.7 670.6 599.7 681.6 620.6 692.6C649.8 708 679 723.5 708.2 739.1C707.4 742.8 704.5 752.9 695.4 758.3C688.6 762.3 681.1 762 673.1 760.4C648.3 755.4 632.7 740.4 601.5 717.1C594.4 711.8 583.5 703.8 569.6 694.4C566.9 702 564.3 709.9 561.8 718.2C555.1 740.6 550.8 761.7 548 781C542.2 782.5 534.5 783.8 525.7 783.5C521.8 783.3 518.3 782.9 515.2 782.4Z" fill="#6D6C6C"/>
<path opacity="0.12" d="M567 693.3C564.5 692.3 554.4 711.1 551.4 716.7C543.7 731 533.7 752.1 524.4 780.2C526.3 781 528.7 781.9 531.5 782.3C538.9 783.6 544.9 781.8 548.2 780.5C553.5 752.7 558.9 730.6 563.1 714.9C565.7 705.1 568.8 694.1 567 693.3Z" fill="#6D6C6C"/>
<path d="M410.5 766.4C403.7 784.2 396.8 802.1 390 819.9C350.1 833.2 330.7 842 331.6 846.3C332.7 851.3 361.3 850.3 417.4 843.2C424.1 821.5 430.8 799.9 437.6 778.2C428.5 774.3 419.5 770.4 410.5 766.4Z" fill="#161616"/>
<path d="M467.8 592.5C460.1 597.9 455.7 604.3 453.5 607.7C443.9 622.2 439 629.5 435.7 635.9C426.3 654 420.3 669.2 417.5 676.7C408 701.8 403.2 722.2 398.8 740.5C395.6 754.2 393.3 765.6 391.9 773.5C395.9 778.3 401.6 784 409.2 789.1C425.2 799.8 441.3 802.3 450 803C457.3 781.9 464.2 764.1 470 750.1C476.1 735.1 480.6 725.1 488.7 713.7C494.5 705.4 500.2 699.2 504.3 695C508.8 701.3 515.3 709.8 523.8 719.3C534.3 731 553.5 752.1 584.5 770.5C609.6 785.4 629.3 790.7 649.1 796.1C669.7 801.7 676 801.1 680.8 798.3C700.5 786.7 690.5 740.4 689.9 737.6C670.6 722.8 656.3 709.7 646.5 700.3C637.7 691.8 627.8 681.5 610.5 666C605.9 661.9 601.1 657.6 594.5 652.1C591.4 649.5 579.9 640.1 560.2 626.5C560.2 626.5 535.2 609.2 510.8 596.6C510.8 596.6 504.6 593.4 493.9 590.1C485 587.4 481.3 587.2 477.9 587.9C476.7 588 473.2 588.8 467.8 592.5Z" fill="white"/>
<path d="M464.9 592.8C420.8 641.8 402.2 707 390 770.3C389.6 772.2 392.5 773 392.9 771.1C405 708.3 423.3 643.5 467 594.9C468.4 593.5 466.2 591.3 464.9 592.8Z" fill="#161616"/>
<path d="M391 773.8C405.6 790.7 425.7 802 447.7 805.6C449.6 805.9 450.4 803 448.5 802.7C426.9 799.2 407.4 788.2 393.1 771.7C391.9 770.2 389.8 772.3 391 773.8Z" fill="#161616"/>
<path d="M450.6 804.2C457 784.3 464.6 764.9 473.6 746C481.8 728.9 490.2 709.2 504.9 696.6C506.4 695.3 504.2 693.2 502.8 694.5C487.9 707.3 479.3 727.2 471.1 744.5C462 763.6 454.3 783.3 447.8 803.4C447.1 805.2 450 806 450.6 804.2Z" fill="#161616"/>
<path d="M494.3 683.8C535.4 740.4 591.4 791.2 663.4 800.8C665.3 801.1 665.3 798.1 663.4 797.8C592.6 788.4 537.4 738 496.9 682.3C495.7 680.8 493.1 682.3 494.3 683.8Z" fill="#161616"/>
<path d="M467.4 594.8C483.9 582.7 504.9 596.1 520.1 604.3C535.8 612.7 550.9 622 565.6 632.1C595.2 652.6 622.5 676.4 646.9 702.9C648.2 704.3 650.3 702.2 649 700.8C608.8 657.1 560.5 620.4 507.1 594.3C494.3 588 478.6 583 465.9 592.3C464.4 593.3 465.9 595.9 467.4 594.8Z" fill="#161616"/>
<path opacity="0.13" d="M414.6 789.2C421.2 775.6 432.8 751.6 447.1 721.3C474.6 663.4 479.2 652.2 491.8 647.9C513.6 640.6 534.3 662.5 582.2 696.7C609 715.9 645.9 740 693 764.3C693.9 769.5 695.8 783.7 687.5 792.7C683.8 796.6 675.4 802.6 649.4 798.2C639.4 796.5 592.6 787.6 535.8 731C521.5 716.8 510.9 703.8 503.9 694.6C501 698 496.6 703.5 491.8 710.5C483.4 722.9 477.8 734.2 464.8 765.5C460.6 775.5 455.4 788.3 449.6 803.2C445.8 803.4 438.6 803.4 430.6 800.1C422.4 797 417.2 792 414.6 789.2Z" fill="#6D6C6C"/>
<path opacity="0.12" d="M496 681.2C499.9 683.2 505.6 686.2 512.3 690.2C554.6 715.4 555.6 730.7 587.1 749.4C611.6 763.9 620.8 760.5 646 779.5C655.8 786.9 663.1 794 667.8 798.9C658.1 798.1 644.7 796.1 629.4 791.3C609.4 785 595.6 776.7 585.4 770.5C580.3 767.4 559.1 754.3 535.9 731C524.3 719.5 509.8 703.1 496 681.2Z" fill="#6D6C6C"/>
<path opacity="0.12" d="M500.5 695C499.1 693.2 488.6 697.7 479.4 704.7C462.8 717.2 458.1 731.7 442.7 760.1C438.2 768.4 431.4 780.5 422.3 794.7C431.2 798.3 440.1 801.9 449 805.4C451 800 466.3 759.1 477.7 734.4C481.4 726.5 483.4 722.1 487 716.1C495 702.9 501.8 696.7 500.5 695Z" fill="#6D6C6C"/>
<path d="M915.5 523.3C918.1 524.7 918 526.2 921.3 529C924 531.3 925 531 926.1 532.9C927.3 535 927.5 537.4 927.5 539C928.6 539 930.6 539.3 932.7 540.8C933.3 541.2 937.4 544.1 938.5 550.4C939.3 554.7 938.3 558.3 937.8 559.6C938.9 560.6 940.6 562.4 941.2 565.3C942 568.9 940.9 572.2 939.5 575.8C935.4 585.9 931.7 590.1 927.5 598.6C926.2 601.1 924.5 605 922.7 610C922.6 613.8 922.6 620 923.4 627.5C924.6 638.7 926.8 646.8 927.5 649.4C931 662.4 937.2 692.8 937.8 720.7C938.1 735 938.4 757.9 928.5 781.3C924.8 790.1 919.3 802.5 908.2 807.6C906.4 808.4 893.5 814.3 884.5 805C881.2 801.6 879.5 797.4 878.7 794.5C878.5 793 878.3 790.7 878.4 787.9C878.7 775.8 884.3 767.1 886.3 763.8C893.1 752.3 895.2 739.5 898.7 717.8C900.9 704.4 900.4 692.8 899.4 670C898.7 654.4 897.2 633.3 893.9 608.2C892.2 607.7 890 606.7 888.4 604.3C886 600.6 887.4 597.2 885.6 590.7C884.2 585.8 883.1 586.7 880.8 580.2C879.1 575.5 877.5 571.2 878.4 566.2C878.6 565.2 879.5 559.3 882.9 557.9C887.2 556 892 562.8 893.2 564.5C895.6 567.9 896.8 571.5 897.3 573.7C899.7 569.7 902.2 564.9 904.5 559.2C905.6 556.6 906.5 554.1 907.3 551.7C906.9 549.5 906.4 546.3 906 542.4C905.5 537.2 905.3 534.5 905.9 531.1C906.3 528.8 907.3 523.7 910.4 522.3C912.3 521.6 914.4 522.7 915.5 523.3Z" fill="white"/>
<path d="M925.3 606.6C930.2 597.8 936 589 940 579.7C942.9 572.9 944.1 564.7 939.6 558.3C938.5 556.7 935.9 558.2 937 559.8C942.2 567.1 938.7 576.2 934.9 583.3C930.9 590.6 926.8 597.8 922.7 605.1C921.7 606.8 924.3 608.3 925.3 606.6Z" fill="#161616"/>
<path d="M932.4 574.9C939.7 565.2 945.6 541.8 928.6 538C926.7 537.6 925.9 540.5 927.8 540.9C942.6 544.2 935.9 565.2 929.8 573.4C928.7 574.9 931.3 576.4 932.4 574.9Z" fill="#161616"/>
<path d="M924.5 566C931.4 556.1 931.9 542.5 926.6 531.8C925.7 530.1 923.2 531.6 924 533.3C928.8 543.1 928.2 555.5 921.9 564.5C920.8 566 923.4 567.5 924.5 566Z" fill="#161616"/>
<path d="M918.6 558.3C921.4 549.5 922.3 539.9 920.3 530.8C919.2 525.9 914.3 517.3 908.2 522C902.5 526.4 905.1 538.5 905.7 544.4C906.3 550.3 905.6 554.5 902.5 559.6C899.8 564 897.6 568.6 895.9 573.5C895.2 575.3 898.1 576.1 898.8 574.3C901.1 567.8 905.2 562.5 907.9 556.3C910.4 550.5 908.7 544.2 908.3 538.1C908.1 535.3 907.3 530.8 908.4 528.1C908.5 526 909.8 525.6 912.3 526.7C915.1 525.6 916.7 526.4 917 529.2C917.7 531.1 918 533.3 918.2 535.3C919 542.8 918.2 550.2 915.9 557.4C915.2 559.4 918 560.2 918.6 558.3Z" fill="#161616"/>
<path d="M927.7 533.3C926.5 528.7 921.3 525 916.8 528.1C915.2 529.2 916.7 531.8 918.3 530.7C921.1 528.8 924 531.3 924.8 534.1C925.3 536 928.2 535.2 927.7 533.3Z" fill="#161616"/>
<path d="M897.7 571.1C896.1 565.2 892.2 557.7 885.6 556.5C879.3 555.3 877.1 561.4 876.9 566.5C876.4 576.1 881.5 582.7 884 591.5C886 598.6 885.4 605.7 892.6 609.9C894.3 610.9 895.8 608.3 894.1 607.3C888.7 604.2 888.5 598.8 887.4 593.3C886.6 588.9 884.5 585.2 882.7 581.1C880.6 576.4 878.3 569.1 880.1 564C880.2 563.5 880.3 563.1 880.4 562.6C882.7 561.9 885 561.1 887.2 560.4C888.5 560.8 890.1 562.9 891 563.9C892.9 566.3 894 568.9 894.7 571.9C895.3 573.8 898.2 573 897.7 571.1Z" fill="#161616"/>
<path d="M892 608.4C896.2 643.1 900.7 679.1 897.6 714C896.1 730.5 892 745.8 885.4 760.9C880 773.3 876.1 785 878.7 798.6C879.1 800.5 882 799.7 881.6 797.8C878.7 782.6 884.9 770.1 890.6 756.5C896.6 742.4 899.6 727.4 900.8 712.2C903.5 677.8 899.2 642.5 895.1 608.4C894.7 606.5 891.7 606.5 892 608.4Z" fill="#161616"/>
<path d="M922.3 604C919.9 610.9 921.1 618.6 921.9 625.7C922.8 633.2 924 640.7 925.4 648.1C928.5 664.4 932.4 680.5 934.5 697C936.6 713.2 936.7 729.6 934.9 745.8C933.1 761.9 930 779.5 921 793.3C916.7 799.9 910.3 806.3 902.2 807.8C893.5 809.5 885.6 804.3 881.5 796.8C880.6 795.1 878 796.6 878.9 798.3C884.7 808.8 896.6 814 907.9 809C921.3 803.1 928.4 788.1 932.3 774.8C942.6 739.8 939.7 703.3 932.6 668C930.6 658 928.4 648 926.8 637.9C925.9 632.5 925.2 627.1 924.6 621.7C924.1 616 923.3 610 925.2 604.5C925.9 603 923 602.2 922.3 604Z" fill="#161616"/>
<path opacity="0.1" d="M932.1 541.7C932.4 546.7 932.4 553.1 931.2 560.1C928 579.3 918.5 591.4 914.1 596.2C914 601.9 913.8 610.7 914.1 621.3C915.3 668.9 922.7 692.2 923.9 714.5C925.1 736.2 921.1 767.9 896.1 808.9C899.4 809.2 904.6 809.2 910 806.3C914.9 803.7 922.5 797.7 929.4 777.6C935.7 759.2 942.6 725.5 934.9 686.9C931.5 670.1 926.3 656.9 923.6 628.7C922.9 621.2 922.6 614.9 922.4 610.6C924.1 606.6 926.6 601.1 930.2 595.1C936.1 585.2 939.9 581.9 940.9 574.8C941.6 569.8 940.6 564.7 938.6 559.7C938.8 558.4 939.6 553.1 937.2 547.9C935.6 544.2 933.2 542.4 932.1 541.7Z" fill="#6D6C6C"/>
<path opacity="0.11" d="M922 617.999C921.5 618.1 923.1 635.5 926.3 670.3C929.2 701 930.6 716.3 930.6 717.5C931.6 763.1 917.6 795.3 919.9 796.4C921.5 797.2 929.5 781 934.1 761.4C940.4 734.3 937.9 710.8 936.4 697.3C935 685.4 934.5 688.7 927.4 648.3C923.9 628 922.5 617.9 922 617.999Z" fill="#6D6C6C"/>
<path d="M675.7 712.5C666.2 731.8 663.5 748.8 661 765.4C659.6 774.5 658.2 787.4 658.3 803C689.5 811.3 717.3 815.8 740.1 818.2C769.7 821.4 761 817.5 835.7 820.1C873 821.4 892.2 822.7 897.5 812.5C901.9 803.9 891.1 795.3 890.5 775.5C890 759.6 896.3 746.6 901.3 738.5C871.8 726.6 837.7 714.8 799.3 704.8C761.1 694.8 725.7 688.4 694.2 684.4C689.2 690.3 682 699.7 675.7 712.5Z" fill="#D6D6D6"/>
<path opacity="0.12" d="M678.3 709.1C685.6 723.7 701 748.7 729.7 762.7C740.9 768.2 753.6 771.7 791 773.6C815.2 774.8 848.8 775.4 889.5 772.1C888.9 780.8 890.7 787 892.4 791.1C895 797.2 898.6 800.7 898.2 807.1C898.1 808.6 897.9 812.4 895.3 815.5C891.7 819.7 885.8 820.1 882.9 820.2C854.1 821.6 844.2 820.6 844.2 820.6C820 818 798.5 818.6 780.7 819.1C773 819.3 768.9 819.6 760.6 819.5C756 819.4 743.3 819.1 724.9 816.6C697.8 812.9 672.8 806.6 658.9 802.7C658.6 784.8 660.2 770 661.8 759.3C664.3 742.9 667.3 733.8 668.4 730.9C671.6 721.7 675.3 714.3 678.3 709.1Z" fill="#6D6C6C"/>
<path opacity="0.1" d="M667.3 735.3C671.2 743.2 677.9 754.4 689.2 764.8C708.2 782.2 728.7 786.8 753 792.5C804.5 804.7 857 818.6 856.6 820.9C856.4 822.3 836.8 819.1 803 818.7C794.8 818.6 789.5 818.5 781.8 818.7C766.8 819 762.7 819.8 753.7 819.4C744 819 736.9 817.6 729.3 816.1C698.8 810 668.4 803.3 658.6 801.1C658.7 794.7 659.1 788 659.7 781C661.2 764.3 664 748.9 667.3 735.3Z" fill="#6D6C6C"/>
<path d="M959.3 793.7C938.1 796.7 926 797.3 906.2 802.9C897 805.5 889.6 808.2 884.7 810.2C881.6 801.5 877.9 787.4 879.5 770.2C880.4 760 882.9 751.5 885.5 745.1C891 746.5 897.9 747.8 906 748.3C916.1 748.9 924.7 748.1 931.2 747C933.7 738 936.1 729.1 938.6 720.1C943.1 718.9 947.7 717.6 952.2 716.4C952.6 713.9 953.1 711.4 953.5 708.9C959.1 711.5 968 715.7 979.1 720.4C1000 729.4 1003 729.7 1007.5 733.7C1019.6 744.6 1025.4 766.3 1016.5 778.8C1011.1 786.3 993.8 788.8 959.3 793.7Z" fill="white" stroke="#161616" stroke-width="2"/>
<path d="M951.8 708.7C951.1 713.4 950.8 718.1 951 722.9C951.1 724.8 954.1 724.8 954 722.9C953.8 718.4 954.1 714 954.7 709.5C954.9 707.6 952 706.8 951.8 708.7Z" fill="#161616"/>
<path d="M984.4 734.2C985.2 737.9 982.9 741.2 979.7 742.7C977.9 743.5 979.5 746.1 981.2 745.3C985.8 743.2 988.3 738.3 987.3 733.4C986.9 731.5 984 732.3 984.4 734.2Z" fill="#161616"/>
<path d="M973.1 733.2C974.2 733.3 975.4 733.6 976.3 734.4C976.5 734.6 976.7 734.8 976.9 735C977.5 734.5 977.6 734.2 977.1 734.3C976.8 734.1 976 734.1 975.7 734C975.2 733.8 974.7 733.7 974.2 733.4C973.9 733.3 973.7 733.1 973.4 732.9C972.6 733.4 972.5 733.8 973.2 734C973.6 734.4 974.4 734.8 974.9 735.1C975.5 735.5 976 735.8 976.6 736.2C978.2 737.2 979.4 735.1 978.4 733.8C977.8 733 977.1 732.6 976.2 732.2C974.4 731.5 973.6 734.4 975.4 735.1C975.8 735.3 976 735.6 976.3 735.9C976.9 735.1 977.5 734.3 978.1 733.5C976.7 732.6 975.4 731.6 974 730.9C972.9 730.3 971.5 730.5 970.8 731.6C969 734.3 972.9 736.2 974.9 736.8C976 737.1 977.3 737.4 978.4 737C979.6 736.6 980.2 735.3 979.8 734.1C979 731.5 975.5 730.4 973.1 730.2C971.1 730.1 971.2 733.1 973.1 733.2Z" fill="#161616"/>
<path d="M1002.4 729.6C1006.7 730.8 1013.8 733.4 1020.7 738.8C1023.1 740.7 1028.3 744.8 1031.4 750.7C1037.3 761.9 1034.6 777.6 1024.3 788C1014.2 798.1 998 801.7 982.9 797.2C989.4 774.7 995.9 752.2 1002.4 729.6Z" fill="#FF9500"/>
<path d="M1007.3 691.3C997.9 726.1 988.5 760.9 979.1 795.7C977.6 801.3 986.3 803.7 987.8 798.1C997.2 763.3 1006.6 728.5 1016 693.7C1017.5 688.1 1008.8 685.7 1007.3 691.3Z" fill="#161616"/>
<path d="M986.9 774.4C985.3 767.8 981.1 763.6 976.2 758.7C965.8 748.3 961.2 750.4 954.7 743.2C944.5 731.7 952.6 722.5 942.5 712.1C933.9 703.3 920.9 702.6 917.9 702.5C915 702.4 903.3 702.3 894.3 710C886.5 716.7 883.6 726.8 885 727.6C885.5 727.9 887 727.2 891.8 722.1C890.3 723.6 888.5 726 887.4 729.2C886.2 733 886.4 736.7 887 736.8C887.5 736.9 887.7 734.8 889.8 733.4C891 732.6 892.4 732.3 893.4 732.3C890.8 735.1 888.4 738.8 889.2 742.6C891.2 753.2 915 758.1 922.9 759.7C948.5 765 963.5 759.9 971.5 769.5C972.2 770.3 975.4 774.2 974.2 777.8C972.6 782.4 964.3 785 959.3 782.8C955 780.9 954.4 776 953.5 776.2C952.4 776.5 953 784.7 957.8 792.2C959.6 794.9 961 797.1 963.9 798.6C969 801.1 975.5 799.8 979.4 797.4C987.7 792.7 988.7 781.6 986.9 774.4Z" fill="#161616" stroke="#161616" stroke-width="2"/>
<path opacity="0.22" d="M952.3 779.5C952.3 778 952.5 775.8 953.1 775.8C953.4 775.8 953.7 776.4 953.7 776.3C953.7 776.3 951.5 774.2 951.5 771.9C951.5 770.8 952 769.9 952.4 769.4C942.8 772.2 931.4 774.9 918.4 776.7C904.1 778.7 891.3 779.2 880.4 779C879.9 783.1 879.6 788.9 881 795.8C882.1 801.4 884 806 885.7 809.4C901.2 802.7 913.2 799.9 921.3 798.5C925.1 797.9 934.1 796.5 938.5 795.9C946.5 794.7 953.1 793.8 957.6 793.2C957.1 792.5 956.3 791.4 955.5 790C954.4 788.1 952.3 784.2 952.3 779.5Z" fill="#6D6C6C"/>
<path opacity="0.393485" d="M1034.2 764.3C1031 773.2 1022.3 779.1 1012.8 779C1001.6 778.8 995 770.2 994.4 769.4C991.8 779 989.3 788.7 986.7 798.3C989.1 798.8 992.4 799.3 996.4 799.2C1009 798.9 1017.6 793.2 1019.4 791.9C1022.2 790 1031.4 783 1033.7 771.1C1034.2 768.3 1034.2 765.9 1034.2 764.3Z" fill="#808080"/>
<path d="M855.9 559.1C860.3 565.2 865.3 571.6 871.1 578.2C878.9 587.1 886.6 594.6 893.8 600.9C904.1 590.9 915 580.8 926.5 570.5C937.4 560.7 948.2 551.5 958.8 542.8C956.3 537.7 952.9 531.8 948.4 525.8C939.6 514.1 929.9 506.3 922.5 501.3C905.6 513.2 887.8 527.4 870.2 544.5C865.2 549.5 860.5 554.3 855.9 559.1Z" fill="white"/>
<path d="M876.2 541.8C890.5 527.6 905.8 514.5 922.1 502.7C923.6 501.6 922.2 499 920.6 500.1C904.1 512.1 888.5 525.3 874.1 539.7C872.7 541.1 874.8 543.2 876.2 541.8Z" fill="#161616"/>
<path d="M921.4 502.1C935.8 513 947.9 526.5 957.3 541.9C958.3 543.5 960.9 542 959.9 540.4C950.2 524.5 937.7 510.8 922.9 499.5C921.4 498.4 919.9 501 921.4 502.1Z" fill="#161616"/>
<path d="M875.7 538.3C868.4 544.6 861.4 551.3 854.8 558.4C853.5 559.8 855.6 561.9 856.9 560.5C863.5 553.4 870.4 546.7 877.8 540.4C879.3 539.1 877.2 537 875.7 538.3Z" fill="#161616"/>
<path d="M855.2 561.2C866.6 575.2 878.8 588.4 891.9 600.9C893.3 602.2 895.4 600.1 894 598.8C881 586.3 868.7 573.1 857.3 559.1C856.1 557.5 853.9 559.7 855.2 561.2Z" fill="#161616"/>
<path d="M895.2 601.5C916.3 581.4 938 562 960.2 543.2C961.7 542 959.5 539.8 958.1 541.1C935.9 559.9 914.2 579.4 893.1 599.4C891.7 600.7 893.8 602.8 895.2 601.5Z" fill="#161616"/>
<path d="M867.6 560.2C874.4 569 881.5 577.6 888.8 585.9C890.1 587.4 892.2 585.2 890.9 583.8C883.6 575.4 876.5 566.8 869.7 558.1C868.6 556.5 866.5 558.7 867.6 560.2Z" fill="#161616"/>
<path d="M869.8 560.2C885 543.5 902.9 529.8 920.7 516.1C922.2 514.9 920.7 512.3 919.2 513.5C901.1 527.3 883 541.2 867.7 558C866.3 559.5 868.5 561.6 869.8 560.2Z" fill="#161616"/>
<path d="M921 516.1C930.2 523 938.6 530.7 946.3 539.2C947.6 540.6 949.7 538.5 948.4 537.1C940.5 528.4 931.9 520.6 922.5 513.5C920.9 512.4 919.4 515 921 516.1Z" fill="#161616"/>
<path d="M890.6 586.7C895.7 586.5 899.6 584 903.6 581C908.8 577 913.9 572.9 918.9 568.6C929.5 559.7 939.6 550.3 949.3 540.6C950.7 539.2 948.5 537.1 947.2 538.5C938.8 547 930 555.1 921 563C916.6 566.8 912.1 570.5 907.6 574.2C902.7 578.1 897.3 583.6 890.6 583.8C888.7 583.7 888.7 586.7 890.6 586.7Z" fill="#161616"/>
<path opacity="0.11" d="M916.4 503C914 507.5 910.5 514 906.4 521.9C896.2 541.7 891 551.7 889.4 558C887.3 566.2 885.7 580.6 894.2 600.9C881.5 587.4 868.8 573.8 856.1 560.3C876.2 541.2 896.3 522.1 916.4 503Z" fill="#6D6C6C"/>
<path d="M906 535.4C910.8 540.3 915.3 545.5 919.5 550.9C920.7 552.4 922.8 550.3 921.6 548.8C917.4 543.4 912.9 538.2 908.1 533.3C906.8 531.9 904.7 534 906 535.4Z" fill="#E8E8E8"/>
<path d="M907.2 535C909.5 533.5 911.9 532.1 914.2 530.6C915.4 529.8 916.7 528.6 918.1 528.2C920 527.5 918.8 527.1 920.3 527.9C922.1 528.8 924.1 532.7 925.4 534.3C927.3 536.7 929.1 539 931 541.4C932.2 542.9 934.3 540.8 933.1 539.3C930.7 536.2 928.2 533.1 925.8 530C924.6 528.4 922.7 524.6 920.6 524.1C919.1 523.8 917.8 524.8 916.6 525.6C912.9 527.8 909.3 530.2 905.7 532.4C904.1 533.5 905.6 536.1 907.2 535Z" fill="#E8E8E8"/>
<path d="M921.3 550.8C925.5 549 929.2 546.4 932.4 543.2C933.8 541.8 931.6 539.7 930.3 541.1C927.2 544.1 923.7 546.5 919.8 548.2C918 549 919.5 551.6 921.3 550.8Z" fill="#E8E8E8"/>
<path d="M914.5 540.7C915.8 539.4 917 538.1 919 538.4C920.1 538.6 920.5 538.8 921.7 538.6C922.7 538.4 923 537.2 922.6 536.4C921.7 534.9 920.9 537.4 920.9 538.3C920.9 539.1 921.2 540 921.8 540.6C923.3 542.2 925.5 541.8 927.3 541C929.1 540.3 928.3 537.4 926.5 538.1C925.8 538.4 925.1 538.6 924.3 538.7C924 538 924 537.3 924.3 536.6C924.3 535.9 924.4 535.3 924.2 534.6C923.9 533.6 923.1 532.7 922 532.6C918.8 532.2 918.8 536 920 538C920.3 537.3 920.6 536.5 920.9 535.8C920.1 535.9 919.1 535.3 918.3 535.3C917.7 535.3 917 535.5 916.4 535.7C914.8 536.3 913.6 537.5 912.5 538.7C911 540 913.2 542.1 914.5 540.7Z" fill="#E8E8E8"/>
<path d="M913 534.3C914.4 534.4 915.7 534.3 917 534C918.9 533.6 918.1 530.7 916.2 531.1C915.1 531.3 914.1 531.4 913 531.3C912.2 531.2 911.5 532 911.5 532.8C911.5 533.7 912.2 534.2 913 534.3Z" fill="#E8E8E8"/>
<path d="M890.1 548.7C894.7 554 899.3 559.2 904 564.3C905.3 565.7 907.4 563.6 906.1 562.2C901.4 557.1 896.7 551.9 892.2 546.6C891 545.1 888.9 547.2 890.1 548.7Z" fill="#E8E8E8"/>
<path d="M892.5 549.1C893.5 547.3 894 545.8 896.1 545.7C897.9 545.6 899 547 900.2 548.1C901.9 549.6 903.3 551.4 905 553C906.3 554.2 907.7 555.4 909.2 556.4C910.5 557.3 911.7 557.8 910.3 559.5C909.5 560.5 907.4 560.9 906.2 561.3C904.4 561.9 905.2 564.8 907 564.2C909.7 563.3 914 561.9 914.9 558.7C915.3 557.4 915 556.8 914.1 555.9C912.2 554.2 909.6 553.1 907.7 551.3C904.5 548.4 901.7 544.1 897.6 542.4C893.7 540.9 891.7 544.5 890 547.5C889 549.2 891.6 550.8 892.5 549.1Z" fill="#E8E8E8"/>
<path d="M862 537.5C858.6 538.9 858.8 540.4 854.5 543.2C851 545.5 849.8 545.2 848.4 547.1C846.8 549.2 846.6 551.6 846.6 553.2C845.2 553.2 842.7 553.5 840 555C839.2 555.4 834 558.3 832.5 564.6C831.5 568.9 832.8 572.5 833.4 573.8C832 574.8 829.9 576.6 829 579.5C827.9 583.1 829.3 586.4 831.2 590C836.4 600.1 841.1 604.3 846.5 612.8C848.1 615.3 850.4 619.2 852.6 624.2C852.7 628 852.7 634.2 851.7 641.7C850.2 652.9 847.3 661 846.4 663.6C841.9 676.6 834 707 833.2 734.9C832.8 749.2 832.4 772.1 845 795.5C849.7 804.3 856.7 816.7 870.9 821.8C873.1 822.6 889.6 828.5 901.1 819.2C905.3 815.8 907.4 811.6 908.6 808.7C908.9 807.2 909.1 804.9 909 802.1C908.6 790 901.4 781.3 898.9 778C890.2 766.5 887.6 753.7 883.1 732C880.3 718.6 880.9 707 882.2 684.2C883.1 668.6 884.9 647.5 889.2 622.4C891.3 621.9 894.2 620.9 896.2 618.5C899.2 614.8 897.4 611.4 899.7 604.9C901.4 600 902.8 600.9 905.8 594.4C908 589.7 909.9 585.4 908.9 580.4C908.7 579.4 907.4 573.5 903.2 572.1C897.8 570.2 891.6 577 890.1 578.7C887 582.1 885.6 585.7 884.8 587.9C881.7 583.9 878.5 579.1 875.6 573.4C874.3 570.8 873.1 568.3 872.1 565.9C872.6 563.7 873.3 560.5 873.8 556.6C874.4 551.4 874.7 548.7 873.9 545.3C873.3 543 872.1 537.9 868.2 536.5C866.1 535.7 863.4 536.8 862 537.5Z" fill="white"/>
<path d="M852.5 619.2C847.5 612.2 842.4 605.2 837.5 598.1C832.8 591.3 827.3 581.7 834.1 574.2C835.4 572.8 833.3 570.6 832 572.1C826.7 577.9 827.3 585.8 830.6 592.5C835.6 602.5 843.5 611.6 850 620.7C851 622.3 853.6 620.8 852.5 619.2Z" fill="#161616"/>
<path d="M843.1 587.2C838.3 582.2 834.3 575.4 834.4 568.3C834.5 561.4 839.5 556.2 846.1 555.1C848 554.8 847.2 551.9 845.3 552.2C838.2 553.4 832.5 558.9 831.5 566.1C830.3 574.7 835.2 583.4 841 589.4C842.3 590.8 844.4 588.6 843.1 587.2Z" fill="#161616"/>
<path d="M853.2 578.3C845.5 569.7 844.6 557.1 850.7 547.4C851.7 545.8 849.1 544.3 848.1 545.9C841.2 556.8 842.5 570.9 851 580.4C852.4 581.9 854.5 579.8 853.2 578.3Z" fill="#161616"/>
<path d="M861.3 571.7C858.1 563.9 856.9 555.2 858.9 546.9C860 542.2 866 533.3 870.8 540.5C872.8 543.5 872.1 548 871.8 551.4C871.3 557.8 869 564.8 872.3 570.8C873.9 573.6 876.3 576 878.1 578.6C880.4 581.8 882.2 585.3 883.9 588.9C884.7 590.7 887.3 589.1 886.5 587.4C884.4 582.8 881.8 578.5 878.7 574.5C876.9 572.1 874.6 569.9 873.8 566.9C873 564 873.8 560.8 874.1 557.8C874.9 551.7 877.4 540.3 870.8 536.2C864.9 532.5 858.6 538 856.7 543.4C853.3 552.7 854.7 563.6 858.3 572.6C859.1 574.3 862 573.5 861.3 571.7Z" fill="#161616"/>
<path d="M849.7 548.3C850.9 544.8 855.3 543.2 858.6 544.9C860.3 545.8 861.8 543.2 860.1 542.3C855.1 539.6 848.7 542.2 846.8 547.5C846.1 549.3 849 550.1 849.7 548.3Z" fill="#161616"/>
<path d="M888 586.1C889.1 582.9 890.7 580.1 893.1 577.8C894.1 576.9 895.2 576 896.4 575.3C899.2 573.7 900.4 573.7 903.5 574.8C907.1 576.1 907.6 576.9 907.9 580.7C908 581.9 908 583.1 907.9 584.3C907.6 588.1 906.2 591.7 904.4 595C902.3 598.8 899.7 602.3 898.5 606.6C896.7 613.1 896.6 618.4 889.6 621.5C887.8 622.3 889.4 624.9 891.1 624.1C894.1 622.8 896.6 620.8 898.3 618C900.6 614.3 900.4 609.9 901.8 605.9C903.4 601.5 906.5 597.8 908.5 593.6C910.3 589.6 911.2 585.2 910.9 580.8C910.5 574.8 907 569.8 900.4 570.8C892.9 571.9 887.4 578.6 885.1 585.4C884.4 587.1 887.3 587.9 888 586.1Z" fill="#161616"/>
<path d="M888.6 622.2C885.8 640.4 883.5 658.7 881.9 677C880.5 693.4 879.6 709.9 881.2 726.4C882.7 741.5 886.5 756.2 893.6 769.6C900.8 783.3 909.7 795.8 905.7 812.1C905.2 814 908.1 814.8 908.6 812.9C912 798.8 906.8 787.3 900.1 775.2C892.1 760.9 886.7 746.3 884.6 729.9C882.6 713.5 883.3 697 884.6 680.6C886.2 661.4 888.5 642.2 891.5 623.1C891.8 621.1 888.9 620.3 888.6 622.2Z" fill="#161616"/>
<path d="M850.1 619.3C852.1 623.7 851.6 628.6 851.1 633.3C850.5 638.6 849.7 643.9 848.6 649.2C846.8 658.5 844.3 667.7 841.9 676.9C837.2 695 832.7 713.1 832.1 731.8C831.5 750.3 833.9 769.4 840 786.9C845.1 801.5 854.1 815.6 868.6 822.1C882.3 828.2 899.2 825.3 908 812.5C909.1 810.9 906.5 809.4 905.4 811C895.7 825 876.4 824.7 863.4 815.7C849.4 806 843 789.3 839.2 773.4C835 755.8 833.9 737.4 835.9 719.5C837.9 701.9 842.9 684.9 847.2 667.8C849.5 658.6 851.7 649.4 853 640C854.1 632.7 855.6 624.7 852.4 617.8C851.9 616 849.3 617.6 850.1 619.3Z" fill="#161616"/>
<path opacity="0.1" d="M840.9 555.8C840.5 560.8 840.5 567.2 842 574.2C846.1 593.4 858.2 605.5 863.7 610.3C863.9 616 864 624.8 863.7 635.4C862.2 683 852.8 706.3 851.2 728.6C849.7 750.3 854.8 782 886.6 823C882.3 823.3 875.8 823.3 868.9 820.4C862.7 817.8 853 811.8 844.2 791.7C836.2 773.3 827.4 739.6 837.2 701C841.5 684.2 848.2 671 851.6 642.8C852.5 635.3 852.9 629 853.1 624.7C850.9 620.7 847.7 615.2 843.1 609.2C835.6 599.3 830.7 596 829.5 588.9C828.6 583.9 829.8 578.8 832.4 573.8C832.1 572.5 831.2 567.2 834.2 562C836.4 558.4 839.5 556.6 840.9 555.8Z" fill="#6D6C6C"/>
<path opacity="0.11" d="M853.8 632.099C854.5 632.2 852.4 649.6 848.3 684.4C844.6 715.1 842.8 730.4 842.8 731.6C841.5 777.2 859.3 809.4 856.4 810.5C854.3 811.3 844.2 795.1 838.3 775.5C830.2 748.4 833.4 724.9 835.4 711.4C837.1 699.5 837.8 702.8 846.8 662.4C851.3 642.1 853.1 632 853.8 632.099Z" fill="#6D6C6C"/>
<path d="M374.3 917.9C373.4 915.5 371.7 912 368.7 908.5C365.4 904.6 362.6 903.2 360.4 901.6C356.5 898.6 355 894.9 348.6 867.2C345.6 854 345.3 852.5 345.8 849.8C347.1 842.8 350.8 840.4 352.7 831.4C353.6 827.1 353.6 824 353.4 818.2C353.1 809.4 352.9 800.4 349.2 790.1C345.9 780.6 342.1 770.1 332.2 765.4C325.3 762.2 318.5 763.3 312.4 764.4C300.1 766.6 297.4 771.2 284.6 776.9C278.2 779.7 259.8 787.9 238 786.6C228.3 786 222.9 783.9 216.8 787.6C210.4 791.6 207.7 799.2 205.7 805C203.2 812.1 202.6 818.3 202.6 822.4C201.3 826.7 199.3 833.2 197 841.2C190.6 864 190.6 868.2 186.2 880.5C181.8 893 179 900.8 172.3 909.7C170.1 912.6 170 912.3 149.7 931.9C139.3 941.9 133.8 947.4 131.3 956.6C130.3 960.2 128.7 965.9 131.6 969.8C132.5 970.9 135.4 974.2 153.1 973.6C161.3 973.3 162.4 972.6 170.8 971.9C186.3 970.6 198.4 971.9 204.5 972.6C210.3 973.2 215.1 974.1 218.4 974.7C221.6 975 226.4 975.6 232 977.1C242.1 979.9 245.2 983 254.2 986.8C259.7 989.1 271 993.8 284.8 993.4C294.2 993.1 301.8 990.6 306.7 988.5C313.9 989.6 319.8 989.1 323.7 988.5C330.5 987.4 335.7 985.2 340 983.3C345.2 981 344.9 980.5 351.5 977.4C363 971.8 364.9 972.8 368.2 969.8C370.6 967.6 372.8 964.1 374.1 949.6C375 941.9 375.5 931.1 374.3 917.9ZM209 945.5C209.8 951 211.4 955.4 209 957.8C205.9 960.8 200.6 956.5 187.2 957.2C185 957.3 183.7 957.5 177.2 958C171.5 958.4 171.7 958.3 168.1 958.6C162.3 959.1 161.8 959.4 159.4 959.2C155.1 958.8 152.9 958.7 151.1 957.1C148.2 954.6 147.7 950 148.3 946.9C149.3 940.7 154.4 938.1 163.5 930.6C167.3 927.5 172.8 922.7 179 916C182.7 911.1 186.3 906 190 900.7C191.7 898.2 193.3 895.8 194.9 893.3C196.4 889.2 198.3 883.5 200.2 876.6C205.2 858.4 205.3 847.1 207 847C209 847 210.7 861.8 211.4 869.9C212.2 880.3 212 888.9 211.6 894.7C212.6 896.6 214 899.8 214.4 904C214.9 908.7 214 912.5 213.3 914.6C207.9 928.1 207.9 938.4 209 945.5Z" fill="white"/>
<path d="M209.5 793C196.2 814.6 204.7 840 208.5 863.1C209.6 869.9 210.2 876.7 209.9 883.5C209.7 886.7 209.3 889.9 209.7 893.2C210.1 896.2 211.2 898.9 211.9 901.8C213.8 909.3 211.1 916.9 209.6 924.2C208.3 930.5 207 936.8 206.8 943.2C206.4 953.3 208.9 964.1 216.2 971.4C224.3 979.5 236.1 978.2 245.8 983.3C255.9 988.7 265.4 993.2 277 994.3C282.7 994.8 288.6 994.6 294.2 993.6C300.2 992.6 305.8 989.7 311.8 988.7C317.5 987.8 323 989.8 328.7 988.3C335.1 986.7 341.3 983.1 347.3 980.4C353.5 977.6 359.7 974.7 366 971.9C370.1 970 373.8 968.3 374.8 963.5C376.1 957.5 375.4 950.4 375.5 944.3C375.7 937.9 376.2 931.5 375.8 925.1C375.6 921 375 916.9 373.3 913.2C370.7 907.4 365.2 905.6 361.6 900.8C354.5 891 350.9 877.3 348.9 865.5C348.3 861.8 347.9 858.1 347.6 854.4C347.4 850.6 348.7 848.2 350.1 844.9C352.1 840.2 353.4 835.2 354 830.2C355.6 818.6 354.1 806.7 351.4 795.4C349.1 785.8 346 775.1 338.3 768.3C318.1 750.5 291.6 771.4 272.9 780.2C266 783.4 258.8 785.5 251.2 785.5C243.9 785.5 236.7 784.1 229.4 784.6C219.7 785.2 209.6 789.6 206.3 799.3C205.7 801.1 208.6 801.9 209.2 800.1C213.2 788.4 227.1 787.1 237.6 787.7C248.8 788.4 259 789.1 269.6 784.9C287.8 777.7 306.7 759.5 327.8 765.9C339.4 769.4 344.3 780.7 347.3 791.5C350.3 802.3 352.2 813.5 351.6 824.7C351.3 830.2 350.3 835.7 348.5 841C347.7 843.4 346.6 845.8 345.4 848.1C344.1 850.7 344.4 852.6 344.6 855.6C345.3 866.4 347.6 877 351.5 887.1C353.2 891.5 355.1 895.9 357.4 900.1C359.9 904.5 363.3 906.3 366.8 909.7C374.8 917.3 372.7 930.8 372.4 940.7C372.2 947 372 953.3 371.8 959.6C371.7 963.8 370.8 966.2 367.2 968.3C364.3 970 361 971.2 357.9 972.5C352.3 975.1 346.6 977.6 341 980.2C334.6 983.1 328.2 986.8 320.9 986.4C316.1 986.2 312.2 985.6 307.5 986.9C301.7 988.6 296.2 990.7 290.2 991.4C278.7 992.8 266.8 991 256.4 986C252 983.9 247.9 981.1 243.4 979.1C238.7 977 233.8 976.5 228.8 975.3C217 972.5 210.7 961.3 209.7 949.9C208.5 936.3 213.7 923.6 215.3 910.3C216.2 903.6 212.7 898 212.2 891.4C211.8 884.7 212.9 878.1 212.2 871.3C209.7 846.2 197.2 818.3 211.7 794.6C213.2 792.8 210.6 791.3 209.5 793Z" fill="#161616"/>
<path d="M211.4 792.7C228.9 790.1 242.6 804.1 249.9 818.3C256.9 831.7 260.5 846.6 268.2 859.7C274.7 870.7 284.2 879.9 297 882.7C308.3 885.2 320.8 882.8 330.1 875.8C342.6 866.4 348 850.9 350.8 836.1C351.2 834.2 348.3 833.4 347.9 835.3C345.3 848.8 340.7 863.3 329.7 872.3C318.6 881.4 302.2 883.3 289.3 876.8C262.6 863.5 262.4 827.2 245.4 805.8C237 795.2 224.2 787.8 210.4 789.8C208.7 790.1 209.5 793 211.4 792.7Z" fill="#161616"/>
<path d="M317.1 888.1C317.2 888.3 317.3 888.4 317.4 888.6C317.5 888 317.6 887.4 317.6 886.8C317.4 887 317.3 887.1 317.1 887.3C317.7 887.2 318.3 887.1 318.9 887.1C317.2 886.2 316.4 882.4 315.8 880.7C314.9 878.1 314.3 875.3 313.8 872.6C313.5 870.5 312.1 854.8 316.5 856.3C317.8 856.8 318.8 862.2 319.2 863.6C319.9 866.3 320.3 869.1 320.6 871.9C320.9 874.6 320.9 877.3 321 879.9C321 881.1 321.1 882.3 321.1 883.5C321.1 884.1 321.1 884.7 321 885.3C321.2 886 320.9 886.5 320.2 886.8C320.4 884.9 317.4 884.9 317.2 886.8C317 888.8 318.6 890.4 320.7 890.2C323.6 889.9 324 886.7 324 884.4C324.2 879 323.9 873.3 323.1 868C322.5 863.6 321.6 857.3 318.4 853.9C312.5 847.5 310.5 860 310.4 863.4C310.1 868.7 310.8 874 312.2 879C313.1 882 314.4 888.1 317.5 889.7C318.1 890 318.8 890 319.3 889.5C319.5 889.3 319.6 889.2 319.8 889C320.3 888.5 320.4 887.7 320 887.2C319.9 887 319.8 886.9 319.7 886.7C318.7 884.9 316.1 886.4 317.1 888.1Z" fill="#161616"/>
<path d="M293.1 942.3C293.6 958.3 295 974.3 297.3 990.1C297.6 992 300.5 991.2 300.2 989.3C298 973.7 296.6 958 296.1 942.3C296 940.4 293 940.4 293.1 942.3Z" fill="#161616"/>
<path d="M295.2 943C302.3 933 315 928.8 326 925C338.1 920.8 350.4 917.6 363 915.3C364.9 915 364.1 912.1 362.2 912.4C347.8 915 333.6 918.9 319.9 924C309.6 927.9 299.1 932.3 292.5 941.5C291.5 943.1 294.1 944.6 295.2 943Z" fill="#161616"/>
<path d="M295.7 943.6C307.5 949.9 319 954.7 332.6 951.1C345.6 947.6 357.7 940.3 367.9 931.8C369.4 930.6 367.3 928.5 365.8 929.7C356.3 937.6 345.3 944.2 333.5 947.8C320.1 951.9 309 947.5 297.2 941.1C295.5 940.1 294 942.7 295.7 943.6Z" fill="#161616"/>
<path d="M342.3 941.2C343.1 945.1 343.9 949.1 344.7 953C345.1 954.9 348 954.1 347.6 952.2C346.8 948.3 346 944.3 345.2 940.4C344.8 938.5 341.9 939.3 342.3 941.2Z" fill="#161616"/>
<path d="M349 938.4C349.4 942.1 349.7 945.8 350.1 949.5C350.3 951.4 353.3 951.4 353.1 949.5C352.7 945.8 352.4 942.1 352 938.4C351.8 936.5 348.8 936.4 349 938.4Z" fill="#161616"/>
<path d="M212.1 916.7C210.2 922.2 212.1 927.2 218.6 926.1C220.2 925.8 221.6 925.1 223.2 924.6C224.1 924.3 225.4 923.8 226.4 923.9C231.5 924.6 228.6 926.3 229.9 928.1C231.4 930.1 232.3 931.1 235 931.1C238.6 931 245.7 927.6 248.1 932C249 933.8 248.1 938.6 248.1 940.8C248.1 943.4 248.2 946 248.2 948.6C248.4 960 248.7 971.4 249.1 982.7C249.2 984.6 252.2 984.6 252.1 982.7C251.4 965.2 251.1 947.6 251 930C251 929.5 250.7 928.9 250.3 928.7C247 927.2 243.7 926.5 240.1 927C237.6 927.3 236.5 928.3 234.1 926.9C231.8 925.6 232.6 924.8 231.2 923C229.7 921.1 227.5 920.7 225.2 921C223.6 921.2 222.3 921.9 220.8 922.4C220 922.7 219 923.2 218.1 923.2C215.9 923.1 214.3 919.7 215.1 917.6C215.6 915.7 212.7 914.9 212.1 916.7Z" fill="#161616"/>
<path d="M205.5 817.6C205.6 806.1 209.3 785.3 225.7 789.3C227.6 789.8 228.4 786.9 226.5 786.4C219.6 784.7 212.8 787.7 208.5 793.2C203.1 800 202.5 809.2 202.5 817.6C202.5 819.6 205.5 819.6 205.5 817.6Z" fill="#161616"/>
<path d="M202.8 811.3C200.6 815.9 203.7 820.6 206.5 824.4C209.4 828.4 213.8 832 219 830.9C221.9 830.3 223.9 827.7 226.8 827.2C230 826.5 233.1 829.3 236.3 829.2C243.1 828.9 247.2 822.4 252.1 818.8C253.6 817.7 252.2 815.1 250.6 816.2C246.7 819 243.7 823.4 239.2 825.3C234.5 827.3 231.7 823.8 227.2 824.1C222.7 824.4 220.1 829 215.3 827.8C211.3 826.8 203.3 817.6 205.5 812.8C206.2 811.1 203.6 809.5 202.8 811.3Z" fill="#161616"/>
<path d="M203.6 809.5C198.8 830.5 193.2 851.3 186.9 871.8C183.9 881.5 181.1 891.6 176.1 900.6C171.8 908.3 165.9 914.8 159.6 920.9C148.6 931.5 135.9 941.5 129.7 955.9C127.2 961.7 126.5 967.7 132.2 971.8C138.5 976.4 147.8 976.2 155.1 975.5C166.3 974.4 177.4 970.9 188.7 971.8C199.5 972.7 209.8 977.1 220.6 973.9C222.4 973.3 221.7 970.5 219.8 971C210.1 973.9 200.6 970.2 190.9 969C182.9 968 174.9 969.3 167.1 970.6C157.7 972.2 147.1 974.5 137.8 971.2C132 969.2 129.5 964.9 131.6 959C133 955.1 135.1 951.4 137.5 948.1C146 935.9 158.4 927.1 168.4 916.2C179.6 903.9 184.7 889.2 189.6 873.5C196 852.6 201.7 831.5 206.6 810.2C207 808.4 204.1 807.6 203.6 809.5Z" fill="#161616"/>
<path d="M203.7 842.7C201.9 861.6 199.9 881 190.6 898C186.5 905.6 181.2 912.5 175 918.4C169.3 923.8 162.7 928.1 156.8 933.2C152.4 937 146.1 942.7 145.7 949C145.3 954.7 150.1 959.2 155.2 960.7C163.4 963.2 173.3 960.2 181.7 959.7C191.5 959.2 201.4 959.5 211.2 960.5C213.1 960.7 213.1 957.7 211.2 957.5C202.1 956.5 192.9 956.2 183.7 956.6C179.8 956.8 175.8 957.1 171.9 957.5C167.3 958 162.4 959.1 157.8 958.2C152.1 957.1 147.2 952.6 149.6 946.4C151.1 942.7 154.3 939.5 157.2 936.8C162.5 931.8 168.7 927.9 174.1 923.1C184.4 914.2 192.5 902.7 197.6 890.1C203.7 875 205.2 858.6 206.8 842.5C206.9 840.8 203.9 840.8 203.7 842.7Z" fill="#161616"/>
<path d="M229.5 928C230.4 936.9 231.8 945.6 233.8 954.3C234.2 956.2 237.1 955.4 236.7 953.5C234.8 945.1 233.4 936.6 232.5 927.9C232.3 926.1 229.3 926.1 229.5 928Z" fill="#161616"/>
<path d="M254.5 801.7C270.5 814 296.3 821.1 315 810.7C316.7 809.8 315.2 807.2 313.5 808.1C295.7 817.9 271.1 810.7 256.1 799.1C254.4 797.9 252.9 800.5 254.5 801.7Z" fill="#161616"/>
<path d="M205.8 814.5C205.2 807.3 206.6 798.9 211.6 793.4C216.6 788 224.4 788.5 231.2 788.5C243.7 788.7 256.3 790 268.2 785.6C270 784.9 269.2 782 267.4 782.7C252.1 788.4 236.4 783.9 220.7 785.9C207 787.7 201.8 802.1 202.8 814.5C202.9 816.4 205.9 816.5 205.8 814.5Z" fill="#161616"/>
<path d="M206.4 817.4C207.4 810.5 209.6 804 213.4 798.1C215.4 795 217.5 792.1 221 790.8C224.4 789.5 228.4 790 232 790C244.1 790.2 256.5 790.6 267.5 784.8C269.2 783.9 267.7 781.3 266 782.2C258.8 786 250.9 787 242.9 787.1C236.1 787.2 228.8 786 222.1 787.3C210.4 789.6 205 806.4 203.5 816.5C203.2 818.4 206.1 819.3 206.4 817.4Z" fill="#161616"/>
<path d="M205.5 814.8C206.2 805.7 207.3 794 216.3 789C221.2 786.3 227.6 786.9 233 786.8C237.7 786.8 242.4 786.9 247.2 786.8C256.3 786.6 265.4 785.9 274.1 782.9C282.4 780 290.1 775.5 297.6 771C299.3 770 297.8 767.4 296.1 768.4C287 773.8 277.7 779.3 267.3 781.7C255.8 784.4 243.9 783.7 232.2 783.8C223.6 783.9 215.3 783.9 209.5 791.2C204.2 797.9 203.4 806.6 202.7 814.8C202.4 816.7 205.4 816.7 205.5 814.8Z" fill="#161616"/>
<path opacity="0.05" d="M273.9 783.9C278.2 787.9 272.6 795.5 276.5 802.3C281.6 811.1 296.3 812.2 307.5 811.7C301.6 813.3 292.6 817 287.6 825.3C278.8 839.9 284.9 864.3 306 881.5C307.9 896.5 309.8 911.6 311.8 926.6C306.2 931.5 300.6 936.4 295 941.3C295.2 958.1 295.3 974.9 295.5 991.7C290.5 993.5 282.7 995.5 273.5 994.3C264.3 993.2 262.2 990 244.6 982.8C228.3 976.1 225.9 977.2 220.5 972.3C210.5 963.4 208.6 950.9 208.4 949.7C207.1 940.5 210.8 939.3 212.6 920.8C213.5 911.2 213.3 903.6 213.1 900.9C212.7 892 211.6 888.7 210.5 878.9C209.1 867.2 209.8 864.8 208.9 853.7C206.7 825.1 200.8 819.9 204.7 805.4C206.3 799.5 208.2 792.1 214.7 788.1C222.8 783 228.7 789 245.7 787.6C262 786.2 269.5 779.6 273.9 783.9Z" fill="#6D6C6C"/>
<path opacity="0.11" d="M218.3 790.7C207.2 792.8 199.5 810.2 204.7 820.6C206.4 824 210.3 828.4 215.2 829C219.2 829.5 220.2 826.9 226.2 826.4C232.3 825.9 233.4 828.3 238.3 827.4C241.9 826.8 247.2 824.3 248.8 820.1C251.6 812.6 241.4 803.5 237.8 800.2C232.1 795.1 225.7 789.3 218.3 790.7Z" fill="#6D6C6C"/>
<path opacity="0.14" d="M211.5 857.4C213.9 857 219.4 889.9 230.9 922C241.7 951.9 255.4 974.8 266.1 990.2C257.5 985.9 250.2 983.3 245.1 981.8C238.4 979.8 233.5 979 226.7 975.5C221.7 972.9 218 970.1 215.7 968.2C213.5 965.4 210.4 960.8 209.4 954.6C209 952.3 209.1 951.2 209.9 941C211 926.2 211 925.7 211.5 923.2C213 915 214.3 915.1 214.6 909.6C215 904.4 213.9 903.4 212.5 893.3C211.3 884.5 211.1 877.8 210.9 873.4C210.7 863.4 210.5 857.5 211.5 857.4Z" fill="#6D6C6C"/>
</svg>
