<svg width="2083" height="352" viewBox="0 0 2083 352" fill="none" xmlns="http://www.w3.org/2000/svg">
<path d="M74.6932 273.131H26.3816L4 78.1426H46.8526L59.6811 224.52H60.227L134.196 78.1426H178.686L74.6932 273.131Z" fill="#2F2F41"/>
<path d="M258.627 78.1426H287.014L322.224 273.131H295.475L286.468 214.416H204.311L170.192 273.131H141.533L258.627 78.1426ZM216.048 192.568H283.192L268.726 101.082H268.18L216.048 192.568Z" fill="#2F2F41"/>
<path d="M381.178 78.1426H407.108L371.079 251.283H473.98L469.34 273.131H340.236L381.178 78.1426Z" fill="#2F2F41"/>
<path d="M526.294 192.295C526.294 201.762 527.477 210.41 529.842 218.239C532.208 226.068 535.756 232.804 540.487 238.448C545.218 243.91 551.132 248.188 558.229 251.283C565.507 254.378 574.06 255.926 583.886 255.926C596.805 255.926 608.178 253.104 618.004 247.46C627.83 241.816 636.018 234.442 642.569 225.339C649.302 216.236 654.306 205.95 657.581 194.48C661.039 183.01 662.767 171.449 662.767 159.797C662.767 150.694 661.584 142.228 659.219 134.4C656.853 126.571 653.305 119.835 648.574 114.191C643.843 108.365 638.02 103.813 631.105 100.536C624.373 97.077 616.457 95.3474 607.359 95.3474C593.712 95.3474 581.793 98.2604 571.603 104.086C561.595 109.73 553.225 117.104 546.492 126.207C539.759 135.31 534.664 145.687 531.207 157.339C527.932 168.809 526.294 180.461 526.294 192.295ZM500.364 192.295C500.364 176.456 502.82 161.436 507.734 147.235C512.647 132.852 519.652 120.199 528.75 109.275C538.031 98.3514 549.312 89.7035 562.596 83.3313C575.879 76.7771 590.8 73.5 607.359 73.5C619.915 73.5 631.196 75.7758 641.204 80.3273C651.394 84.6968 659.947 90.7958 666.861 98.6245C673.958 106.271 679.326 115.374 682.965 125.934C686.786 136.493 688.697 147.781 688.697 159.797C688.697 175.09 686.241 189.837 681.328 204.038C676.596 218.239 669.682 230.801 660.584 241.725C651.667 252.649 640.659 261.388 627.557 267.942C614.638 274.314 600.08 277.5 583.886 277.5C557.137 277.5 536.484 270.127 521.927 255.38C507.552 240.45 500.364 219.422 500.364 192.295Z" fill="#2F2F41"/>
<path d="M740.226 78.1426H815.287C823.475 78.1426 831.391 78.9618 839.033 80.6004C846.858 82.0569 853.772 84.6968 859.777 88.5201C865.782 92.3434 870.513 97.4411 873.97 103.813C877.61 110.185 879.429 118.196 879.429 127.845C879.429 134.4 878.337 140.681 876.154 146.689C873.97 152.515 870.968 157.795 867.147 162.528C863.325 167.262 858.685 171.176 853.226 174.271C847.949 177.366 842.036 179.369 835.485 180.279V180.825C839.67 182.1 843.127 184.102 845.857 186.833C848.768 189.564 850.952 192.841 852.407 196.665C854.045 200.306 855.046 204.402 855.41 208.954C855.956 213.505 855.956 218.239 855.41 223.155C855.046 227.524 854.5 231.894 853.772 236.263C853.044 240.45 852.498 244.729 852.134 249.098C851.771 253.286 851.771 257.382 852.134 261.388C852.498 265.393 853.681 269.307 855.683 273.131H828.661C827.387 269.489 826.66 264.118 826.478 257.018C826.296 249.918 827.205 241.361 829.207 231.347C830.663 222.608 831.027 215.599 830.299 210.319C829.753 204.857 828.479 200.67 826.478 197.757C824.476 194.844 822.019 192.841 819.108 191.749C816.197 190.657 813.285 190.019 810.374 189.837H800.002H742.41L724.941 273.131H699.011L740.226 78.1426ZM747.05 167.99H805.461C815.651 167.99 823.839 166.625 830.026 163.894C836.395 161.163 841.308 157.886 844.765 154.062C848.222 150.057 850.497 145.869 851.589 141.5C852.862 136.948 853.499 132.943 853.499 129.484C853.499 123.476 852.408 118.56 850.224 114.737C848.04 110.914 845.129 107.91 841.49 105.725C838.032 103.54 834.029 102.084 829.48 101.355C824.931 100.445 820.2 99.99 815.287 99.99H761.516L747.05 167.99Z" fill="#2F2F41"/>
<path d="M1271.69 273.131H1223.38L1201 78.1426H1243.85L1256.68 224.52H1257.23L1331.2 78.1426H1375.69L1271.69 273.131Z" fill="#2F2F41"/>
<path d="M1455.63 78.1426H1484.01L1519.22 273.131H1492.47L1483.47 214.416H1401.31L1367.19 273.131H1338.53L1455.63 78.1426ZM1413.05 192.568H1480.19L1465.73 101.082H1465.18L1413.05 192.568Z" fill="#2F2F41"/>
<path d="M1578.18 78.1426H1604.11L1568.08 251.283H1670.98L1666.34 273.131H1537.24L1578.18 78.1426Z" fill="#2F2F41"/>
<path d="M1723.29 192.295C1723.29 201.762 1724.48 210.41 1726.84 218.239C1729.21 226.068 1732.76 232.804 1737.49 238.448C1742.22 243.91 1748.13 248.188 1755.23 251.283C1762.51 254.378 1771.06 255.926 1780.89 255.926C1793.81 255.926 1805.18 253.104 1815 247.46C1824.83 241.816 1833.02 234.442 1839.57 225.339C1846.3 216.236 1851.31 205.95 1854.58 194.48C1858.04 183.01 1859.77 171.449 1859.77 159.797C1859.77 150.694 1858.58 142.228 1856.22 134.4C1853.85 126.571 1850.3 119.835 1845.57 114.191C1840.84 108.365 1835.02 103.813 1828.11 100.536C1821.37 97.077 1813.46 95.3474 1804.36 95.3474C1790.71 95.3474 1778.79 98.2604 1768.6 104.086C1758.59 109.73 1750.22 117.104 1743.49 126.207C1736.76 135.31 1731.66 145.687 1728.21 157.339C1724.93 168.809 1723.29 180.461 1723.29 192.295ZM1697.36 192.295C1697.36 176.456 1699.82 161.436 1704.73 147.235C1709.65 132.852 1716.65 120.199 1725.75 109.275C1735.03 98.3514 1746.31 89.7035 1759.6 83.3313C1772.88 76.7771 1787.8 73.5 1804.36 73.5C1816.91 73.5 1828.2 75.7758 1838.2 80.3273C1848.39 84.6968 1856.95 90.7958 1863.86 98.6245C1870.96 106.271 1876.33 115.374 1879.97 125.934C1883.79 136.493 1885.7 147.781 1885.7 159.797C1885.7 175.09 1883.24 189.837 1878.33 204.038C1873.6 218.239 1866.68 230.801 1857.58 241.725C1848.67 252.649 1837.66 261.388 1824.56 267.942C1811.64 274.314 1797.08 277.5 1780.89 277.5C1754.14 277.5 1733.48 270.127 1718.93 255.38C1704.55 240.45 1697.36 219.422 1697.36 192.295Z" fill="#2F2F41"/>
<path d="M1937.23 78.1426H2012.29C2020.48 78.1426 2028.39 78.9618 2036.03 80.6004C2043.86 82.0569 2050.77 84.6968 2056.78 88.5201C2062.78 92.3434 2067.51 97.4411 2070.97 103.813C2074.61 110.185 2076.43 118.196 2076.43 127.845C2076.43 134.4 2075.34 140.681 2073.15 146.689C2070.97 152.515 2067.97 157.795 2064.15 162.528C2060.33 167.262 2055.69 171.176 2050.23 174.271C2044.95 177.366 2039.04 179.369 2032.48 180.279V180.825C2036.67 182.1 2040.13 184.102 2042.86 186.833C2045.77 189.564 2047.95 192.841 2049.41 196.665C2051.05 200.306 2052.05 204.402 2052.41 208.954C2052.96 213.505 2052.96 218.239 2052.41 223.155C2052.05 227.524 2051.5 231.894 2050.77 236.263C2050.04 240.45 2049.5 244.729 2049.13 249.098C2048.77 253.286 2048.77 257.382 2049.13 261.388C2049.5 265.393 2050.68 269.307 2052.68 273.131H2025.66C2024.39 269.489 2023.66 264.118 2023.48 257.018C2023.3 249.918 2024.21 241.361 2026.21 231.347C2027.66 222.608 2028.03 215.599 2027.3 210.319C2026.75 204.857 2025.48 200.67 2023.48 197.757C2021.48 194.844 2019.02 192.841 2016.11 191.749C2013.2 190.657 2010.29 190.019 2007.37 189.837H1997H1939.41L1921.94 273.131H1896.01L1937.23 78.1426ZM1944.05 167.99H2002.46C2012.65 167.99 2020.84 166.625 2027.03 163.894C2033.39 161.163 2038.31 157.886 2041.76 154.062C2045.22 150.057 2047.5 145.869 2048.59 141.5C2049.86 136.948 2050.5 132.943 2050.5 129.484C2050.5 123.476 2049.41 118.56 2047.22 114.737C2045.04 110.914 2042.13 107.91 2038.49 105.725C2035.03 103.54 2031.03 102.084 2026.48 101.355C2021.93 100.445 2017.2 99.99 2012.29 99.99H1958.52L1944.05 167.99Z" fill="#2F2F41"/>
<path d="M1146.02 287.994L1134.86 300.325L1059.7 209.895L1020.65 253.053C1014.18 260.205 1010.35 256.511 1008.27 250.375C1006.2 244.239 1007.84 248.866 1007.57 248.173C993.852 206.828 973.571 144.972 946.374 62.5043L957.531 50.1734L1032.69 140.604L1071.74 97.4458C1077.21 91.4036 1082.06 94.2223 1083.27 97.3404L1084.34 99.8771C1125.34 225.334 1146.02 287.994 1146.02 287.994Z" fill="#FFFF00"/>
<path d="M963.347 301.82L948.549 294.235L1016.45 198.231L964.651 171.682C956.068 167.282 958.643 162.623 964.034 159.032C969.425 155.442 965.381 158.228 965.98 157.788C1002.36 133.832 1056.86 98.2334 1129.48 50.6188L1144.28 58.2042L1076.38 154.208L1128.18 180.757C1135.43 184.474 1133.96 189.889 1131.27 191.87L1129.09 193.558C1018.52 265.633 963.347 301.82 963.347 301.82Z" fill="#FF9500"/>
</svg>
