<svg width="561" height="351" viewBox="0 0 561 351" fill="none" xmlns="http://www.w3.org/2000/svg">
<mask id="mask0_3_554" style="mask-type:luminance" maskUnits="userSpaceOnUse" x="0" y="0" width="561" height="351">
<path d="M560.301 0H0V350.85H560.301V0Z" fill="white"/>
</mask>
<g mask="url(#mask0_3_554)">
<path d="M375.544 282.86L364.386 295.191L289.227 204.76L250.177 247.918C243.706 255.07 239.871 251.377 237.799 245.24C235.726 239.104 237.37 243.731 237.1 243.038C223.378 201.693 203.098 139.837 175.9 57.3696L187.058 45.0386L262.217 135.469L301.267 92.311C306.734 86.2688 311.584 89.0875 312.8 92.2056L313.868 94.7423C354.87 220.199 375.544 282.86 375.544 282.86Z" fill="white" fill-opacity="0.5"/>
<path d="M192.874 296.686L178.075 289.1L245.972 193.096L194.177 166.547C185.594 162.148 188.169 157.488 193.56 153.898C198.951 150.307 194.907 153.093 195.506 152.653C231.891 128.698 286.391 93.0985 359.009 45.4839L373.807 53.0694L305.911 149.073L357.705 175.622C364.956 179.339 363.489 184.754 360.792 186.735L358.618 188.424C248.048 260.498 192.874 296.686 192.874 296.686Z" fill="white"/>
<path d="M93.6932 272.988H45.3816L23 78H65.8526L78.6811 224.378H79.227L153.196 78H197.686L93.6932 272.988Z" fill="white"/>
<path d="M444.693 272.988H396.382L374 78H416.853L429.681 224.378H430.227L504.196 78H548.686L444.693 272.988Z" fill="white" fill-opacity="0.5"/>
</g>
</svg>
