<svg width="455" height="446" viewBox="0 0 455 446" fill="none" xmlns="http://www.w3.org/2000/svg">
<g clip-path="url(#clip0_1_2)">
<path d="M166.667 4.52002C141.733 4.52002 121.427 24.0667 120.093 48.6667C115.04 47.28 109.733 46.52 104.253 46.52C71.24 46.52 44.48 73.28 44.48 106.293C44.48 111.28 45.1067 116.12 46.2533 120.747C25.2667 125.32 9.53334 143.987 9.53334 166.347C9.53334 178.587 14.28 189.693 21.9867 198.027C11.2 208.827 4.53333 223.747 4.53333 240.213C4.53333 263.133 17.44 283.027 36.3733 293.053C29.64 302.733 25.68 314.48 25.68 327.16C25.68 360.16 52.44 386.92 85.4533 386.92C88.3733 386.92 91.24 386.707 94.0533 386.293C96.64 416.92 122.307 440.96 153.587 440.96C186.6 440.96 213.36 414.213 213.36 381.2V51.2267C213.36 25.4267 192.453 4.52002 166.667 4.52002Z" fill="#CCCCCC"/>
<path d="M94.0533 381.773C95.0667 381.773 96.0667 382.107 96.88 382.747C97.8534 383.533 98.4667 384.68 98.5733 385.92C100.96 414.24 125.133 436.44 153.587 436.44C184.053 436.44 208.827 411.653 208.827 381.2V51.2267C208.827 27.9733 189.907 9.05334 166.667 9.05334C144.293 9.05334 125.827 26.56 124.613 48.9067C124.547 50.28 123.853 51.5333 122.747 52.3333C121.627 53.1467 120.213 53.4 118.893 53.0267C114.107 51.72 109.187 51.0533 104.253 51.0533C73.7867 51.0533 49.0133 75.8267 49.0133 106.293C49.0133 110.787 49.56 115.28 50.6533 119.653C50.9467 120.853 50.7467 122.107 50.0933 123.147C49.4533 124.187 48.4133 124.92 47.2133 125.173C28 129.36 14.0667 146.68 14.0667 166.347C14.0667 176.96 18.0533 187.107 25.3067 194.947C26.96 196.733 26.9067 199.493 25.1867 201.227C14.8 211.653 9.06668 225.493 9.06668 240.213C9.06668 260.733 20.3467 279.44 38.4933 289.053C39.64 289.667 40.4667 290.733 40.7733 291.987C41.08 293.253 40.84 294.587 40.0933 295.653C33.6267 304.933 30.2133 315.827 30.2133 327.16C30.2133 357.613 54.9867 382.387 85.4533 382.387C88.0667 382.387 90.7467 382.2 93.4133 381.813C93.6267 381.787 93.84 381.773 94.0533 381.773ZM153.587 445.493C122.027 445.493 94.9867 422.027 90.0934 391.28C88.5467 391.4 86.9867 391.453 85.4533 391.453C50 391.453 21.16 362.613 21.16 327.16C21.16 315.613 24.2 304.453 30 294.6C11.3867 282.867 0 262.453 0 240.213C0 224.48 5.62666 209.6 15.9067 197.88C8.85333 188.88 5 177.827 5 166.347C5 143.96 19.8667 124.093 40.9333 117.48C40.28 113.787 39.9467 110.04 39.9467 106.293C39.9467 70.84 68.8 41.9867 104.253 41.9867C108.227 41.9867 112.213 42.36 116.133 43.1067C120.04 18.5333 141.293 0 166.667 0C194.907 0 217.893 22.9733 217.893 51.2267V381.2C217.893 416.653 189.04 445.493 153.587 445.493Z" fill="#808080"/>
<path d="M166.667 97.92C140.867 97.92 119.96 77.0134 119.96 51.2267Z" fill="#CCCCCC"/>
<path d="M166.667 102.453C138.413 102.453 115.44 79.4667 115.44 51.2267C115.44 48.72 117.467 46.6934 119.96 46.6934C122.467 46.6934 124.493 48.72 124.493 51.2267C124.493 74.4667 143.413 93.3867 166.667 93.3867C169.16 93.3867 171.187 95.4134 171.187 97.92C171.187 100.413 169.16 102.453 166.667 102.453Z" fill="#808080"/>
<path d="M153.587 440.96C120.587 440.96 93.8267 414.213 93.8267 381.2C93.8267 348.187 120.587 321.427 153.587 321.427" fill="#CCCCCC"/>
<path d="M153.587 445.493C118.133 445.493 89.2933 416.653 89.2933 381.2C89.2933 345.747 118.133 316.893 153.587 316.893C156.093 316.893 158.12 318.92 158.12 321.427C158.12 323.933 156.093 325.96 153.587 325.96C123.133 325.96 98.3467 350.747 98.3467 381.2C98.3467 411.653 123.133 436.44 153.587 436.44C156.093 436.44 158.12 438.467 158.12 440.96C158.12 443.467 156.093 445.493 153.587 445.493Z" fill="#808080"/>
<path d="M4.53333 240.227C4.53333 223.773 11.1867 208.88 21.9467 198.053C32.7733 187.173 47.7733 180.453 64.3067 180.453C76.1733 180.453 87.24 183.933 96.5467 189.893C113.12 200.52 124.067 219.107 124.067 240.227" fill="#CCCCCC"/>
<path d="M124.067 244.76C121.56 244.76 119.533 242.733 119.533 240.227C119.533 221.307 110.027 203.92 94.1067 193.707C85.2 188 74.8934 184.987 64.3067 184.987C49.5067 184.987 35.6 190.76 25.16 201.253C14.7867 211.693 9.06668 225.533 9.06668 240.227C9.06668 242.733 7.04 244.76 4.53333 244.76C2.04 244.76 0 242.733 0 240.227C0 223.12 6.65335 207.013 18.7333 194.853C30.8933 182.64 47.08 175.92 64.3067 175.92C76.64 175.92 88.6267 179.44 99 186.08C117.533 197.96 128.6 218.2 128.6 240.227C128.6 242.733 126.56 244.76 124.067 244.76Z" fill="#808080"/>
<path d="M288.227 9.05333C264.973 9.05333 246.053 27.9733 246.053 51.2267V381.2C246.053 411.653 270.84 436.44 301.293 436.44C329.747 436.44 353.92 414.24 356.32 385.92C356.413 384.68 357.027 383.533 358.013 382.747C358.987 381.973 360.24 381.64 361.48 381.813C364.133 382.2 366.813 382.387 369.427 382.387C399.893 382.387 424.667 357.613 424.667 327.16C424.667 315.827 421.253 304.933 414.787 295.653C414.053 294.587 413.8 293.253 414.107 291.987C414.413 290.733 415.24 289.667 416.387 289.053C434.533 279.44 445.813 260.733 445.813 240.213C445.813 225.493 440.093 211.653 429.693 201.227C427.973 199.493 427.92 196.733 429.574 194.947C436.827 187.107 440.827 176.96 440.827 166.347C440.827 146.68 426.88 129.36 407.667 125.173C406.467 124.92 405.427 124.187 404.787 123.147C404.134 122.107 403.934 120.853 404.24 119.653C405.32 115.28 405.867 110.787 405.867 106.293C405.867 75.8267 381.094 51.0533 350.64 51.0533C345.707 51.0533 340.774 51.72 335.987 53.0267C334.667 53.4 333.254 53.1467 332.134 52.3333C331.027 51.5333 330.334 50.28 330.267 48.9067C329.054 26.56 310.587 9.05333 288.227 9.05333ZM301.293 445.493C265.84 445.493 237 416.653 237 381.2V51.2267C237 22.9733 259.973 0 288.227 0C313.6 0 334.84 18.5333 338.747 43.1067C342.667 42.36 346.653 41.9867 350.64 41.9867C386.093 41.9867 414.933 70.84 414.933 106.293C414.933 110.04 414.6 113.787 413.96 117.48C435.013 124.093 449.88 143.96 449.88 166.347C449.88 177.827 446.04 188.88 438.973 197.88C449.253 209.6 454.88 224.48 454.88 240.213C454.88 262.453 443.493 282.867 424.88 294.6C430.68 304.453 433.733 315.613 433.733 327.16C433.733 362.613 404.88 391.453 369.427 391.453C367.893 391.453 366.347 391.4 364.787 391.28C359.893 422.027 332.867 445.493 301.293 445.493Z" fill="#808080"/>
<path d="M311.107 92.7867C311.107 102.853 302.947 111 292.893 111C282.827 111 274.667 102.853 274.667 92.7867C274.667 82.72 282.827 74.5734 292.893 74.5734C302.947 74.5734 311.107 82.72 311.107 92.7867Z" fill="#FF9500" fill-opacity="0.5" stroke="#FF00FF" stroke-width="0.133333"/>
<path d="M292.893 79.0934C285.347 79.0934 279.2 85.24 279.2 92.7867C279.2 100.333 285.347 106.48 292.893 106.48C300.44 106.48 306.573 100.333 306.573 92.7867C306.573 85.24 300.44 79.0934 292.893 79.0934ZM292.893 115.533C280.347 115.533 270.147 105.333 270.147 92.7867C270.147 80.24 280.347 70.04 292.893 70.04C305.427 70.04 315.64 80.24 315.64 92.7867C315.64 105.333 305.427 115.533 292.893 115.533Z" fill="#808080"/>
<path d="M311.107 342.92C311.107 352.987 302.947 361.147 292.893 361.147C282.827 361.147 274.667 352.987 274.667 342.92C274.667 332.867 282.827 324.707 292.893 324.707C302.947 324.707 311.107 332.867 311.107 342.92Z" fill="#FF9500" fill-opacity="0.5" stroke="#FF9500" stroke-width="0.133333"/>
<path d="M292.893 329.24C285.347 329.24 279.2 335.373 279.2 342.92C279.2 350.467 285.347 356.613 292.893 356.613C300.44 356.613 306.573 350.467 306.573 342.92C306.573 335.373 300.44 329.24 292.893 329.24ZM292.893 365.667C280.347 365.667 270.147 355.467 270.147 342.92C270.147 330.387 280.347 320.173 292.893 320.173C305.427 320.173 315.64 330.387 315.64 342.92C315.64 355.467 305.427 365.667 292.893 365.667Z" fill="#808080"/>
<path d="M383.107 210.333C383.107 220.4 374.96 228.56 364.893 228.56C354.84 228.56 346.68 220.4 346.68 210.333C346.68 200.28 354.84 192.12 364.893 192.12C374.96 192.12 383.107 200.28 383.107 210.333Z" fill="#FF9500" fill-opacity="0.5" stroke="#FF00FF" stroke-width="0.133333"/>
<path d="M364.893 196.653C357.347 196.653 351.213 202.787 351.213 210.333C351.213 217.88 357.347 224.027 364.893 224.027C372.44 224.027 378.587 217.88 378.587 210.333C378.587 202.787 372.44 196.653 364.893 196.653ZM364.893 233.08C352.347 233.08 342.147 222.88 342.147 210.333C342.147 197.8 352.347 187.587 364.893 187.587C377.44 187.587 387.64 197.8 387.64 210.333C387.64 222.88 377.44 233.08 364.893 233.08Z" fill="#808080"/>
<path d="M292.893 329.24C290.387 329.24 288.36 327.213 288.36 324.707V272.613C288.36 270.107 290.387 268.08 292.893 268.08C295.387 268.08 297.413 270.107 297.413 272.613V324.707C297.413 327.213 295.387 329.24 292.893 329.24Z" fill="#808080"/>
<path d="M292.893 227.28C290.387 227.28 288.36 225.253 288.36 222.747V111C288.36 108.507 290.387 106.48 292.893 106.48C295.387 106.48 297.413 108.507 297.413 111V222.747C297.413 225.253 295.387 227.28 292.893 227.28Z" fill="#808080"/>
<path d="M356.347 196.653C354.747 196.653 353.2 195.8 352.373 194.307L303.627 105.68C302.427 103.493 303.227 100.733 305.413 99.5333C307.613 98.32 310.36 99.12 311.573 101.32L360.307 189.933C361.52 192.133 360.72 194.88 358.52 196.093C357.827 196.467 357.08 196.653 356.347 196.653Z" fill="#808080"/>
</g>
<defs>
<clipPath id="clip0_1_2">
<rect width="454.88" height="445.493" fill="white"/>
</clipPath>
</defs>
</svg>
