<svg width="391" height="391" viewBox="0 0 391 391" fill="none" xmlns="http://www.w3.org/2000/svg">
<path d="M195.464 41.076C280.731 41.076 349.847 110.199 349.847 195.465C349.847 280.732 280.731 349.865 195.464 349.865C110.199 349.865 41.0773 280.732 41.0773 195.465" stroke="#808080" stroke-width="7.93701" stroke-miterlimit="10"/>
<path d="M384.26 195.465C384.26 299.732 299.735 384.265 195.464 384.265C91.1947 384.265 6.66666 299.732 6.66666 195.465C6.66666 91.1947 91.1947 6.66669 195.464 6.66669C299.735 6.66669 384.26 91.1947 384.26 195.465Z" stroke="#808080" stroke-width="7.93701" stroke-miterlimit="10"/>
<path d="M195.464 106.892V195.465L147.8 243.132" stroke="#808080" stroke-width="7.93701" stroke-miterlimit="10" stroke-linecap="round" stroke-linejoin="round"/>
<path d="M195.464 41.0747V64.3267" stroke="#FF9500" stroke-opacity="0.5" stroke-width="7.93701" stroke-miterlimit="10" stroke-linecap="round" stroke-linejoin="round"/>
<path d="M41.0733 195.465H64.3267" stroke="#FF9500" stroke-opacity="0.5" stroke-width="7.93701" stroke-miterlimit="10" stroke-linecap="round" stroke-linejoin="round"/>
<path d="M195.464 349.852V326.599" stroke="#FF9500" stroke-opacity="0.5" stroke-width="7.93701" stroke-miterlimit="10" stroke-linecap="round" stroke-linejoin="round"/>
<path d="M349.86 195.465H326.603" stroke="#FF9500" stroke-opacity="0.5" stroke-width="7.93701" stroke-miterlimit="10" stroke-linecap="round" stroke-linejoin="round"/>
</svg>
