<svg width="693" height="881" viewBox="0 0 693 881" fill="none" xmlns="http://www.w3.org/2000/svg">
<g clip-path="url(#clip0_1_31)">
<path d="M57.0749 638.2C53.1816 638.2 49.355 636.28 47.0883 632.747C25.2749 598.747 9.5416 561.52 0.314946 522.107C-1.17838 515.747 2.78162 509.36 9.1683 507.867C15.5016 506.427 21.9149 510.32 23.395 516.72C32.0083 553.48 46.6883 588.227 67.0483 619.947C70.5816 625.453 68.9816 632.787 63.475 636.32C61.4883 637.6 59.2616 638.2 57.0749 638.2Z" fill="#808080"/>
<path d="M346.582 796.907C252.555 796.907 162.715 760 95.2883 692.56C90.6616 687.933 90.6616 680.427 95.2883 675.8C99.9149 671.173 107.422 671.173 112.048 675.8C184.062 747.827 283.515 782.52 384.755 771.04C391.448 770.16 397.142 774.987 397.862 781.467C398.608 787.973 393.928 793.853 387.435 794.587C373.768 796.133 360.128 796.907 346.582 796.907Z" fill="#808080"/>
<path d="M302.328 881C299.288 881 296.262 879.84 293.942 877.52C289.315 872.893 289.315 865.4 293.942 860.76L372.328 782.373L293.942 704C289.315 699.36 289.315 691.867 293.942 687.24C298.568 682.613 306.075 682.613 310.702 687.24L397.462 774C402.088 778.627 402.088 786.12 397.462 790.76L310.702 877.52C308.395 879.84 305.355 881 302.328 881Z" fill="#808080"/>
<path d="M680.582 373.44C675.195 373.44 670.328 369.76 669.048 364.28C660.435 327.52 645.755 292.787 625.408 261.053C621.875 255.547 623.475 248.213 628.982 244.68C634.475 241.133 641.808 242.733 645.355 248.253C667.168 282.253 682.902 319.48 692.128 358.893C693.622 365.253 689.662 371.64 683.288 373.133C682.382 373.333 681.462 373.44 680.582 373.44Z" fill="#808080"/>
<path d="M588.782 208.667C585.755 208.667 582.715 207.52 580.408 205.2C508.395 133.173 408.915 98.48 307.688 109.96C300.915 110.773 295.315 106.027 294.582 99.5333C293.835 93.0267 298.515 87.1467 305.008 86.4133C413.595 74.1067 520.022 111.293 597.155 188.44C601.795 193.067 601.795 200.573 597.155 205.2C594.848 207.52 591.808 208.667 588.782 208.667Z" fill="#808080"/>
<path d="M390.128 197.24C387.088 197.24 384.062 196.08 381.742 193.76L294.982 107C290.355 102.373 290.355 94.88 294.982 90.24L381.742 3.48001C386.382 -1.16 393.875 -1.16 398.502 3.48001C403.128 8.10664 403.128 15.6 398.502 20.24L320.128 98.6267L398.502 177C403.128 181.64 403.128 189.133 398.502 193.76C396.195 196.08 393.155 197.24 390.128 197.24Z" fill="#808080"/>
<path d="M405.253 272.575L378.313 265.357L365.981 311.383L392.92 318.602L405.253 272.575Z" fill="#FF9500" fill-opacity="0.501961"/>
<path d="M325.661 569.617L298.721 562.398L286.389 608.425L313.328 615.643L325.661 569.617Z" fill="#FF9500" fill-opacity="0.501961"/>
<path d="M457.45 408.082L464.668 381.142L272.584 329.674L265.366 356.613L457.45 408.082Z" fill="#FF9500" fill-opacity="0.501961"/>
<path d="M438.385 479.232L445.604 452.293L253.52 400.824L246.301 427.763L438.385 479.232Z" fill="#FF9500" fill-opacity="0.501961"/>
<path d="M419.859 548.373L427.078 521.434L234.994 469.965L227.775 496.904L419.859 548.373Z" fill="#FF9500" fill-opacity="0.501961"/>
</g>
<defs>
<clipPath id="clip0_1_31">
<rect width="692.443" height="881" fill="white"/>
</clipPath>
</defs>
</svg>
