<svg width="32" height="32" viewBox="0 0 32 32" fill="none" xmlns="http://www.w3.org/2000/svg">
<g clip-path="url(#clip0_1_540)">
<path d="M24.7594 26.5254L23.7199 27.6742L16.7175 19.249L13.0793 23.27C12.4764 23.9363 12.1192 23.5922 11.9261 23.0205C11.733 22.4488 11.8862 22.8799 11.861 22.8153C10.5826 18.9633 8.69307 13.2003 6.15918 5.51705L7.19866 4.36821L14.2011 12.7934L17.8393 8.77246C18.3486 8.20953 18.8005 8.47214 18.9137 8.76264L19.0133 8.99898C22.8333 20.6874 24.7594 26.5254 24.7594 26.5254Z" fill="#FFFF00"/>
<path d="M7.7405 27.8133L6.36176 27.1066L12.6875 18.1622L7.86195 15.6886C7.06228 15.2787 7.30222 14.8446 7.80446 14.5101C8.30671 14.1756 7.92994 14.4352 7.98578 14.3941C11.3757 12.1623 16.4533 8.84563 23.2189 4.4095L24.5976 5.11622L18.2719 14.0607L23.0974 16.5342C23.773 16.8805 23.6363 17.3849 23.385 17.5695L23.1825 17.7268C12.881 24.4418 7.7405 27.8133 7.7405 27.8133Z" fill="#FF9500"/>
</g>
<defs>
<clipPath id="clip0_1_540">
<rect width="32" height="32" fill="white"/>
</clipPath>
</defs>
</svg>
